<svg id="Arrows_Up" data-name="Arrows Up" xmlns="http://www.w3.org/2000/svg" xmlns:xlink="http://www.w3.org/1999/xlink" viewBox="0 0 280.48 298.02"><defs><style>.cls-1{fill:none;}.cls-2{fill:#fff;}.cls-3{clip-path:url(#clip-path);}.cls-4{fill:#22c1eb;fill-rule:evenodd;}</style><clipPath id="clip-path" transform="translate(-681.65 -44.52)"><path class="cls-1" d="M887.6,169.35l-61.87-62.18a29.69,29.69,0,0,0-21.15-8.79h0a29.73,29.73,0,0,0-21.14,8.75L721.1,169.42a21.36,21.36,0,0,0,30.21,30.21l28.76-28.76v80.86a23.71,23.71,0,1,0,47.41,0V169.48l29.84,30A21.36,21.36,0,0,0,887.6,169.35Z"/></clipPath></defs><title>arrowswag</title><path class="cls-2" d="M887.6,168.31l-61.87-62.18a29.69,29.69,0,0,0-21.15-8.79h0a29.73,29.73,0,0,0-21.14,8.75L721.1,168.38a21.36,21.36,0,0,0,30.21,30.21l28.76-28.76V250.7a23.71,23.71,0,1,0,47.41,0V168.44l29.84,30A21.36,21.36,0,0,0,887.6,168.31Z" transform="translate(-681.65 -44.52)"/><g class="cls-3"><path class="cls-4" d="M728.47,305.78c-0.2-.59-0.4-1.18-0.6-1.78,2.47-2.24.38-6.73,5.32-7.75,0.27,3.84-3.35,5.76-3.82,9.23Z" transform="translate(-681.65 -44.52)"/><path class="cls-4" d="M722.76,288.87l-0.9-2.67c3.95-.49,10.26-5.75,11.58-0.94Z" transform="translate(-681.65 -44.52)"/><path class="cls-4" d="M702.3,228.33l-0.6-1.78c2.43-.53-0.47-3.69,2.66-3.87C705.56,225.49,704.74,227.31,702.3,228.33Z" transform="translate(-681.65 -44.52)"/><path class="cls-4" d="M721.24,281.44a20.7,20.7,0,0,1,5-11.61C727.09,274.94,723.64,277.94,721.24,281.44Z" transform="translate(-681.65 -44.52)"/><path class="cls-4" d="M714.62,261.86c-1-3.68-1.58-7.21.85-9.22C714.93,255.58,717.83,260.23,714.62,261.86Z" transform="translate(-681.65 -44.52)"/><path class="cls-4" d="M738.38,329.21c0.14-4.05,7.19-2.09,10.09-2.42C747.16,329.35,741.06,328.87,738.38,329.21Z" transform="translate(-681.65 -44.52)"/><path class="cls-4" d="M735.93,313.18c3.17-2.55,6.85,7,3.6,7.71C737.54,319.92,737.06,315.9,735.93,313.18Z" transform="translate(-681.65 -44.52)"/><path class="cls-4" d="M712.15,239.87c1.28-5.07,7.23,2.31,10.71,2.34C719.87,246.18,716,239.08,712.15,239.87Z" transform="translate(-681.65 -44.52)"/><path class="cls-4" d="M686.22,149.66c0.71-4.1-1.81-8,1.73-10.72C686.75,142.79,690,147.05,686.22,149.66Z" transform="translate(-681.65 -44.52)"/><path class="cls-4" d="M748.84,342.54c0.94-3,.86-6.49,4.12-8.34,1.43,3.43-2.88,4-1.45,7.43Z" transform="translate(-681.65 -44.52)"/><path class="cls-4" d="M701.29,201.88c0-5.05,7.86-2.58,10.1-2.42C709.38,203.41,705.27,198.91,701.29,201.88Z" transform="translate(-681.65 -44.52)"/><path class="cls-4" d="M720.54,255.89c0.61-3,4.66-7.15,7.7-6.57C725.72,251.53,725.24,254.75,720.54,255.89Z" transform="translate(-681.65 -44.52)"/><path class="cls-4" d="M731,275.16c0.9-2.22,5.06-5.28,7.41-4.49C738.22,273.28,734.24,274,731,275.16Z" transform="translate(-681.65 -44.52)"/><path class="cls-4" d="M705.37,179.89q1.36,4,2.71,8C706.22,188.18,701.8,181,705.37,179.89Z" transform="translate(-681.65 -44.52)"/><path class="cls-4" d="M682.26,128c0.48-2.72-2.31-7.07,1.15-8.33C683.77,122.78,685.26,126.48,682.26,128Z" transform="translate(-681.65 -44.52)"/><path class="cls-4" d="M746,313.73c3.15-2.6,3.12-10,7.69-9.54C751.55,307.56,751.54,312,746,313.73Z" transform="translate(-681.65 -44.52)"/><path class="cls-4" d="M755,325.58c3.37-.31,5,2.87,6.27,6.81C757.74,333,757.22,327.59,755,325.58Z" transform="translate(-681.65 -44.52)"/><path class="cls-4" d="M718,213.11c4-.69,3.55,7.8,5.69,11-0.61.82-1.23,1.61-1.78,0.6C719.71,222.87,720.36,217.35,718,213.11Z" transform="translate(-681.65 -44.52)"/><path class="cls-4" d="M715.89,209.84c1.32-3.05,1.72-6.56,5-8.64C720.07,204.5,720.26,208.3,715.89,209.84Z" transform="translate(-681.65 -44.52)"/><path class="cls-4" d="M707.72,172.15q-1.23-6.54,4.72-9.53C711,165.88,710.3,169.48,707.72,172.15Z" transform="translate(-681.65 -44.52)"/><path class="cls-4" d="M702.59,154c0.34-3.54,9.67-3.72,11.58-.94C710.09,153.87,706.8,153,702.59,154Z" transform="translate(-681.65 -44.52)"/><path class="cls-4" d="M688.18,122c0.48-3.22,4.19-4.84,7.7-6.57C695,118.45,692.69,120.77,688.18,122Z" transform="translate(-681.65 -44.52)"/><path class="cls-4" d="M699,142.16c0-3.2,4.34-4.28,6.81-6.27C706.8,139.62,702.57,140.73,699,142.16Z" transform="translate(-681.65 -44.52)"/><path class="cls-4" d="M766.32,329.69c0.2-3.85,3.65-6.1,5.9-8.94C773.24,325.21,769.79,327.46,766.32,329.69Z" transform="translate(-681.65 -44.52)"/><path class="cls-4" d="M723.53,186.65c-2.85-2.92,2.81-8,5.3-10.72C728.45,180.19,725.29,183.07,723.53,186.65Z" transform="translate(-681.65 -44.52)"/><path class="cls-4" d="M754.22,279.22l-3.31-9.79C754.1,268.34,758.88,278.11,754.22,279.22Z" transform="translate(-681.65 -44.52)"/><path class="cls-4" d="M746.09,255.18c1.55-3.52,5.66.45,8.61-.92C754.33,259,749,254.45,746.09,255.18Z" transform="translate(-681.65 -44.52)"/><path class="cls-4" d="M737.93,222.23c1.72-2.64,8.4-5.85,12.16-5.1C748,219.57,739.53,221.9,737.93,222.23Z" transform="translate(-681.65 -44.52)"/><path class="cls-4" d="M786.23,329.9l-2.67.9c-2.35-1.24-5.19-1.5-7.74-2.34C777.75,326.13,783.9,328.07,786.23,329.9Z" transform="translate(-681.65 -44.52)"/><path class="cls-4" d="M770.08,305.61c2.15-2.78,8.37-1,10.41,1.44C776.24,308.14,773.58,306,770.08,305.61Z" transform="translate(-681.65 -44.52)"/><path class="cls-4" d="M747.8,236.75c2.76,1.47,8.41,3.2,8,6.21C753.09,241.49,747.44,239.76,747.8,236.75Z" transform="translate(-681.65 -44.52)"/><path class="cls-4" d="M741.44,209.14c-4.71-2.86,3.77-5.52,2.93-8.93C748.62,202.85,742,206.41,741.44,209.14Z" transform="translate(-681.65 -44.52)"/><path class="cls-4" d="M769.13,291c-0.9-3.62,8.54-5,9.2-2.12C774.93,289.52,774.2,289.29,769.13,291Z" transform="translate(-681.65 -44.52)"/><path class="cls-4" d="M721.86,145.33c-0.36-2.9-3.73-7.28-2.12-9.2C723.36,135.23,724.78,144.67,721.86,145.33Z" transform="translate(-681.65 -44.52)"/><path class="cls-4" d="M733.54,166.4c0.21-3.26,4.88-1.28,6.84,1.44C736.9,167.37,737,166.87,733.54,166.4Z" transform="translate(-681.65 -44.52)"/><path class="cls-4" d="M714.32,120.1c3.43-.94,5.27,1.34,8.32,1.15C722.68,125,715.77,122.72,714.32,120.1Z" transform="translate(-681.65 -44.52)"/><path class="cls-4" d="M715.15,104.94c1-4.87,6.66,2.36,9.23,3.83C720.18,109.77,718.55,105.56,715.15,104.94Z" transform="translate(-681.65 -44.52)"/><path class="cls-4" d="M759.64,227.79c0.83-3.78,10.38-3,12.19.84C767.32,228.34,762.9,226.53,759.64,227.79Z" transform="translate(-681.65 -44.52)"/><path class="cls-4" d="M788.81,308.2c2.31,2.32,4,6,5.39,10.08C791,318.07,788.45,310.79,788.81,308.2Z" transform="translate(-681.65 -44.52)"/><path class="cls-4" d="M746.1,184.76c3.49,0.44,7.22.38,9.82,2.63C751.53,188.76,748.23,187.93,746.1,184.76Z" transform="translate(-681.65 -44.52)"/><path class="cls-4" d="M736.77,157.16c1.56-2.36,6.8-5,9.2-2.12C742.86,155.82,739,158.17,736.77,157.16Z" transform="translate(-681.65 -44.52)"/><path class="cls-4" d="M777.34,265.46c-0.51-4.76,6.5-2,8.9-3C786.52,266.11,780.52,263.93,777.34,265.46Z" transform="translate(-681.65 -44.52)"/><path class="cls-4" d="M760.47,212.63c0.25-3.09,4.48-4.21,6.81-6.27C767.6,209.73,764.41,211.36,760.47,212.63Z" transform="translate(-681.65 -44.52)"/><path class="cls-4" d="M775.81,255.06c0-2.73-1.84-6.35-.93-8.61C777.09,244.85,779,254.56,775.81,255.06Z" transform="translate(-681.65 -44.52)"/><path class="cls-4" d="M788.08,276.7c-0.21-1.09,1.37-1.3,2.37-1.79,1.21,4.54,4.79,4.31,5.39,10.08C792.55,283.66,791.33,278.14,788.08,276.7Z" transform="translate(-681.65 -44.52)"/><path class="cls-4" d="M746.17,132.16c-1.1-3.58,7.58-4.18,8.31-1.82C751.2,132,749.6,130.22,746.17,132.16Z" transform="translate(-681.65 -44.52)"/><path class="cls-4" d="M759.37,162.41c0.89,4.69,3.61,5.69,4.5,10.38C761.39,172.71,756.23,164.1,759.37,162.41Z" transform="translate(-681.65 -44.52)"/><path class="cls-4" d="M743.45,121.17c0.45-2.5-1.7-6.28-.93-8.61C745.35,112,747,120.33,743.45,121.17Z" transform="translate(-681.65 -44.52)"/><path class="cls-4" d="M779.25,224.14c1.28-5.1,6.21,4.35,8.94,5.91C783.88,230.75,782.2,226.16,779.25,224.14Z" transform="translate(-681.65 -44.52)"/><path class="cls-4" d="M735,93.27l2.67-.9c0.43,1.12,1.56.85,1.79,2.37C737.23,95.78,735.54,95.71,735,93.27Z" transform="translate(-681.65 -44.52)"/><path class="cls-4" d="M777.42,212.86c0.49-3.46,4.88-5,5-8.64C785.82,206.67,781.57,211.67,777.42,212.86Z" transform="translate(-681.65 -44.52)"/><path class="cls-4" d="M808.67,296.53c3.15-.31,5.46,8.86,4.8,11.27C809.85,308.51,808.49,298.75,808.67,296.53Z" transform="translate(-681.65 -44.52)"/><path class="cls-4" d="M756.31,141.62c3.2,1.49,8.08,6,7.47,10.37A28.2,28.2,0,0,1,756.31,141.62Z" transform="translate(-681.65 -44.52)"/><path class="cls-4" d="M800.83,270.41c0.22-2.86-1.1-6.47-2.42-10.09C801.8,259.49,804.46,269.89,800.83,270.41Z" transform="translate(-681.65 -44.52)"/><path class="cls-4" d="M777.94,196.8c-2.36-1.22-4.38-8.55-2.42-10.09C778.54,185.7,777,194,777.94,196.8Z" transform="translate(-681.65 -44.52)"/><path class="cls-4" d="M798.05,244.57l-0.9-2.67c5.34-.49,7.57-3.25,11.87-3C808.49,242.32,802,242.82,798.05,244.57Z" transform="translate(-681.65 -44.52)"/><path class="cls-4" d="M747.48,89.06l1.78-.6c1.24,4.49,4.79,4.3,6.57,7.7C751.66,96.6,749.24,93.48,747.48,89.06Z" transform="translate(-681.65 -44.52)"/><path class="cls-4" d="M817.26,289.66c0.15-5,7.3-.38,10.39-1.53C827.28,292.37,820.82,288.37,817.26,289.66Z" transform="translate(-681.65 -44.52)"/><path class="cls-4" d="M835.19,313.36l-1.78.6a8.44,8.44,0,0,0-4.76-2.36C829.73,308.54,834.35,311,835.19,313.36Z" transform="translate(-681.65 -44.52)"/><path class="cls-4" d="M787.1,182.8l-3.92-11.57C786.13,170.38,790,181.69,787.1,182.8Z" transform="translate(-681.65 -44.52)"/><path class="cls-4" d="M765.69,110.68c-0.69-4,7.81-3.55,11-5.69C777.36,109,768.86,108.54,765.69,110.68Z" transform="translate(-681.65 -44.52)"/><path class="cls-4" d="M819.54,267.06c3.57,1.76,9.57-1.37,11.9,2.92C827.19,269.6,821.65,271.8,819.54,267.06Z" transform="translate(-681.65 -44.52)"/><path class="cls-4" d="M774.39,127.58c3.91-.76,4.19,8.12,4.5,10.38C775.62,138.34,777,131.43,774.39,127.58Z" transform="translate(-681.65 -44.52)"/><path class="cls-4" d="M795.45,189.9c3.36,1.21,5.54,4.78,8.35,7.1C799.63,197.43,797.21,194.32,795.45,189.9Z" transform="translate(-681.65 -44.52)"/><path class="cls-4" d="M784.9,155.77c0.13-4.08,8.93-1.55,11,.25C791.57,157.28,788.46,156.07,784.9,155.77Z" transform="translate(-681.65 -44.52)"/><path class="cls-4" d="M809.84,220.74c3.92,0.57,6,4.95,8.65,8C814,229.4,812.22,224.42,809.84,220.74Z" transform="translate(-681.65 -44.52)"/><path class="cls-4" d="M763.5,83.64l1.78-.61,1.51,4.45C764.8,88,764.12,85.9,763.5,83.64Z" transform="translate(-681.65 -44.52)"/><path class="cls-4" d="M820.34,246c3.81,0.29,7.45.93,8.94,5.9C826.28,249.94,822.71,249.17,820.34,246Z" transform="translate(-681.65 -44.52)"/><path class="cls-4" d="M796.88,176.52c4.11-.32,6.54,2.76,9.53,4.71C804.5,183,799,179.28,796.88,176.52Z" transform="translate(-681.65 -44.52)"/><path class="cls-4" d="M813,197.85c4.47-.54,6.28,4.29,8.06,9.18C817.65,205.46,816,200.39,813,197.85Z" transform="translate(-681.65 -44.52)"/><path class="cls-4" d="M777.78,87.75c3.32,0.79,8.41,4.29,7.76,8.29C782.78,93.64,779.83,91.61,777.78,87.75Z" transform="translate(-681.65 -44.52)"/><path class="cls-4" d="M788.59,113.85c1.88-2.71,7.38,0,8.34,4.13C793.85,117.21,792,114,788.59,113.85Z" transform="translate(-681.65 -44.52)"/><path class="cls-4" d="M831.6,235.21c3.66,0.09,6.2,2.45,8.64,5C836.61,240.06,833.31,239.24,831.6,235.21Z" transform="translate(-681.65 -44.52)"/><path class="cls-4" d="M843,257.16c4.07-.24,4.82,6.23,8.35,7.1C849.27,266.35,844.34,261.44,843,257.16Z" transform="translate(-681.65 -44.52)"/><path class="cls-4" d="M808.34,145.86c2.47,3,5.11,5.66,7.17,9.48C811.82,155.3,808.27,148.68,808.34,145.86Z" transform="translate(-681.65 -44.52)"/><path class="cls-4" d="M856.76,283.25c0.86,4.47,4.22,9.48,3.91,11.58C858,295.21,853.75,284.68,856.76,283.25Z" transform="translate(-681.65 -44.52)"/><path class="cls-4" d="M822.71,170.76c4,0.47,7,2.76,9.83,5.61A12.5,12.5,0,0,1,822.71,170.76Z" transform="translate(-681.65 -44.52)"/><path class="cls-4" d="M799.84,103.1c1.92-2.8,6.94.9,8.34,4.13C805,106.64,802.56,104.59,799.84,103.1Z" transform="translate(-681.65 -44.52)"/><path class="cls-4" d="M834.12,198.65c0.25-4.32,9-1.8,11,.25C840.91,199.9,838.32,197.65,834.12,198.65Z" transform="translate(-681.65 -44.52)"/><path class="cls-4" d="M852.75,247.91c-0.2-3.37,8.7-5.16,11.27-4.8C862.61,245.86,856.14,246.12,852.75,247.91Z" transform="translate(-681.65 -44.52)"/><path class="cls-4" d="M810.92,124.16c3.62,0.18,7.86,5.39,7.76,8.29C815.8,130.3,812.83,128.29,810.92,124.16Z" transform="translate(-681.65 -44.52)"/><path class="cls-4" d="M797.68,85c0.77-4.4,8-.32,11.59-0.94C807,87,801.27,84.29,797.68,85Z" transform="translate(-681.65 -44.52)"/><path class="cls-4" d="M863.86,274.9c0.13-2.65-.78-5.82-2.12-9.2C865.12,264.68,867.36,274.53,863.86,274.9Z" transform="translate(-681.65 -44.52)"/><path class="cls-4" d="M825.62,155.9c3.75-.1,8.32,4.47,7.76,8.29C830.58,161.83,828.19,158.68,825.62,155.9Z" transform="translate(-681.65 -44.52)"/><path class="cls-4" d="M851.72,215.52c0.61,3.27.63,6.25,2.42,10.09C850.75,225.8,848.51,216.67,851.72,215.52Z" transform="translate(-681.65 -44.52)"/><path class="cls-4" d="M820.69,114.9c-0.41-5.11,8.89-5.33,11-5.69C829.69,111.94,823.2,112.44,820.69,114.9Z" transform="translate(-681.65 -44.52)"/><path class="cls-4" d="M879.35,285.54c-0.77-4.33,2.3-6.77,5.91-8.94C885.12,280.48,881.36,282.57,879.35,285.54Z" transform="translate(-681.65 -44.52)"/><path class="cls-4" d="M873.59,256.73c3.93-.45,7.93,5.25,7.76,8.29C878.46,262.85,876.14,259.56,873.59,256.73Z" transform="translate(-681.65 -44.52)"/><path class="cls-4" d="M838.06,145.74c-3.48-2.25.84-7,4.13-8.34C843.32,141.43,837.25,141.88,838.06,145.74Z" transform="translate(-681.65 -44.52)"/><path class="cls-4" d="M853.69,189.06l-3.91-11.57C852.72,176.64,856.54,187.95,853.69,189.06Z" transform="translate(-681.65 -44.52)"/><path class="cls-4" d="M852.11,166.78c0.65-3.14-2.5-8.16.55-10.11C853.88,160.73,855.88,165.19,852.11,166.78Z" transform="translate(-681.65 -44.52)"/><path class="cls-4" d="M866.82,201.49c1.21,5,4.91,5.05,6.28,9.78C870.19,211.16,863.26,204.87,866.82,201.49Z" transform="translate(-681.65 -44.52)"/><path class="cls-4" d="M826.5,82.19c3.26-.38,1.92,6.53,4.5,10.38C826.8,91.77,826.19,85.59,826.5,82.19Z" transform="translate(-681.65 -44.52)"/><path class="cls-4" d="M895.38,280.12c-3.67-1.15,3.46-7.11,5-5.67C902.48,278.2,893.62,276.53,895.38,280.12Z" transform="translate(-681.65 -44.52)"/><path class="cls-4" d="M875.53,224.33c-1.14-3.82,6-2.16,8-2.71C882.65,224.78,877.88,223.19,875.53,224.33Z" transform="translate(-681.65 -44.52)"/><path class="cls-4" d="M843.62,127c3.83-.68,7.62,4.8,7.46,7.4A36.91,36.91,0,0,1,843.62,127Z" transform="translate(-681.65 -44.52)"/><path class="cls-4" d="M889.35,259.34c1.15-5.17,6.09,3.52,11.59-.94C899.86,264.38,892,260,889.35,259.34Z" transform="translate(-681.65 -44.52)"/><path class="cls-4" d="M886,240.63c-1.94-.77-3.33-7.54-0.93-8.62A11.67,11.67,0,0,1,886,240.63Z" transform="translate(-681.65 -44.52)"/><path class="cls-4" d="M869.67,171.76a39,39,0,0,0,4.5,10.38C870.78,183.06,865.46,172.24,869.67,171.76Z" transform="translate(-681.65 -44.52)"/><path class="cls-4" d="M832.68,68.2c3.94,0.52,5.43,6,8.06,9.18C836.93,76.58,834.71,72.58,832.68,68.2Z" transform="translate(-681.65 -44.52)"/><path class="cls-4" d="M862.13,146.53c-1.08-3.5,2.77-4.57,5.92-6C868.38,143.69,863.79,144.39,862.13,146.53Z" transform="translate(-681.65 -44.52)"/><path class="cls-4" d="M843.17,90.44c-1-3.46,7.82-3.58,8.61-.93C848.21,91.25,846.29,89.64,843.17,90.44Z" transform="translate(-681.65 -44.52)"/><path class="cls-4" d="M857.58,124.26c4-.55,5.8,3.25,11,0.25C867.9,129.7,858.68,128,857.58,124.26Z" transform="translate(-681.65 -44.52)"/><path class="cls-4" d="M885.85,205c-1.56-3.5,5.22-2.86,7.41-4.49C894.82,204,888,203.34,885.85,205Z" transform="translate(-681.65 -44.52)"/><path class="cls-4" d="M852.75,107c-0.1-2.77-.82-5.84-0.93-8.61C854.07,97.55,856.49,106.32,852.75,107Z" transform="translate(-681.65 -44.52)"/><path class="cls-4" d="M912,270.54c-0.48-4.44,7.14-4.87,11.56-6.88C922.9,267.54,916.5,268.58,912,270.54Z" transform="translate(-681.65 -44.52)"/><path class="cls-4" d="M875,158.06c2.38-3.24,8.57-1.4,10.41,1.45C881.17,160.5,879.11,157.16,875,158.06Z" transform="translate(-681.65 -44.52)"/><path class="cls-4" d="M905,244.12c4.32-1.24,5.54,3.79,9.23,3.82C911.69,251.58,907.21,246.26,905,244.12Z" transform="translate(-681.65 -44.52)"/><path class="cls-4" d="M883,173.19a11.81,11.81,0,0,1,6.8-9.24C888.55,167.51,887,170.92,883,173.19Z" transform="translate(-681.65 -44.52)"/><path class="cls-4" d="M888.14,185.35c3.93,0.54,8.73-.65,11,3.22C895.65,187.17,890.38,189.32,888.14,185.35Z" transform="translate(-681.65 -44.52)"/><path class="cls-4" d="M923.33,283.57c1.16-1.65,1.32-3.8,4.44-4.48a4.43,4.43,0,0,1,0,3Z" transform="translate(-681.65 -44.52)"/><path class="cls-4" d="M906.16,229.85c3.45,0,7-.21,8.93,2.94C912.24,231.56,907.76,233.61,906.16,229.85Z" transform="translate(-681.65 -44.52)"/><path class="cls-4" d="M851.69,65.74c-1.2-3.37,7.47-4,8.31-1.82C857.15,64.68,853.67,66.73,851.69,65.74Z" transform="translate(-681.65 -44.52)"/><path class="cls-4" d="M869.1,108.46a11,11,0,0,1,8.94,5.91C874.26,114,871.59,111.43,869.1,108.46Z" transform="translate(-681.65 -44.52)"/><path class="cls-4" d="M879.62,136.65c0.68-3.37,8.41-6.37,11.86-6C890.48,134,885.09,134.11,879.62,136.65Z" transform="translate(-681.65 -44.52)"/><path class="cls-4" d="M889.5,154.14c-0.57-4.23,2.65-6.6,5.91-8.94C895.54,149.22,891.78,151.31,889.5,154.14Z" transform="translate(-681.65 -44.52)"/><path class="cls-4" d="M874.11,96.85c3.67-.93,6.65-0.46,8.63,2C879.62,98.69,875.91,99.7,874.11,96.85Z" transform="translate(-681.65 -44.52)"/><path class="cls-4" d="M910.19,197.74c3.86-2.24,5.83,7.11,5.09,9.19C911.5,208.09,912.09,200.4,910.19,197.74Z" transform="translate(-681.65 -44.52)"/><path class="cls-4" d="M908,182.59c1.83-3.54,1.43-8.19,6.5-10.13C912.93,176.11,912.36,180.28,908,182.59Z" transform="translate(-681.65 -44.52)"/><path class="cls-4" d="M899.61,154.69c3.6-.78,4.37,4.16,6.27,6.81C902.68,161.46,901.6,157.16,899.61,154.69Z" transform="translate(-681.65 -44.52)"/><path class="cls-4" d="M942.6,273.09c-2.76-1.41-3-7.88-4.8-11.27C941.42,261.11,942.78,270.86,942.6,273.09Z" transform="translate(-681.65 -44.52)"/><path class="cls-4" d="M922.45,216.41c0.29-2.82,4-3.93,7.11-5.38C930.67,214.44,923.91,216.59,922.45,216.41Z" transform="translate(-681.65 -44.52)"/><path class="cls-4" d="M877.87,72.76c0.82,3.37,3.42,7.63,2.42,10.1C877.51,83.35,873.45,73.32,877.87,72.76Z" transform="translate(-681.65 -44.52)"/><path class="cls-4" d="M933.53,237.46c0.26-3.33,3.6-5.13,7.7-6.57C940.89,234.18,936.14,235.29,933.53,237.46Z" transform="translate(-681.65 -44.52)"/><path class="cls-4" d="M938,244.88c2.9-3.3,8.75.26,11,3.22C944.47,248.82,942.34,244.64,938,244.88Z" transform="translate(-681.65 -44.52)"/><path class="cls-4" d="M907.62,152c1.32-3.05,1.72-6.56,5-8.64C912.46,147,911.65,150.27,907.62,152Z" transform="translate(-681.65 -44.52)"/><path class="cls-4" d="M928,203.61c-0.44-4.17,8.43-3.73,11.86-6C939.83,201.53,931.82,201.52,928,203.61Z" transform="translate(-681.65 -44.52)"/><path class="cls-4" d="M913.3,160c-0.86-3.7,6.82-1.56,9.2-2.12C923,162.33,915.74,159.3,913.3,160Z" transform="translate(-681.65 -44.52)"/><path class="cls-4" d="M875.67,45.73l3.56-1.2c0.08,2.21-1.17,5.37-3.55,4.18C875.35,47.55,876.41,47.08,875.67,45.73Z" transform="translate(-681.65 -44.52)"/><path class="cls-4" d="M939.64,205.64c0.62,4.51-3.7,6.57-3.22,11C932.65,215.83,936.66,207.86,939.64,205.64Z" transform="translate(-681.65 -44.52)"/><path class="cls-4" d="M909.35,139.5l-3.91-11.57C908.38,127.07,912.2,138.38,909.35,139.5Z" transform="translate(-681.65 -44.52)"/><path class="cls-4" d="M891.29,83.11c-1.92-3.67,4.62-3.15,5-5.67C900,79.09,893.58,82,891.29,83.11Z" transform="translate(-681.65 -44.52)"/><path class="cls-4" d="M929.47,190.23c-3-2,1.63-6.58,2.93-8.93C933.44,185.27,930.9,187.47,929.47,190.23Z" transform="translate(-681.65 -44.52)"/><path class="cls-4" d="M921.94,165l3,8.9C922.58,174.82,918.67,165.81,921.94,165Z" transform="translate(-681.65 -44.52)"/><path class="cls-4" d="M945.11,233.55c-0.38-2.91.32-5.28,0.26-8C948.13,226.7,948.43,232.92,945.11,233.55Z" transform="translate(-681.65 -44.52)"/><path class="cls-4" d="M901.48,104.46c-0.47-3.94,3-6,7.4-7.46C908.77,100.65,903.75,101.88,901.48,104.46Z" transform="translate(-681.65 -44.52)"/><path class="cls-4" d="M956.53,264.41c-1-4.71,1.26-7.78,5.61-9.83A53.32,53.32,0,0,1,956.53,264.41Z" transform="translate(-681.65 -44.52)"/><path class="cls-4" d="M917.26,113l0.3,0.89c-5.16,1.44-7.8-2.22-11.31-4.11C911.3,108.08,912.68,113.78,917.26,113Z" transform="translate(-681.65 -44.52)"/><path class="cls-4" d="M901.62,66.72l0.6,1.78c-2.37.3-5.36,1.85-6.24-.86C898.07,66.91,899.11,68.28,901.62,66.72Z" transform="translate(-681.65 -44.52)"/><path class="cls-4" d="M904.93,76.51l0.9,2.67a4.75,4.75,0,0,0-1.77,3.58c-3.56-.87.23-4.27,0-5.95Z" transform="translate(-681.65 -44.52)"/><path class="cls-4" d="M897.1,53.37L898,56l-1.78.6-0.6-1.78c0.53-.24,1-0.49.59-1.19Z" transform="translate(-681.65 -44.52)"/><path class="cls-4" d="M726.24,269.83a20.7,20.7,0,0,0-5,11.61C723.64,277.94,727.09,274.94,726.24,269.83Zm-10.77-17.19c-2.43,2-1.81,5.53-.85,9.22C717.83,260.23,714.93,255.58,715.47,252.64Zm33,74.15c-2.9.33-10-1.63-10.09,2.42C741.06,328.87,747.16,329.35,748.47,326.79Zm-8.94-5.9c3.24-.76-0.43-10.26-3.6-7.71C737.06,315.9,737.54,319.92,739.53,320.89Zm-16.67-78.68c-3.48,0-9.43-7.41-10.71-2.34C716,239.08,719.87,246.18,722.86,242.21ZM688,138.94c-3.54,2.7-1,6.62-1.73,10.72C690,147.05,686.75,142.79,688,138.94Zm23.43,60.52c-2.23-.16-10.1-2.63-10.1,2.42C705.27,198.91,709.38,203.41,711.39,199.46Zm16.85,49.86c-3-.58-7.09,3.6-7.7,6.57C725.24,254.75,725.72,251.53,728.24,249.32Zm10.2,21.35c-2.35-.79-6.51,2.27-7.41,4.49C734.24,274,738.22,273.28,738.43,270.67ZM708.08,187.9q-1.35-4-2.71-8C701.8,181,706.22,188.18,708.08,187.9Zm-24.66-68.26c-3.46,1.25-.67,5.6-1.15,8.33C685.26,126.48,683.77,122.78,683.41,119.64Zm70.31,184.55c-4.57-.5-4.54,6.94-7.69,9.54C751.54,312,751.55,307.56,753.73,304.19Zm7.55,28.2c-1.26-3.94-2.9-7.12-6.27-6.81C757.22,327.59,757.74,333,761.27,332.39ZM721.89,224.68c0.55,1,1.17.22,1.78-.6-2.14-3.16-1.65-11.66-5.69-11C720.36,217.35,719.71,222.87,721.89,224.68Zm-1-23.47c-3.3,2.08-3.7,5.58-5,8.64C720.26,208.3,720.07,204.5,720.9,201.21Zm-8.47-38.58q-5.95,3-4.72,9.53C710.3,169.48,711,165.88,712.43,162.62Zm1.74-9.52c-1.92-2.78-11.24-2.6-11.58.94C706.8,153,710.09,153.87,714.17,153.11Zm-18.29-37.68c-3.51,1.73-7.22,3.35-7.7,6.57C692.69,120.77,695,118.45,695.88,115.42Zm9.89,20.47c-2.47,2-6.78,3.07-6.81,6.27C702.57,140.73,706.8,139.62,705.77,135.89Zm66.45,184.86c-2.25,2.84-5.7,5.09-5.9,8.94C769.79,327.46,773.24,325.21,772.22,320.75ZM728.83,175.93c-2.49,2.74-8.15,7.8-5.3,10.72C725.29,183.07,728.45,180.19,728.83,175.93Zm22.08,93.5,3.31,9.79C758.88,278.11,754.1,268.34,750.91,269.43Zm3.8-15.17c-2.95,1.38-7.06-2.59-8.61.92C749,254.45,754.33,259,754.71,254.26Zm-4.61-37.13c-3.77-.74-10.44,2.46-12.16,5.1C739.53,221.9,748,219.57,750.09,217.13ZM780.48,307c-2-2.42-8.26-4.22-10.41-1.44C773.58,306,776.24,308.14,780.48,307ZM755.85,243c0.36-3-5.29-4.74-8-6.21C747.44,239.76,753.09,241.49,755.85,243Zm-11.47-42.74c0.84,3.41-7.64,6.07-2.93,8.93C742,206.41,748.62,202.85,744.38,200.22Zm34,88.71c-0.66-2.93-10.11-1.5-9.2,2.12C774.2,289.29,774.93,289.52,778.33,288.93Zm-58.59-152.8c-1.62,1.92,1.76,6.31,2.12,9.2C724.78,144.67,723.36,135.23,719.74,136.13Zm20.64,31.71c-2-2.72-6.63-4.7-6.84-1.44C737,166.87,736.9,167.37,740.38,167.84Zm-17.73-46.58c-3.05.18-4.89-2.1-8.32-1.15C715.77,122.72,722.68,125,722.65,121.26Zm1.73-12.49c-2.57-1.47-8.23-8.7-9.23-3.83C718.55,105.56,720.18,109.77,724.38,108.77Zm47.45,119.86c-1.81-3.82-11.36-4.62-12.19-.84C762.9,226.53,767.32,228.34,771.83,228.63Zm22.37,89.65c-1.44-4.09-3.08-7.76-5.39-10.08C788.45,310.79,791,318.07,794.2,318.28ZM755.91,187.39c-2.59-2.25-6.33-2.19-9.82-2.63C748.23,187.93,751.53,188.76,755.91,187.39ZM746,155c-2.4-2.85-7.64-.24-9.2,2.12C739,158.17,742.86,155.82,746,155Zm40.27,107.41c-2.4,1-9.41-1.76-8.9,3C780.52,263.93,786.52,266.11,786.24,262.45Zm-19-56.09c-2.33,2.06-6.56,3.18-6.81,6.27C764.41,211.36,767.6,209.73,767.29,206.36Zm7.6,40.09c-0.91,2.27.9,5.88,0.93,8.61C779,254.56,777.09,244.85,774.88,246.45Zm21,38.54c-0.6-5.78-4.18-5.54-5.39-10.08-1,.49-2.58.7-2.37,1.79C791.33,278.14,792.55,283.66,795.84,285ZM754.48,130.34c-0.74-2.37-9.41-1.76-8.31,1.82C749.6,130.22,751.2,132,754.48,130.34Zm9.39,42.46c-0.89-4.69-3.61-5.69-4.5-10.38C756.23,164.1,761.39,172.71,763.87,172.79Zm-21.35-60.23c-0.78,2.33,1.38,6.12.93,8.61C747,120.33,745.35,112,742.52,112.56ZM788.19,230c-2.73-1.55-7.65-11-8.94-5.91C782.2,226.16,783.88,230.75,788.19,230Zm-5.76-25.83c-0.14,3.64-4.52,5.18-5,8.64C781.57,211.67,785.82,206.67,782.43,204.22Zm31,103.58c0.66-2.41-1.66-11.59-4.8-11.27C808.49,298.75,809.85,308.51,813.48,307.8ZM763.79,152c0.61-4.36-4.28-8.88-7.47-10.37A28.2,28.2,0,0,0,763.79,152Zm34.62,108.32c1.32,3.62,2.64,7.24,2.42,10.09C804.46,269.89,801.8,259.49,798.41,260.32Zm-22.89-73.6c-2,1.54.06,8.88,2.42,10.09C777,194,778.54,185.7,775.52,186.71ZM809,238.87c-4.3-.23-6.53,2.53-11.87,3l0.9,2.67C802,242.82,808.49,242.32,809,238.87Zm18.63,49.25c-3.09,1.15-10.24-3.44-10.39,1.53C820.82,288.37,827.28,292.37,827.65,288.13Zm-44.47-116.9,3.92,11.57C790,181.69,786.13,170.38,783.18,171.23ZM776.67,105c-3.17,2.14-11.66,1.64-11,5.69C768.86,108.54,777.36,109,776.67,105Zm54.78,165c-2.33-4.29-8.33-1.16-11.9-2.92C821.65,271.8,827.19,269.6,831.44,270ZM778.89,138c-0.31-2.26-.59-11.14-4.5-10.38C777,131.43,775.62,138.34,778.89,138Zm24.91,59c-2.81-2.31-5-5.89-8.35-7.1C797.21,194.32,799.63,197.43,803.8,197Zm-7.9-41c-2.07-1.8-10.86-4.33-11-.25C788.46,156.07,791.57,157.28,795.9,156Zm22.59,72.71c-2.7-3-4.73-7.42-8.65-8C812.22,224.42,814,229.4,818.49,228.73Zm10.79,23.14c-1.49-5-5.13-5.61-8.94-5.9C822.71,249.17,826.28,249.94,829.29,251.87ZM806.4,181.23c-3-1.95-5.42-5-9.53-4.71C799,179.28,804.5,183,806.4,181.23ZM821.07,207c-1.78-4.89-3.59-9.72-8.06-9.18C816,200.39,817.65,205.46,821.07,207ZM785.54,96c0.65-4-4.44-7.5-7.76-8.29C779.83,91.61,782.78,93.64,785.54,96ZM796.93,118c-1-4.12-6.46-6.84-8.34-4.13C792,114,793.85,117.21,796.93,118Zm43.31,122.25c-2.44-2.57-5-4.92-8.64-5C833.31,239.24,836.61,240.06,840.23,240.23Zm11.1,24c-3.53-.87-4.28-7.34-8.35-7.1C844.34,261.44,849.27,266.35,851.33,264.26ZM815.51,155.34c-2.07-3.81-4.7-6.48-7.17-9.48C808.27,148.68,811.82,155.3,815.51,155.34Zm45.16,139.49c0.31-2.1-3.06-7.11-3.91-11.58C853.75,284.68,858,295.21,860.67,294.83ZM832.53,176.37c-2.79-2.85-5.86-5.13-9.83-5.61A12.5,12.5,0,0,0,832.53,176.37Zm-24.36-69.14c-1.39-3.23-6.41-6.93-8.34-4.13C802.56,104.59,805,106.64,808.18,107.23Zm36.93,91.67c-1.95-2-10.74-4.58-11-.25C838.32,197.65,840.91,199.9,845.11,198.9ZM864,243.1c-2.57-.35-11.47,1.43-11.27,4.8C856.14,246.12,862.61,245.86,864,243.1ZM818.68,132.45c0.1-2.9-4.14-8.11-7.76-8.29C812.83,128.29,815.8,130.3,818.68,132.45ZM809.27,84c-3.6.62-10.81-3.46-11.59,0.94C801.27,84.29,807,87,809.27,84ZM861.73,265.7c1.34,3.38,2.25,6.55,2.12,9.2C867.36,274.53,865.12,264.68,861.73,265.7ZM833.38,164.18c0.56-3.82-4-8.38-7.76-8.29C828.19,158.68,830.58,161.83,833.38,164.18Zm20.76,61.43c-1.79-3.85-1.81-6.82-2.42-10.09C848.51,216.67,850.75,225.8,854.14,225.61Zm-22.48-116.4c-2.08.36-11.38,0.58-11,5.69C823.2,112.44,829.69,111.94,831.66,109.21Zm53.6,167.38c-3.61,2.17-6.67,4.61-5.91,8.94C881.36,282.57,885.12,280.48,885.26,276.59ZM881.35,265c0.17-3-3.83-8.74-7.76-8.29C876.14,259.56,878.46,262.85,881.35,265ZM842.18,137.4c-3.29,1.37-7.6,6.08-4.13,8.34C837.25,141.88,843.32,141.43,842.18,137.4Zm7.6,40.09,3.91,11.57C856.54,187.95,852.72,176.64,849.78,177.49Zm2.89-20.82c-3.05,2,.1,7-0.55,10.11C855.88,165.19,853.88,160.73,852.66,156.67Zm20.43,54.59c-1.37-4.73-5.07-4.74-6.28-9.78C863.26,204.87,870.19,211.16,873.1,211.27ZM831,92.57c-2.58-3.85-1.24-10.76-4.5-10.38C826.19,85.59,826.8,91.77,831,92.57ZM900.4,274.45c-1.56-1.44-8.7,4.52-5,5.67C893.62,276.53,902.48,278.2,900.4,274.45Zm-16.86-52.83c-2,.55-9.15-1.11-8,2.71C877.88,223.19,882.65,224.78,883.54,221.62Zm-32.46-87.23c0.16-2.59-3.63-8.08-7.46-7.4A36.91,36.91,0,0,0,851.08,134.39Zm49.85,124c-5.5,4.46-10.44-4.23-11.59.94C892,260,899.86,264.38,900.93,258.4ZM885.07,232c-2.4,1.08-1,7.85.93,8.62A11.67,11.67,0,0,0,885.07,232Zm-10.9-49.88a39,39,0,0,1-4.5-10.38C865.46,172.24,870.78,183.06,874.17,182.14ZM840.74,77.38c-2.63-3.17-4.12-8.66-8.06-9.18C834.71,72.58,836.93,76.58,840.74,77.38ZM868,140.56c-3.15,1.4-7,2.47-5.92,6C863.79,144.39,868.38,143.69,868,140.56Zm-16.26-51c-0.79-2.65-9.59-2.53-8.61.93C846.29,89.64,848.21,91.25,851.79,89.51Zm16.79,35c-5.19,3-7-.81-11-0.25C858.68,128,867.9,129.7,868.58,124.51Zm24.68,76c-2.19,1.63-9,1-7.41,4.49C888,203.34,894.82,204,893.26,200.48ZM851.82,98.43c0.11,2.77.83,5.84,0.93,8.61C856.49,106.32,854.07,97.55,851.82,98.43Zm71.72,165.23c-4.42,2-12,2.45-11.56,6.88C916.5,268.58,922.9,267.54,923.54,263.66ZM885.37,159.51c-1.83-2.85-8-4.69-10.41-1.45C879.11,157.16,881.17,160.5,885.37,159.51Zm28.9,88.43c-3.69,0-4.91-5.06-9.23-3.82C907.21,246.26,911.69,251.58,914.26,247.94Zm-24.42-84a11.81,11.81,0,0,0-6.8,9.24C887,170.92,888.55,167.51,889.84,163.95Zm9.31,24.63c-2.29-3.87-7.08-2.68-11-3.22C890.38,189.32,895.65,187.17,899.16,188.57Zm15.94,44.21c-1.9-3.15-5.47-2.93-8.93-2.94C907.76,233.61,912.24,231.56,915.09,232.79ZM860,63.92c-0.84-2.16-9.51-1.55-8.31,1.82C853.67,66.73,857.15,64.68,860,63.92Zm18,50.45a11,11,0,0,0-8.94-5.91C871.59,111.43,874.26,114,878,114.37Zm13.44,16.29c-3.46-.38-11.19,2.62-11.86,6C885.09,134.11,890.48,134,891.48,130.66Zm3.92,14.54c-3.26,2.34-6.48,4.71-5.91,8.94C891.78,151.31,895.54,149.22,895.41,145.2ZM882.73,98.89c-2-2.5-5-3-8.63-2C875.91,99.7,879.62,98.69,882.73,98.89Zm32.55,108c0.74-2.07-1.23-11.43-5.09-9.19C912.09,200.4,911.5,208.09,915.28,206.93Zm-0.74-34.47c-5.06,1.94-4.67,6.59-6.5,10.13C912.36,180.28,912.93,176.11,914.54,172.46Zm-8.66-11c-1.9-2.65-2.67-7.58-6.27-6.81C901.6,157.16,902.68,161.46,905.88,161.5ZM937.8,261.81c1.78,3.39,2,9.86,4.8,11.27C942.78,270.86,941.42,261.11,937.8,261.81ZM929.56,211c-3.07,1.45-6.82,2.56-7.11,5.38C923.91,216.59,930.67,214.44,929.56,211ZM880.29,82.86c1-2.47-1.6-6.72-2.42-10.1C873.45,73.32,877.51,83.35,880.29,82.86Zm60.95,148c-4.1,1.43-7.44,3.24-7.7,6.57C936.14,235.29,940.89,234.18,941.23,230.89Zm7.8,17.2c-2.26-3-8.11-6.52-11-3.22C942.34,244.64,944.47,248.82,949,248.09Zm-36.4-104.75c-3.29,2.08-3.7,5.58-5,8.64C911.65,150.27,912.46,147,912.63,143.34Zm27.27,54.27c-3.43,2.26-12.3,1.82-11.86,6C931.82,201.52,939.83,201.53,939.91,197.61Zm-17.4-39.75c-2.38.56-10.06-1.58-9.2,2.12C915.74,159.3,923,162.33,922.5,157.87Zm13.92,58.78c-0.48-4.44,3.84-6.5,3.22-11C936.66,207.86,932.65,215.83,936.42,216.65Zm-31-88.72,3.91,11.57C912.2,138.38,908.38,127.07,905.44,127.92Zm-9.13-50.48c-0.41,2.52-6.94,2-5,5.67C893.58,82,900,79.09,896.31,77.44Zm36.1,103.86c-1.31,2.35-5.94,6.91-2.93,8.93C930.9,187.47,933.44,185.27,932.41,181.3Zm-7.46-7.4-3-8.9C918.67,165.81,922.58,174.82,924.95,173.9Zm20.42,51.62c0.06,2.75-.65,5.12-0.26,8C948.43,232.92,948.13,226.7,945.37,225.53ZM908.87,97c-4.44,1.51-7.86,3.52-7.4,7.46C903.75,101.88,908.77,100.65,908.87,97Zm53.26,157.57c-4.35,2.05-6.63,5.12-5.61,9.83A53.32,53.32,0,0,0,962.13,254.58Z" transform="translate(-681.65 -44.52)"/></g><path d="M873.7,163.52l-61.87-62.18a29.69,29.69,0,0,0-21.15-8.79h0a29.73,29.73,0,0,0-21.14,8.75L707.19,163.6a21.36,21.36,0,0,0,30.21,30.21l28.76-28.76v80.86a23.71,23.71,0,1,0,47.41,0V163.66l29.84,30A21.36,21.36,0,0,0,873.7,163.52Z" transform="translate(-681.65 -44.52)"/></svg>