<svg id="bottle_opener" data-name="bottle opener" xmlns="http://www.w3.org/2000/svg" viewBox="0 0 194.21 371.13"><defs><style>.cls-1{fill:#fff;}.cls-2{fill:#231f20;}</style></defs><title>bottleopenerswag</title><path class="cls-1" d="M441.3,203.23c0,30.14-15.84,46.48-28.58,59.62-10.06,10.37-18,18.57-18,31.59,0,19.83,4.85,62.58,9.11,100.28,3.57,31.4,6.63,58.52,6.63,69.52,0,29.71-30.2,43.25-58.26,43.25S293.91,494,293.91,464.24c0-11,3.06-38.13,6.62-69.52,4.29-37.7,9.12-80.45,9.12-100.28,0-13-8-21.23-18-31.59-12.73-13.14-28.58-29.48-28.58-59.62,0-63.32,67.08-63.32,89.13-63.32S441.3,139.91,441.3,203.23ZM398.42,249c11.79-12.17,22.95-23.67,22.95-45.73,0-30.82-20-43.38-69.18-43.38S283,172.41,283,203.23c0,22.06,11.15,33.56,22.95,45.73,11.09,11.43,23.65,24.39,23.65,45.48s-4.91,64.3-9.24,102.54c-3.34,29.51-6.5,57.39-6.5,67.26,0,18.44,25.07,23.32,38.34,23.32s38.32-4.88,38.32-23.32c0-9.88-3.16-37.75-6.5-67.26-4.32-38.24-9.24-81.58-9.24-102.54S387.33,260.39,398.42,249Z" transform="translate(-247.08 -136.37)"/><path class="cls-1" d="M421.36,203.23c0,22.06-11.15,33.56-22.95,45.73-11.09,11.43-23.65,24.39-23.65,45.48S379.68,358.74,384,397c3.34,29.51,6.5,57.39,6.5,67.26,0,18.44-25.07,23.32-38.32,23.32s-38.34-4.88-38.34-23.32c0-9.88,3.16-37.75,6.5-67.26,4.32-38.24,9.24-81.58,9.24-102.54S317,260.39,305.93,249C294.14,236.79,283,225.29,283,203.23c0-30.82,20-43.38,69.2-43.38S421.36,172.41,421.36,203.23Zm-16-4.08c0-22.44-12.82-25.8-20.47-25.8-4.68,0-9.61,1.16-14.85,2.39-5.81,1.38-11.82,2.8-17.88,2.8s-12.09-1.42-17.9-2.8c-5.24-1.23-10.19-2.39-14.85-2.39-7.65,0-20.47,3.36-20.47,25.8,0,27.25,22.83,46.38,23.8,47.18a10,10,0,0,0,14.08-1.42l4.83-6a47.39,47.39,0,0,0,21,0l4.83,6a9.93,9.93,0,0,0,6.75,3.64,6.82,6.82,0,0,0,1,.07,10,10,0,0,0,6.34-2.28C382.56,245.53,405.4,226.41,405.4,199.15Z" transform="translate(-247.08 -136.37)"/><path class="cls-1" d="M384.92,173.36c7.65,0,20.47,3.36,20.47,25.8,0,27.25-22.83,46.38-23.8,47.18a10,10,0,0,1-6.34,2.28,6.82,6.82,0,0,1-1-.07,9.93,9.93,0,0,1-6.75-3.64l-4.83-6a47.39,47.39,0,0,1-21,0l-4.83,6a10,10,0,0,1-14.08,1.42c-1-.8-23.8-19.93-23.8-47.18,0-22.44,12.82-25.8,20.47-25.8,4.67,0,9.61,1.16,14.85,2.39,5.81,1.38,11.82,2.8,17.9,2.8s12.07-1.42,17.88-2.8C375.31,174.52,380.24,173.36,384.92,173.36Zm0.54,25.8a22.91,22.91,0,0,0-.57-5.86c-2.37,0-6.21.92-10.25,1.87-6.27,1.47-14.08,3.31-22.45,3.31s-16.2-1.83-22.47-3.31c-4-.95-7.88-1.85-10.25-1.87a22.91,22.91,0,0,0-.57,5.86c0,9.86,5.09,18.56,9.63,24.35l1.61-2a10,10,0,0,1,10.51-3.31,51.86,51.86,0,0,0,11.55,1.95,52.21,52.21,0,0,0,11.55-1.95,10,10,0,0,1,10.5,3.31l1.62,2C380.39,217.73,385.46,209,385.46,199.15Z" transform="translate(-247.08 -136.37)"/><path class="cls-1" d="M384.89,193.29a22.91,22.91,0,0,1,.57,5.86c0,9.88-5.08,18.57-9.61,24.37l-1.62-2a10,10,0,0,0-10.5-3.31,52.21,52.21,0,0,1-11.55,1.95,51.86,51.86,0,0,1-11.55-1.95,10,10,0,0,0-10.51,3.31l-1.61,2c-4.54-5.8-9.63-14.49-9.63-24.35a22.91,22.91,0,0,1,.57-5.86c2.37,0,6.21.92,10.25,1.87,6.27,1.47,14.08,3.31,22.47,3.31s16.18-1.83,22.45-3.31C378.68,194.21,382.52,193.31,384.89,193.29Z" transform="translate(-247.08 -136.37)"/><path class="cls-2" d="M425.32,199.68c0,30.14-15.84,46.48-28.58,59.62-10.06,10.37-18,18.57-18,31.59,0,19.83,4.85,62.58,9.11,100.28,3.57,31.4,6.63,58.52,6.63,69.52,0,29.71-30.2,43.25-58.26,43.25s-58.27-13.54-58.27-43.25c0-11,3.06-38.13,6.62-69.52,4.29-37.7,9.12-80.45,9.12-100.28,0-13-8-21.23-18-31.59-12.73-13.14-28.58-29.48-28.58-59.62,0-63.32,67.08-63.32,89.13-63.32S425.32,136.37,425.32,199.68Zm-42.88,45.73c11.79-12.17,22.95-23.67,22.95-45.73,0-30.82-20-43.38-69.18-43.38S267,168.86,267,199.68c0,22.06,11.15,33.56,22.95,45.73,11.09,11.43,23.65,24.39,23.65,45.48s-4.91,64.3-9.24,102.54c-3.34,29.51-6.5,57.39-6.5,67.26,0,18.44,25.07,23.32,38.34,23.32s38.32-4.88,38.32-23.32c0-9.88-3.16-37.75-6.5-67.26-4.32-38.24-9.24-81.58-9.24-102.54S371.36,256.84,382.45,245.41Z" transform="translate(-247.08 -136.37)"/><path class="cls-1" d="M405.39,199.68c0,22.06-11.15,33.56-22.95,45.73-11.09,11.43-23.65,24.39-23.65,45.48s4.91,64.3,9.24,102.54c3.34,29.51,6.5,57.39,6.5,67.26,0,18.44-25.07,23.32-38.32,23.32s-38.34-4.88-38.34-23.32c0-9.88,3.16-37.75,6.5-67.26,4.32-38.24,9.24-81.58,9.24-102.54S301,256.84,290,245.41C278.17,233.24,267,221.74,267,199.68c0-30.82,20-43.38,69.2-43.38S405.39,168.86,405.39,199.68Zm-16-4.08c0-22.44-12.82-25.8-20.47-25.8-4.68,0-9.61,1.16-14.85,2.39-5.81,1.38-11.82,2.8-17.88,2.8s-12.09-1.42-17.9-2.8c-5.24-1.23-10.19-2.39-14.85-2.39-7.65,0-20.47,3.36-20.47,25.8,0,27.25,22.83,46.38,23.8,47.18a10,10,0,0,0,14.08-1.42l4.83-6a47.39,47.39,0,0,0,21,0l4.83,6a9.93,9.93,0,0,0,6.75,3.64,6.82,6.82,0,0,0,1,.07,10,10,0,0,0,6.34-2.28C366.59,242,389.42,222.86,389.42,195.6Z" transform="translate(-247.08 -136.37)"/><path class="cls-2" d="M369,169.81c7.65,0,20.47,3.36,20.47,25.8,0,27.25-22.83,46.38-23.8,47.18a10,10,0,0,1-6.34,2.28,6.82,6.82,0,0,1-1-.07,9.93,9.93,0,0,1-6.75-3.64l-4.83-6a47.39,47.39,0,0,1-21,0l-4.83,6a10,10,0,0,1-14.08,1.42c-1-.8-23.8-19.93-23.8-47.18,0-22.44,12.82-25.8,20.47-25.8,4.67,0,9.61,1.16,14.85,2.39,5.81,1.38,11.82,2.8,17.9,2.8s12.07-1.42,17.88-2.8C359.34,171,364.27,169.81,369,169.81Zm0.54,25.8a22.91,22.91,0,0,0-.57-5.86c-2.37,0-6.21.92-10.25,1.87-6.27,1.47-14.08,3.31-22.45,3.31s-16.2-1.83-22.47-3.31c-4-.95-7.88-1.85-10.25-1.87a22.91,22.91,0,0,0-.57,5.86c0,9.86,5.09,18.56,9.63,24.35l1.61-2a10,10,0,0,1,10.51-3.31,51.86,51.86,0,0,0,11.55,1.95,52.21,52.21,0,0,0,11.55-1.95,10,10,0,0,1,10.5,3.31l1.62,2C364.41,214.18,369.49,205.48,369.49,195.6Z" transform="translate(-247.08 -136.37)"/><path class="cls-1" d="M368.92,189.74a22.91,22.91,0,0,1,.57,5.86c0,9.88-5.08,18.57-9.61,24.37l-1.62-2a10,10,0,0,0-10.5-3.31,52.21,52.21,0,0,1-11.55,1.95,51.86,51.86,0,0,1-11.55-1.95A10,10,0,0,0,314.15,218l-1.61,2c-4.54-5.8-9.63-14.49-9.63-24.35a22.91,22.91,0,0,1,.57-5.86c2.37,0,6.21.92,10.25,1.87,6.27,1.47,14.08,3.31,22.47,3.31s16.18-1.83,22.45-3.31C362.71,190.66,366.54,189.76,368.92,189.74Z" transform="translate(-247.08 -136.37)"/></svg>