<svg id="Layer_1" data-name="Layer 1" xmlns="http://www.w3.org/2000/svg" viewBox="0 0 462.27 288"><defs><style>.cls-1{fill:#add136;}.cls-2{fill:#fff;}.cls-3{fill:#231f20;}</style></defs><title>category1</title><path class="cls-1" d="M419.1,58.15a32.81,32.81,0,0,0,29.46,32.6v20.66a32.76,32.76,0,0,0,0,65.19v20.66a32.76,32.76,0,0,0,0,65.19v11.84H13.71V262.49a32.72,32.72,0,0,0,0-65.28V176.64a32.72,32.72,0,0,0,0-65.28V90.79a32.72,32.72,0,0,0,0-65.28V13.71H448.56V25.55A32.81,32.81,0,0,0,419.1,58.15Z"/><path d="M0,0V39.1H11.38a19.74,19.74,0,0,1,2.33.15,19,19,0,0,1,0,37.79,19.52,19.52,0,0,1-2.33.15H0V125H11.38a19.34,19.34,0,0,1,2.33.15,19,19,0,0,1,0,37.79,19.63,19.63,0,0,1-2.33.15H0V210.8H11.38a19.42,19.42,0,0,1,2.33.16,19,19,0,0,1,0,37.79,19.63,19.63,0,0,1-2.33.15H0V288H462.27V248.9H451.87a19.51,19.51,0,0,1-3.31-.31,19,19,0,0,1,0-37.49,20,20,0,0,1,3.31-.3h10.41V163H451.87a19.81,19.81,0,0,1-3.31-.31,19,19,0,0,1,0-37.49,19.86,19.86,0,0,1,3.31-.3h10.41V77.2H451.87a19.5,19.5,0,0,1-3.31-.31,19,19,0,0,1,0-37.48,19.86,19.86,0,0,1,3.31-.3h10.41V0H0ZM419.1,58.15a32.81,32.81,0,0,0,29.46,32.6v20.66a32.76,32.76,0,0,0,0,65.19v20.66a32.76,32.76,0,0,0,0,65.19v11.84H13.71V262.49a32.72,32.72,0,0,0,0-65.28V176.64a32.72,32.72,0,0,0,0-65.28V90.79a32.72,32.72,0,0,0,0-65.28V13.71H448.56V25.55A32.81,32.81,0,0,0,419.1,58.15Z"/><path class="cls-2" d="M199,192a2,2,0,0,1-2,2h-3.47v3.57a2,2,0,0,1-4,0V194h-3.67a2,2,0,1,1,0-4h3.67v-3.57a2,2,0,1,1,4,0V190H197A2,2,0,0,1,199,192Z"/><circle class="cls-2" cx="180.69" cy="209.67" r="3.86"/><path d="M181.8,208.86a3.41,3.41,0,1,1-3.41-3.41A3.4,3.4,0,0,1,181.8,208.86Z"/><path class="cls-2" d="M210.72,216.15a1.87,1.87,0,0,1-1,1.61l-3.36,1.82a2.11,2.11,0,0,0-.53.53l-1.92,3.46a1.77,1.77,0,0,1-3.2,0l-1.88-3.41a1.78,1.78,0,0,0-.54-0.53l-3.4-1.87a1.87,1.87,0,0,1-1-1.61,1.84,1.84,0,0,1,1-1.6l3.46-1.92a2.06,2.06,0,0,0,.53-0.54l1.83-3.35a1.77,1.77,0,0,1,3.2,0l1.87,3.41a2.2,2.2,0,0,0,.53.53l3.42,1.88A1.84,1.84,0,0,1,210.72,216.15Z"/><path d="M201.07,221.34a1.82,1.82,0,0,1-1.6-1l-1.5-2.72a2,2,0,0,0-.53-0.53l-2.72-1.49a1.78,1.78,0,0,1,0-3.2l2.77-1.54a2.17,2.17,0,0,0,.53-0.53l1.46-2.68a1.77,1.77,0,0,1,3.19,0l1.5,2.71a1.83,1.83,0,0,0,.53.53l2.72,1.5a1.77,1.77,0,0,1,0,3.19L204.74,217a1.83,1.83,0,0,0-.53.53l-1.54,2.77A1.83,1.83,0,0,1,201.07,221.34ZM197.56,214l1.21,0.67a4.52,4.52,0,0,1,1.62,1.62l0.67,1.22,0.71-1.27a4.61,4.61,0,0,1,1.63-1.62l1.15-.63-1.21-.66a4.6,4.6,0,0,1-1.62-1.62l-0.66-1.2-0.62,1.15a4.59,4.59,0,0,1-1.62,1.63Z"/><path class="cls-2" d="M285.52,169.9a2,2,0,0,1-2,2h-3.47v3.56a2,2,0,1,1-4,0v-3.56h-3.68a2,2,0,0,1,0-4h3.68v-3.57a2,2,0,0,1,4,0v3.57h3.47A2,2,0,0,1,285.52,169.9Z"/><circle class="cls-2" cx="288.82" cy="152.38" r="3.86"/><path d="M289.92,151.57a3.41,3.41,0,1,1-3.41-3.41A3.4,3.4,0,0,1,289.92,151.57Z"/><path class="cls-2" d="M276.39,148.17a1.82,1.82,0,0,1-1,1.59L272,151.59a1.9,1.9,0,0,0-.53.53l-1.92,3.46a1.78,1.78,0,0,1-3.2,0l-1.87-3.41a1.89,1.89,0,0,0-.54-0.53l-3.4-1.87a1.77,1.77,0,0,1,0-3.19l3.47-1.93a2,2,0,0,0,.53-0.53l1.83-3.35a1.83,1.83,0,0,1,1.59-1,1.85,1.85,0,0,1,1.61,1l1.87,3.4a1.9,1.9,0,0,0,.53.53l3.42,1.88A1.82,1.82,0,0,1,276.39,148.17Z"/><path d="M266.35,153.27a1.83,1.83,0,0,1-1.6-1l-1.5-2.71a2.08,2.08,0,0,0-.54-0.54l-2.72-1.5a1.77,1.77,0,0,1,0-3.19l2.77-1.54a2,2,0,0,0,.53-0.53l1.46-2.67a1.77,1.77,0,0,1,3.19,0l1.49,2.72a1.93,1.93,0,0,0,.53.53l2.73,1.5a1.77,1.77,0,0,1,0,3.19L270,149a1.86,1.86,0,0,0-.53.53l-1.54,2.77A1.83,1.83,0,0,1,266.35,153.27Zm-3.51-7.36,1.21,0.66a4.52,4.52,0,0,1,1.62,1.63l0.68,1.22,0.71-1.27a4.51,4.51,0,0,1,1.62-1.61l1.15-.63-1.2-.66a4.52,4.52,0,0,1-1.63-1.62l-0.65-1.2-0.63,1.16a4.61,4.61,0,0,1-1.62,1.63Z"/><path class="cls-2" d="M103.52,94.59V83.76a18.6,18.6,0,0,1,.13-2.22,11.54,11.54,0,0,1,.76-2.69,8.59,8.59,0,0,1,1.71-2.78,8.69,8.69,0,0,1,3.23-2,13.87,13.87,0,0,1,5-.84,14.17,14.17,0,0,1,4.63.69,9.31,9.31,0,0,1,3.12,1.68A8,8,0,0,1,124,78a10.68,10.68,0,0,1,1,2.47,12.62,12.62,0,0,1,.29,2.3,1,1,0,0,1-1,1.21l-4.81,1.1a1.36,1.36,0,0,1-1.15-.27,1.56,1.56,0,0,1-.58-1.09,3.74,3.74,0,0,0-.91-2.27,3.32,3.32,0,0,0-2.43-.75q-2.2,0-2.81,1.24a10,10,0,0,0-.61,4.14v6.24a10.06,10.06,0,0,0,.61,4.14q0.61,1.24,2.81,1.24a3.1,3.1,0,0,0,2.38-.76,4.46,4.46,0,0,0,.92-2.37,1.48,1.48,0,0,1,.56-1.06,1.23,1.23,0,0,1,1.11-.19l4.91,1.08a1.06,1.06,0,0,1,1,1.25,12.83,12.83,0,0,1-.29,2.27,10.15,10.15,0,0,1-1,2.48,8.07,8.07,0,0,1-1.84,2.36,9.48,9.48,0,0,1-3.12,1.69,14,14,0,0,1-4.63.7,13.72,13.72,0,0,1-5-.85,8.78,8.78,0,0,1-3.23-2,8.59,8.59,0,0,1-1.71-2.77,11.34,11.34,0,0,1-.76-2.69A18.83,18.83,0,0,1,103.52,94.59Z"/><path class="cls-2" d="M136.65,84.5a31.37,31.37,0,0,1,.15-3.29,11.59,11.59,0,0,1,.78-3,7,7,0,0,1,1.74-2.62,8.49,8.49,0,0,1,3.12-1.68,17.82,17.82,0,0,1,9.67,0,8.48,8.48,0,0,1,3.11,1.68,6.93,6.93,0,0,1,1.72,2.62,12.13,12.13,0,0,1,.78,3,29.22,29.22,0,0,1,.16,3.29v18.37a1.25,1.25,0,0,1-1.31,1.48h-4.83a1.15,1.15,0,0,1-1.31-1.29V99.27A1.14,1.14,0,0,0,149.14,98h-3.72a1.15,1.15,0,0,0-1.31,1.29v3.79a1.14,1.14,0,0,1-1.29,1.29H138a1.24,1.24,0,0,1-1.31-1.48V84.5Zm8.76,6h3.72a1.2,1.2,0,0,0,1.29-1.35V84.5a3.83,3.83,0,0,0-.58-2.42,3.42,3.42,0,0,0-2.57-.69,3.46,3.46,0,0,0-2.58.69,3.77,3.77,0,0,0-.59,2.42v4.72A1.17,1.17,0,0,0,145.41,90.53Z"/><path class="cls-2" d="M168,75.31A1.17,1.17,0,0,1,169.36,74h22.18a1.17,1.17,0,0,1,1.31,1.31v4.83a1.17,1.17,0,0,1-1.31,1.31h-6.05a1.15,1.15,0,0,0-1.31,1.29V103a1.14,1.14,0,0,1-1.29,1.29H178a1.15,1.15,0,0,1-1.31-1.29V82.74a1.14,1.14,0,0,0-1.29-1.29h-6.07A1.17,1.17,0,0,1,168,80.14V75.31Z"/><path class="cls-2" d="M204.1,75.32A1.17,1.17,0,0,1,205.41,74h18.2a1.16,1.16,0,0,1,1.29,1.31v4.85a1.15,1.15,0,0,1-1.29,1.31h-10.5a1.14,1.14,0,0,0-1.29,1.29v1.4a1.14,1.14,0,0,0,1.29,1.29h6.73a1.16,1.16,0,0,1,1.29,1.31v4.85a1.14,1.14,0,0,1-1.29,1.29h-6.73a1.16,1.16,0,0,0-1.29,1.31v1.37a1.15,1.15,0,0,0,1.29,1.31h10.5a1.14,1.14,0,0,1,1.29,1.29v4.87a1.14,1.14,0,0,1-1.29,1.29h-18.2a1.15,1.15,0,0,1-1.31-1.29V75.32Z"/><path class="cls-2" d="M236.46,94.59V83.76a18.6,18.6,0,0,1,.13-2.22,11.52,11.52,0,0,1,.76-2.69,8.58,8.58,0,0,1,1.71-2.78,8.69,8.69,0,0,1,3.23-2,13.88,13.88,0,0,1,5-.84,14.43,14.43,0,0,1,4.59.67,9.32,9.32,0,0,1,3.1,1.62,8,8,0,0,1,1.84,2.32,10.43,10.43,0,0,1,1,2.45,12.17,12.17,0,0,1,.32,2.39A1.25,1.25,0,0,1,257.05,84l-4.91,1.1a2,2,0,0,1-.38,0,1.05,1.05,0,0,1-1-1.19,4,4,0,0,0-.87-2.49,3.33,3.33,0,0,0-2.52-.79q-2.2,0-2.82,1.24a10.06,10.06,0,0,0-.61,4.14v6.24a10.07,10.07,0,0,0,.61,4.14q0.61,1.24,2.82,1.24a4.59,4.59,0,0,0,1.88-.33,2.1,2.1,0,0,0,1-1,4.43,4.43,0,0,0,.41-1.28,11.76,11.76,0,0,0,.08-1.56h-2.52A1.14,1.14,0,0,1,247,92.22V88.75a1.16,1.16,0,0,1,1.29-1.31h8.68a1.15,1.15,0,0,1,1.29,1.31v5.84a18.83,18.83,0,0,1-.13,2.23,11.36,11.36,0,0,1-.76,2.69,8.55,8.55,0,0,1-1.71,2.77,8.76,8.76,0,0,1-3.23,2,15.47,15.47,0,0,1-10.1,0,8.79,8.79,0,0,1-3.23-2,8.57,8.57,0,0,1-1.71-2.77,11.32,11.32,0,0,1-.76-2.69A18.83,18.83,0,0,1,236.46,94.59Z"/><path class="cls-2" d="M270.25,94.59V83.76a18.81,18.81,0,0,1,.13-2.22,11.48,11.48,0,0,1,.76-2.69,8.54,8.54,0,0,1,1.71-2.78,8.67,8.67,0,0,1,3.23-2,15.64,15.64,0,0,1,10.1,0,8.68,8.68,0,0,1,3.23,2,8.59,8.59,0,0,1,1.71,2.78,11.56,11.56,0,0,1,.76,2.69,18.8,18.8,0,0,1,.13,2.22V94.59a19,19,0,0,1-.13,2.23,11.35,11.35,0,0,1-.76,2.69,8.59,8.59,0,0,1-1.71,2.77,8.78,8.78,0,0,1-3.23,2,15.47,15.47,0,0,1-10.1,0,8.77,8.77,0,0,1-3.23-2,8.54,8.54,0,0,1-1.71-2.77,11.27,11.27,0,0,1-.76-2.69A19,19,0,0,1,270.25,94.59Zm7.45-2.29a10.06,10.06,0,0,0,.61,4.14q0.61,1.24,2.82,1.24t2.82-1.24a10.07,10.07,0,0,0,.61-4.14V86.07a10.06,10.06,0,0,0-.61-4.14q-0.62-1.24-2.82-1.24t-2.82,1.24a10,10,0,0,0-.61,4.14v6.24Z"/><path class="cls-2" d="M304.54,103V75.36A1.34,1.34,0,0,1,305.9,74h9.48q5.71,0,8.28,2.51t2.56,7.88q0,6.16-3.28,8.5a0.47,0.47,0,0,0-.12.57L327.4,102a1.6,1.6,0,0,1,.23.87,1.44,1.44,0,0,1-.21.74,1.6,1.6,0,0,1-1.46.74H321a1,1,0,0,1-1-.61L315.52,95a0.45,0.45,0,0,0-.36-0.23h-1.74a1.26,1.26,0,0,0-1,.39,1.32,1.32,0,0,0-.38,1V103a1.28,1.28,0,0,1-.39,1,1.33,1.33,0,0,1-1,.38h-4.83a1.32,1.32,0,0,1-1-.38A1.28,1.28,0,0,1,304.54,103Zm7.53-17a1.27,1.27,0,0,0,.39,1,1.3,1.3,0,0,0,.94.38h2.23a4.07,4.07,0,0,0,2.43-.54,3,3,0,0,0,.69-2.4,3,3,0,0,0-.69-2.4,4.08,4.08,0,0,0-2.43-.54h-2.23a1.28,1.28,0,0,0-1,.39,1.3,1.3,0,0,0-.38.94V86Z"/><path class="cls-2" d="M336.41,74h6.24a1.49,1.49,0,0,1,1.48,1l3.2,8c0.21,0.47.42,0.47,0.61,0l3.2-8a1.47,1.47,0,0,1,1.48-1h6.2a1.2,1.2,0,0,1,1,.42,0.88,0.88,0,0,1,.13.47,1.7,1.7,0,0,1-.15.63L352,92.86a1.31,1.31,0,0,0-.08.53v9.67a1.14,1.14,0,0,1-1.29,1.29H344.6a1.14,1.14,0,0,1-1.29-1.29V93.39a1.26,1.26,0,0,0-.08-0.53l-7.81-17.33a1.53,1.53,0,0,1-.17-0.63,1,1,0,0,1,.15-0.47A1.2,1.2,0,0,1,336.41,74Z"/><path class="cls-3" d="M100.31,91.78V81a18.71,18.71,0,0,1,.13-2.22A11.58,11.58,0,0,1,101.2,76a7.64,7.64,0,0,1,4.94-4.77,13.87,13.87,0,0,1,5-.84,14.16,14.16,0,0,1,4.64.69,9.33,9.33,0,0,1,3.12,1.68,8,8,0,0,1,1.84,2.38,10.72,10.72,0,0,1,1,2.47A12.57,12.57,0,0,1,122,80a1,1,0,0,1-1,1.21l-4.81,1.1a1.36,1.36,0,0,1-1.15-.26,1.57,1.57,0,0,1-.58-1.09,3.73,3.73,0,0,0-.91-2.27,3.32,3.32,0,0,0-2.43-.75q-2.2,0-2.81,1.24a10,10,0,0,0-.61,4.14V89.5a10,10,0,0,0,.61,4.14q0.61,1.24,2.81,1.24a3.1,3.1,0,0,0,2.38-.76,4.45,4.45,0,0,0,.92-2.37,1.48,1.48,0,0,1,.56-1.06,1.23,1.23,0,0,1,1.11-.19l4.91,1.08a1.06,1.06,0,0,1,1,1.25,12.79,12.79,0,0,1-.29,2.27,10.21,10.21,0,0,1-1,2.48,8.05,8.05,0,0,1-1.84,2.36,9.49,9.49,0,0,1-3.12,1.69,14,14,0,0,1-4.64.7,13.75,13.75,0,0,1-5-.85,8.8,8.8,0,0,1-3.23-2,8.61,8.61,0,0,1-1.71-2.77,11.36,11.36,0,0,1-.76-2.69A18.93,18.93,0,0,1,100.31,91.78Z"/><path class="cls-3" d="M133.44,81.69a31.51,31.51,0,0,1,.15-3.29,11.57,11.57,0,0,1,.78-3,7,7,0,0,1,1.73-2.62,8.49,8.49,0,0,1,3.12-1.68,17.82,17.82,0,0,1,9.67,0A8.47,8.47,0,0,1,152,72.78a6.93,6.93,0,0,1,1.72,2.62,12.12,12.12,0,0,1,.78,3,29.11,29.11,0,0,1,.16,3.29v18.37a1.25,1.25,0,0,1-1.31,1.48h-4.83a1.15,1.15,0,0,1-1.31-1.29V96.46a1.14,1.14,0,0,0-1.29-1.29H142.2a1.15,1.15,0,0,0-1.31,1.29v3.79a1.14,1.14,0,0,1-1.29,1.29h-4.84a1.24,1.24,0,0,1-1.31-1.48V81.69Zm8.76,6h3.72a1.2,1.2,0,0,0,1.29-1.35V81.69a3.83,3.83,0,0,0-.58-2.42,3.42,3.42,0,0,0-2.57-.69,3.46,3.46,0,0,0-2.58.69,3.77,3.77,0,0,0-.59,2.42v4.72A1.17,1.17,0,0,0,142.2,87.72Z"/><path class="cls-3" d="M164.83,72.5a1.17,1.17,0,0,1,1.31-1.31h22.18a1.17,1.17,0,0,1,1.31,1.31v4.83a1.17,1.17,0,0,1-1.31,1.31h-6.05A1.15,1.15,0,0,0,181,79.93v20.29a1.14,1.14,0,0,1-1.29,1.29h-4.85a1.15,1.15,0,0,1-1.31-1.29V79.93a1.14,1.14,0,0,0-1.29-1.29h-6.07a1.17,1.17,0,0,1-1.31-1.31V72.5Z"/><path class="cls-3" d="M200.89,72.51a1.17,1.17,0,0,1,1.31-1.31h18.2a1.16,1.16,0,0,1,1.29,1.31v4.85a1.15,1.15,0,0,1-1.29,1.31H209.9A1.14,1.14,0,0,0,208.61,80v1.4a1.14,1.14,0,0,0,1.29,1.29h6.73A1.16,1.16,0,0,1,217.92,84V88.8a1.14,1.14,0,0,1-1.29,1.29H209.9a1.16,1.16,0,0,0-1.29,1.31v1.37a1.15,1.15,0,0,0,1.29,1.31h10.5a1.14,1.14,0,0,1,1.29,1.29v4.87a1.14,1.14,0,0,1-1.29,1.29H202.2a1.15,1.15,0,0,1-1.31-1.29V72.51Z"/><path class="cls-3" d="M233.25,91.78V81a18.82,18.82,0,0,1,.13-2.22,11.53,11.53,0,0,1,.76-2.69,8.54,8.54,0,0,1,1.71-2.78,8.65,8.65,0,0,1,3.23-2,13.86,13.86,0,0,1,5-.84,14.43,14.43,0,0,1,4.59.67,9.33,9.33,0,0,1,3.1,1.62A8,8,0,0,1,253.66,75a10.37,10.37,0,0,1,1,2.44,12.11,12.11,0,0,1,.32,2.39,1.25,1.25,0,0,1-1.12,1.33l-4.91,1.1a2,2,0,0,1-.38,0,1.05,1.05,0,0,1-1-1.18,4,4,0,0,0-.87-2.49,3.34,3.34,0,0,0-2.52-.79q-2.2,0-2.82,1.24a10.05,10.05,0,0,0-.61,4.14V89.5a10.07,10.07,0,0,0,.61,4.14q0.62,1.24,2.82,1.24a4.57,4.57,0,0,0,1.88-.33,2.09,2.09,0,0,0,1-1,4.36,4.36,0,0,0,.41-1.28,11.54,11.54,0,0,0,.08-1.56H245a1.14,1.14,0,0,1-1.29-1.29V85.94A1.16,1.16,0,0,1,245,84.63h8.68A1.15,1.15,0,0,1,255,85.94v5.84a18.63,18.63,0,0,1-.13,2.23,11.34,11.34,0,0,1-.76,2.69,8.57,8.57,0,0,1-1.71,2.77,8.76,8.76,0,0,1-3.23,2,15.47,15.47,0,0,1-10.09,0,8.76,8.76,0,0,1-3.23-2,8.54,8.54,0,0,1-1.71-2.77,11.31,11.31,0,0,1-.76-2.69A19,19,0,0,1,233.25,91.78Z"/><path class="cls-3" d="M267,91.78V81a18.82,18.82,0,0,1,.13-2.22,11.52,11.52,0,0,1,.76-2.69,8.56,8.56,0,0,1,1.71-2.78,8.67,8.67,0,0,1,3.23-2,15.63,15.63,0,0,1,10.1,0,8.66,8.66,0,0,1,3.22,2A8.57,8.57,0,0,1,287.9,76a11.52,11.52,0,0,1,.76,2.69,18.6,18.6,0,0,1,.13,2.22V91.78a18.83,18.83,0,0,1-.13,2.23,11.3,11.3,0,0,1-.76,2.69,8.56,8.56,0,0,1-1.71,2.77,8.77,8.77,0,0,1-3.22,2,15.48,15.48,0,0,1-10.1,0,8.78,8.78,0,0,1-3.23-2,8.56,8.56,0,0,1-1.71-2.77,11.3,11.3,0,0,1-.76-2.69A19,19,0,0,1,267,91.78Zm7.45-2.29a10.06,10.06,0,0,0,.61,4.14q0.61,1.24,2.82,1.24t2.82-1.24a10.07,10.07,0,0,0,.61-4.14V83.26a10.06,10.06,0,0,0-.61-4.14q-0.62-1.24-2.82-1.24t-2.82,1.24a10,10,0,0,0-.61,4.14V89.5Z"/><path class="cls-3" d="M301.33,100.21V72.55a1.34,1.34,0,0,1,1.35-1.35h9.48q5.71,0,8.27,2.51T323,81.59q0,6.17-3.28,8.5a0.47,0.47,0,0,0-.12.57l4.59,8.54a1.59,1.59,0,0,1,.23.87,1.44,1.44,0,0,1-.21.74,1.6,1.6,0,0,1-1.46.74h-4.93a1,1,0,0,1-1-.61l-4.52-8.71a0.45,0.45,0,0,0-.36-0.23H310.2a1.27,1.27,0,0,0-1,.39,1.32,1.32,0,0,0-.38,1v6.86a1.28,1.28,0,0,1-.39,1,1.33,1.33,0,0,1-1,.38h-4.83a1.33,1.33,0,0,1-1-.38A1.27,1.27,0,0,1,301.33,100.21Zm7.53-17a1.27,1.27,0,0,0,.39,1,1.31,1.31,0,0,0,.94.38h2.23a4.06,4.06,0,0,0,2.43-.54,3,3,0,0,0,.69-2.4,3,3,0,0,0-.69-2.4,4.07,4.07,0,0,0-2.43-.54H310.2a1.28,1.28,0,0,0-1,.39,1.3,1.3,0,0,0-.38.94V83.2Z"/><path class="cls-3" d="M333.19,71.19h6.24a1.49,1.49,0,0,1,1.48,1l3.2,8c0.21,0.47.41,0.47,0.61,0l3.2-8a1.47,1.47,0,0,1,1.48-1h6.2a1.2,1.2,0,0,1,1,.42,0.89,0.89,0,0,1,.13.47,1.69,1.69,0,0,1-.15.63L348.83,90a1.31,1.31,0,0,0-.09.53v9.67a1.14,1.14,0,0,1-1.29,1.29h-6.07a1.14,1.14,0,0,1-1.29-1.29V90.58A1.24,1.24,0,0,0,340,90L332.2,72.72a1.53,1.53,0,0,1-.17-0.63,1,1,0,0,1,.15-0.47A1.2,1.2,0,0,1,333.19,71.19Z"/><path d="M213.46,154.42a5,5,0,0,1,2.44-4.64l15.58-9.85a2.9,2.9,0,0,1,1.55-.44h10.11q3.69,0.07,3.69,3.89v82.2q-0.06,3.83-3.69,3.82h-13.5q-3.63,0-3.63-3.82V169q-0.06-3.82-3.69-3.82h-5.23q-3.63,0-3.63-3.83v-7Z"/></svg>