<svg id="Layer_1" data-name="Layer 1" xmlns="http://www.w3.org/2000/svg" viewBox="0 0 462.27 288"><defs><style>.cls-1{fill:#5ccae8;}.cls-2{fill:#fff;}.cls-3{fill:#231f20;}</style></defs><title>category2</title><path class="cls-1" d="M419.1,354.15a32.81,32.81,0,0,0,29.46,32.6v20.66a32.76,32.76,0,0,0,0,65.19v20.66a32.76,32.76,0,0,0,0,65.19v11.84H13.71V558.49a32.72,32.72,0,0,0,0-65.28V472.64a32.72,32.72,0,0,0,0-65.28V386.79a32.72,32.72,0,0,0,0-65.28v-11.8H448.56v11.84A32.81,32.81,0,0,0,419.1,354.15Z" transform="translate(0 -296)"/><path d="M0,296v39.1H11.38a19.65,19.65,0,0,1,2.33.15,19,19,0,0,1,0,37.79,19.62,19.62,0,0,1-2.33.15H0V421H11.38a19,19,0,0,1,2.33,37.94,19.86,19.86,0,0,1-2.33.15H0V506.8H11.38a19,19,0,0,1,2.33,37.94,19.64,19.64,0,0,1-2.33.15H0V584H462.27V544.9H451.87a19.49,19.49,0,0,1-3.31-.31,19,19,0,0,1,0-37.49,19.79,19.79,0,0,1,3.31-.3h10.41V459H451.87a19.79,19.79,0,0,1-3.31-.31,19,19,0,0,1,0-37.49,19.9,19.9,0,0,1,3.31-.3h10.41V373.2H451.87a19.48,19.48,0,0,1-3.31-.31,19,19,0,0,1,0-37.48,19.79,19.79,0,0,1,3.31-.3h10.41V296H0Zm419.1,58.15a32.81,32.81,0,0,0,29.46,32.6v20.66a32.76,32.76,0,0,0,0,65.19v20.66a32.76,32.76,0,0,0,0,65.19v11.84H13.71V558.49a32.72,32.72,0,0,0,0-65.28V472.64a32.72,32.72,0,0,0,0-65.28V386.79a32.72,32.72,0,0,0,0-65.28v-11.8H448.56v11.84A32.81,32.81,0,0,0,419.1,354.15Z" transform="translate(0 -296)"/><path class="cls-2" d="M182.44,447.55a2,2,0,0,1-2,2H177v3.57a2,2,0,0,1-4,0v-3.57h-3.66a2,2,0,1,1,0-4H173V442a2,2,0,1,1,4,0v3.56h3.47A2,2,0,0,1,182.44,447.55Z" transform="translate(0 -296)"/><circle class="cls-2" cx="164.15" cy="169.23" r="3.86"/><path d="M165.25,464.42a3.41,3.41,0,1,1-3.41-3.41A3.4,3.4,0,0,1,165.25,464.42Z" transform="translate(0 -296)"/><path class="cls-2" d="M194.17,471.71a1.86,1.86,0,0,1-1,1.61l-3.36,1.82a2.15,2.15,0,0,0-.53.53l-1.92,3.46a1.78,1.78,0,0,1-3.2,0l-1.87-3.41a1.76,1.76,0,0,0-.54-0.53l-3.4-1.87a1.87,1.87,0,0,1-1-1.61,1.84,1.84,0,0,1,1-1.6l3.46-1.92a2.07,2.07,0,0,0,.53-0.54l1.83-3.35a1.78,1.78,0,0,1,3.2,0l1.87,3.41a2.22,2.22,0,0,0,.53.53l3.42,1.88A1.84,1.84,0,0,1,194.17,471.71Z" transform="translate(0 -296)"/><path d="M184.53,476.9a1.82,1.82,0,0,1-1.6-1l-1.5-2.71a1.94,1.94,0,0,0-.53-0.53l-2.72-1.49a1.77,1.77,0,0,1,0-3.2l2.77-1.54a2.1,2.1,0,0,0,.53-0.53l1.46-2.68a1.77,1.77,0,0,1,3.2,0l1.5,2.71a1.82,1.82,0,0,0,.53.53l2.73,1.5a1.77,1.77,0,0,1,0,3.19l-2.67,1.46a1.77,1.77,0,0,0-.53.53l-1.54,2.76A1.83,1.83,0,0,1,184.53,476.9ZM181,469.54l1.22,0.67a4.5,4.5,0,0,1,1.62,1.62l0.67,1.22,0.71-1.27a4.56,4.56,0,0,1,1.63-1.62l1.15-.63-1.21-.66a4.63,4.63,0,0,1-1.62-1.62l-0.66-1.2-0.62,1.15a4.6,4.6,0,0,1-1.62,1.63Z" transform="translate(0 -296)"/><path class="cls-2" d="M298.6,498.23a2,2,0,0,1-2,2h-3.47v3.56a2,2,0,1,1-4,0v-3.56h-3.68a2,2,0,0,1,0-4h3.68v-3.57a2,2,0,0,1,4,0v3.57h3.47A2,2,0,0,1,298.6,498.23Z" transform="translate(0 -296)"/><circle class="cls-2" cx="273.69" cy="200.75" r="3.86"/><path d="M274.8,495.94a3.41,3.41,0,1,1-3.41-3.41A3.4,3.4,0,0,1,274.8,495.94Z" transform="translate(0 -296)"/><path class="cls-2" d="M286.69,517a1.82,1.82,0,0,1-1,1.59l-3.35,1.83a1.91,1.91,0,0,0-.53.53l-1.92,3.46a1.78,1.78,0,0,1-3.2,0L274.8,521a1.91,1.91,0,0,0-.54-0.53l-3.4-1.87a1.77,1.77,0,0,1,0-3.19l3.47-1.92a2,2,0,0,0,.53-0.53l1.83-3.35a1.83,1.83,0,0,1,1.59-1,1.85,1.85,0,0,1,1.61,1l1.87,3.4a1.92,1.92,0,0,0,.53.53l3.42,1.88A1.83,1.83,0,0,1,286.69,517Z" transform="translate(0 -296)"/><path d="M276.65,522.1a1.83,1.83,0,0,1-1.6-1l-1.5-2.71a2.06,2.06,0,0,0-.53-0.54l-2.72-1.5a1.77,1.77,0,0,1,0-3.19l2.77-1.54a2,2,0,0,0,.53-0.53l1.46-2.67a1.77,1.77,0,0,1,3.19,0l1.5,2.72a1.91,1.91,0,0,0,.53.53l2.73,1.5a1.77,1.77,0,0,1,0,3.19l-2.67,1.46a1.89,1.89,0,0,0-.53.53l-1.54,2.77A1.83,1.83,0,0,1,276.65,522.1Zm-3.51-7.35,1.21,0.66A4.55,4.55,0,0,1,276,517l0.68,1.22,0.71-1.27a4.52,4.52,0,0,1,1.63-1.61l1.15-.63-1.2-.66a4.52,4.52,0,0,1-1.63-1.62l-0.65-1.2L276,512.42A4.59,4.59,0,0,1,274.4,514Z" transform="translate(0 -296)"/><path class="cls-2" d="M103.52,390.59V379.76a18.56,18.56,0,0,1,.13-2.22,11.59,11.59,0,0,1,.76-2.69,8.59,8.59,0,0,1,1.71-2.78,8.7,8.7,0,0,1,3.23-2,13.94,13.94,0,0,1,5-.83,14.23,14.23,0,0,1,4.63.69,9.29,9.29,0,0,1,3.12,1.68A7.94,7.94,0,0,1,124,374a10.69,10.69,0,0,1,1,2.48,12.64,12.64,0,0,1,.29,2.29,1,1,0,0,1-1,1.21l-4.8,1.1a1.36,1.36,0,0,1-1.15-.26,1.57,1.57,0,0,1-.58-1.09,3.75,3.75,0,0,0-.91-2.28,3.33,3.33,0,0,0-2.43-.75q-2.2,0-2.81,1.24a10,10,0,0,0-.61,4.13v6.24a10,10,0,0,0,.61,4.14q0.61,1.23,2.81,1.24a3.1,3.1,0,0,0,2.38-.76,4.45,4.45,0,0,0,.92-2.37,1.48,1.48,0,0,1,.56-1.06,1.23,1.23,0,0,1,1.11-.19l4.91,1.08a1.06,1.06,0,0,1,1,1.25,12.9,12.9,0,0,1-.29,2.28,10.31,10.31,0,0,1-1,2.48,8,8,0,0,1-1.84,2.36,9.37,9.37,0,0,1-3.12,1.69,13.93,13.93,0,0,1-4.63.7,13.73,13.73,0,0,1-5-.85,8.77,8.77,0,0,1-3.23-2,8.61,8.61,0,0,1-1.71-2.77,11.37,11.37,0,0,1-.76-2.69A18.89,18.89,0,0,1,103.52,390.59Z" transform="translate(0 -296)"/><path class="cls-2" d="M136.65,380.5a31.59,31.59,0,0,1,.15-3.29,11.61,11.61,0,0,1,.78-3,7,7,0,0,1,1.74-2.62,8.47,8.47,0,0,1,3.12-1.68,17.92,17.92,0,0,1,9.67,0,8.46,8.46,0,0,1,3.11,1.68,6.91,6.91,0,0,1,1.72,2.62,12.12,12.12,0,0,1,.78,3,29.28,29.28,0,0,1,.16,3.29v18.37a1.25,1.25,0,0,1-1.31,1.48h-4.83a1.15,1.15,0,0,1-1.31-1.29v-3.79a1.14,1.14,0,0,0-1.29-1.29h-3.72a1.15,1.15,0,0,0-1.31,1.29v3.79a1.14,1.14,0,0,1-1.29,1.29H138a1.24,1.24,0,0,1-1.31-1.48V380.5Zm8.76,6h3.72a1.2,1.2,0,0,0,1.29-1.35V380.5a3.82,3.82,0,0,0-.58-2.42,3.42,3.42,0,0,0-2.57-.69,3.46,3.46,0,0,0-2.58.69,3.77,3.77,0,0,0-.59,2.42v4.72A1.17,1.17,0,0,0,145.41,386.53Z" transform="translate(0 -296)"/><path class="cls-2" d="M168,371.31a1.17,1.17,0,0,1,1.31-1.31h22.18a1.17,1.17,0,0,1,1.31,1.31v4.83a1.17,1.17,0,0,1-1.31,1.31h-6.05a1.15,1.15,0,0,0-1.31,1.29V399a1.14,1.14,0,0,1-1.29,1.29H178a1.15,1.15,0,0,1-1.31-1.29V378.74a1.14,1.14,0,0,0-1.29-1.29h-6.07a1.17,1.17,0,0,1-1.31-1.31v-4.83Z" transform="translate(0 -296)"/><path class="cls-2" d="M204.1,371.31a1.17,1.17,0,0,1,1.31-1.31h18.2a1.16,1.16,0,0,1,1.29,1.31v4.85a1.15,1.15,0,0,1-1.29,1.31h-10.5a1.14,1.14,0,0,0-1.29,1.29v1.4a1.14,1.14,0,0,0,1.29,1.29h6.73a1.16,1.16,0,0,1,1.29,1.31v4.85a1.14,1.14,0,0,1-1.29,1.29h-6.73a1.16,1.16,0,0,0-1.29,1.31v1.38a1.15,1.15,0,0,0,1.29,1.31h10.5a1.14,1.14,0,0,1,1.29,1.29v4.87a1.14,1.14,0,0,1-1.29,1.29h-18.2a1.15,1.15,0,0,1-1.31-1.29V371.31Z" transform="translate(0 -296)"/><path class="cls-2" d="M236.46,390.59V379.76a18.56,18.56,0,0,1,.13-2.22,11.55,11.55,0,0,1,.76-2.69,8.54,8.54,0,0,1,1.71-2.78,8.68,8.68,0,0,1,3.22-2,14,14,0,0,1,5-.83,14.53,14.53,0,0,1,4.59.66,9.25,9.25,0,0,1,3.1,1.62,7.94,7.94,0,0,1,1.84,2.32,10.36,10.36,0,0,1,1,2.44,12.18,12.18,0,0,1,.32,2.39,1.25,1.25,0,0,1-1.12,1.33l-4.91,1.1a2,2,0,0,1-.38,0,1.05,1.05,0,0,1-1-1.19,4,4,0,0,0-.87-2.49,3.33,3.33,0,0,0-2.52-.79q-2.2,0-2.82,1.24a10.05,10.05,0,0,0-.61,4.13v6.24a10.06,10.06,0,0,0,.61,4.14q0.62,1.23,2.82,1.24a4.57,4.57,0,0,0,1.88-.33,2.08,2.08,0,0,0,1-1,4.37,4.37,0,0,0,.41-1.28,11.71,11.71,0,0,0,.08-1.55h-2.52a1.14,1.14,0,0,1-1.29-1.29v-3.47a1.16,1.16,0,0,1,1.29-1.31h8.68a1.15,1.15,0,0,1,1.29,1.31v5.84a18.89,18.89,0,0,1-.13,2.23,11.37,11.37,0,0,1-.76,2.69,8.57,8.57,0,0,1-1.71,2.77,8.74,8.74,0,0,1-3.23,2,15.47,15.47,0,0,1-10.1,0,8.75,8.75,0,0,1-3.22-2,8.57,8.57,0,0,1-1.71-2.77,11.33,11.33,0,0,1-.76-2.69A18.89,18.89,0,0,1,236.46,390.59Z" transform="translate(0 -296)"/><path class="cls-2" d="M270.25,390.59V379.76a18.77,18.77,0,0,1,.13-2.22,11.59,11.59,0,0,1,.76-2.69,8.54,8.54,0,0,1,1.71-2.78,8.68,8.68,0,0,1,3.23-2,15.71,15.71,0,0,1,10.09,0,8.67,8.67,0,0,1,3.22,2,8.52,8.52,0,0,1,1.71,2.78,11.55,11.55,0,0,1,.76,2.69,18.58,18.58,0,0,1,.13,2.22v10.83a18.91,18.91,0,0,1-.13,2.23,11.33,11.33,0,0,1-.76,2.69,8.55,8.55,0,0,1-1.71,2.77,8.74,8.74,0,0,1-3.22,2,15.47,15.47,0,0,1-10.09,0,8.75,8.75,0,0,1-3.23-2,8.56,8.56,0,0,1-1.71-2.77,11.37,11.37,0,0,1-.76-2.69A19.11,19.11,0,0,1,270.25,390.59Zm7.45-2.29a10,10,0,0,0,.61,4.14q0.61,1.23,2.81,1.24t2.82-1.24a10.07,10.07,0,0,0,.61-4.14v-6.24a10.07,10.07,0,0,0-.61-4.13q-0.62-1.24-2.82-1.24t-2.81,1.24a10,10,0,0,0-.61,4.13v6.24Z" transform="translate(0 -296)"/><path class="cls-2" d="M304.54,399V371.36A1.34,1.34,0,0,1,305.9,370h9.48q5.71,0,8.28,2.51t2.56,7.88q0,6.16-3.28,8.49a0.47,0.47,0,0,0-.12.57L327.4,398a1.59,1.59,0,0,1,.23.87,1.45,1.45,0,0,1-.21.74,1.6,1.6,0,0,1-1.46.74H321a1,1,0,0,1-1-.61l-4.52-8.7a0.46,0.46,0,0,0-.36-0.23h-1.74a1.28,1.28,0,0,0-1,.39,1.33,1.33,0,0,0-.38,1V399a1.29,1.29,0,0,1-.39,1,1.32,1.32,0,0,1-1,.38h-4.83a1.32,1.32,0,0,1-1-.38A1.28,1.28,0,0,1,304.54,399Zm7.53-17a1.27,1.27,0,0,0,.39,1,1.3,1.3,0,0,0,.94.38h2.23a4.08,4.08,0,0,0,2.43-.54,4.53,4.53,0,0,0,0-4.81,4.06,4.06,0,0,0-2.43-.54h-2.23a1.27,1.27,0,0,0-1,.39,1.29,1.29,0,0,0-.38.94V382Z" transform="translate(0 -296)"/><path class="cls-2" d="M336.4,370h6.24a1.48,1.48,0,0,1,1.48,1l3.2,8q0.32,0.7.61,0l3.2-8a1.47,1.47,0,0,1,1.48-1h6.2a1.18,1.18,0,0,1,1,.42,0.89,0.89,0,0,1,.13.46,1.71,1.71,0,0,1-.15.64L352,388.86a1.32,1.32,0,0,0-.08.53v9.67a1.14,1.14,0,0,1-1.29,1.29h-6.07a1.14,1.14,0,0,1-1.29-1.29v-9.67a1.26,1.26,0,0,0-.08-0.53l-7.81-17.33a1.54,1.54,0,0,1-.17-0.64,1,1,0,0,1,.15-0.46A1.18,1.18,0,0,1,336.4,370Z" transform="translate(0 -296)"/><path class="cls-3" d="M100.31,387.78V377a18.66,18.66,0,0,1,.13-2.22,11.59,11.59,0,0,1,.76-2.69,8.58,8.58,0,0,1,1.71-2.78,8.71,8.71,0,0,1,3.23-2,14,14,0,0,1,5-.83,14.2,14.2,0,0,1,4.64.69,9.29,9.29,0,0,1,3.12,1.68,7.93,7.93,0,0,1,1.84,2.38,10.71,10.71,0,0,1,1,2.48A12.58,12.58,0,0,1,122,376a1,1,0,0,1-1,1.21l-4.8,1.1a1.36,1.36,0,0,1-1.15-.26,1.57,1.57,0,0,1-.58-1.09,3.74,3.74,0,0,0-.91-2.28,3.33,3.33,0,0,0-2.43-.75q-2.2,0-2.81,1.24a10,10,0,0,0-.61,4.13v6.24a10,10,0,0,0,.61,4.14q0.61,1.24,2.81,1.24a3.1,3.1,0,0,0,2.38-.76,4.46,4.46,0,0,0,.92-2.37,1.48,1.48,0,0,1,.56-1.06,1.23,1.23,0,0,1,1.11-.19l4.91,1.08a1.06,1.06,0,0,1,1,1.25,12.8,12.8,0,0,1-.29,2.28,10.3,10.3,0,0,1-1,2.48,8,8,0,0,1-1.84,2.36,9.38,9.38,0,0,1-3.12,1.69,14,14,0,0,1-4.64.7,13.73,13.73,0,0,1-5-.85,8.75,8.75,0,0,1-3.23-2,8.58,8.58,0,0,1-1.71-2.77,11.36,11.36,0,0,1-.76-2.69A19,19,0,0,1,100.31,387.78Z" transform="translate(0 -296)"/><path class="cls-3" d="M133.44,377.69a31.6,31.6,0,0,1,.15-3.29,11.58,11.58,0,0,1,.78-3,7,7,0,0,1,1.73-2.62,8.46,8.46,0,0,1,3.12-1.68,17.92,17.92,0,0,1,9.67,0,8.44,8.44,0,0,1,3.11,1.68,6.92,6.92,0,0,1,1.72,2.62,12.15,12.15,0,0,1,.78,3,29.2,29.2,0,0,1,.16,3.29v18.37a1.25,1.25,0,0,1-1.31,1.48h-4.83a1.15,1.15,0,0,1-1.31-1.29v-3.79a1.14,1.14,0,0,0-1.29-1.29H142.2a1.15,1.15,0,0,0-1.31,1.29v3.79a1.14,1.14,0,0,1-1.29,1.29h-4.84a1.24,1.24,0,0,1-1.31-1.48V377.69Zm8.76,6h3.72a1.2,1.2,0,0,0,1.29-1.35v-4.68a3.83,3.83,0,0,0-.58-2.42,3.42,3.42,0,0,0-2.57-.69,3.47,3.47,0,0,0-2.58.69,3.77,3.77,0,0,0-.59,2.42v4.72A1.17,1.17,0,0,0,142.2,383.72Z" transform="translate(0 -296)"/><path class="cls-3" d="M164.83,368.5a1.17,1.17,0,0,1,1.31-1.31h22.18a1.17,1.17,0,0,1,1.31,1.31v4.83a1.17,1.17,0,0,1-1.31,1.31h-6.05a1.15,1.15,0,0,0-1.31,1.29v20.29a1.14,1.14,0,0,1-1.29,1.29h-4.85a1.15,1.15,0,0,1-1.31-1.29V375.93a1.14,1.14,0,0,0-1.29-1.29h-6.07a1.17,1.17,0,0,1-1.31-1.31V368.5Z" transform="translate(0 -296)"/><path class="cls-3" d="M200.89,368.51a1.17,1.17,0,0,1,1.31-1.31h18.2a1.16,1.16,0,0,1,1.29,1.31v4.85a1.15,1.15,0,0,1-1.29,1.31H209.9a1.14,1.14,0,0,0-1.29,1.29v1.4a1.14,1.14,0,0,0,1.29,1.29h6.73a1.16,1.16,0,0,1,1.29,1.31v4.85a1.14,1.14,0,0,1-1.29,1.29H209.9a1.16,1.16,0,0,0-1.29,1.31v1.38a1.15,1.15,0,0,0,1.29,1.31h10.5a1.14,1.14,0,0,1,1.29,1.29v4.87a1.14,1.14,0,0,1-1.29,1.29H202.2a1.15,1.15,0,0,1-1.31-1.29V368.51Z" transform="translate(0 -296)"/><path class="cls-3" d="M233.25,387.78V377a18.57,18.57,0,0,1,.13-2.22,11.53,11.53,0,0,1,.76-2.69,8.53,8.53,0,0,1,1.71-2.78,8.68,8.68,0,0,1,3.22-2,14,14,0,0,1,5-.83,14.52,14.52,0,0,1,4.59.66,9.22,9.22,0,0,1,3.1,1.62,7.91,7.91,0,0,1,1.84,2.32,10.36,10.36,0,0,1,1,2.44,12.16,12.16,0,0,1,.32,2.39,1.25,1.25,0,0,1-1.12,1.33l-4.91,1.1a2,2,0,0,1-.38,0,1.05,1.05,0,0,1-1-1.18,4,4,0,0,0-.87-2.49,3.33,3.33,0,0,0-2.52-.79q-2.2,0-2.82,1.24a10,10,0,0,0-.61,4.13v6.24a10,10,0,0,0,.61,4.14q0.61,1.24,2.82,1.24a4.57,4.57,0,0,0,1.88-.33,2.08,2.08,0,0,0,1-1,4.33,4.33,0,0,0,.41-1.28,11.51,11.51,0,0,0,.08-1.55H245a1.14,1.14,0,0,1-1.29-1.29v-3.47a1.16,1.16,0,0,1,1.29-1.31h8.68a1.15,1.15,0,0,1,1.29,1.31v5.84a19.13,19.13,0,0,1-.13,2.23,11.35,11.35,0,0,1-.76,2.69,8.54,8.54,0,0,1-1.71,2.77,8.74,8.74,0,0,1-3.23,2,15.47,15.47,0,0,1-10.09,0,8.73,8.73,0,0,1-3.22-2,8.53,8.53,0,0,1-1.71-2.77,11.31,11.31,0,0,1-.76-2.69A18.91,18.91,0,0,1,233.25,387.78Z" transform="translate(0 -296)"/><path class="cls-3" d="M267,387.78V377a18.55,18.55,0,0,1,.13-2.22,11.59,11.59,0,0,1,.76-2.69,8.54,8.54,0,0,1,1.71-2.78,8.68,8.68,0,0,1,3.23-2,15.71,15.71,0,0,1,10.09,0,8.69,8.69,0,0,1,3.23,2A8.55,8.55,0,0,1,287.9,372a11.54,11.54,0,0,1,.76,2.69,18.55,18.55,0,0,1,.13,2.22v10.83a18.9,18.9,0,0,1-.13,2.23,11.31,11.31,0,0,1-.76,2.69,8.55,8.55,0,0,1-1.71,2.77,8.73,8.73,0,0,1-3.23,2,15.47,15.47,0,0,1-10.09,0,8.73,8.73,0,0,1-3.23-2,8.54,8.54,0,0,1-1.71-2.77,11.36,11.36,0,0,1-.76-2.69A18.9,18.9,0,0,1,267,387.78Zm7.45-2.29a10,10,0,0,0,.61,4.14q0.61,1.24,2.82,1.24t2.82-1.24a10.07,10.07,0,0,0,.61-4.14v-6.24a10.06,10.06,0,0,0-.61-4.13q-0.62-1.24-2.82-1.24t-2.82,1.24a10,10,0,0,0-.61,4.13v6.24Z" transform="translate(0 -296)"/><path class="cls-3" d="M301.33,396.21V368.55a1.34,1.34,0,0,1,1.35-1.35h9.48q5.71,0,8.28,2.51t2.56,7.88q0,6.16-3.28,8.49a0.47,0.47,0,0,0-.12.57l4.59,8.54a1.6,1.6,0,0,1,.23.87,1.45,1.45,0,0,1-.21.74,1.6,1.6,0,0,1-1.46.74h-4.93a1,1,0,0,1-1-.61l-4.52-8.7a0.46,0.46,0,0,0-.36-0.23H310.2a1.28,1.28,0,0,0-1,.39,1.33,1.33,0,0,0-.38,1v6.86a1.28,1.28,0,0,1-.39,1,1.32,1.32,0,0,1-1,.38h-4.83a1.32,1.32,0,0,1-1-.38A1.28,1.28,0,0,1,301.33,396.21Zm7.53-17a1.27,1.27,0,0,0,.39,1,1.3,1.3,0,0,0,.94.38h2.23a4.08,4.08,0,0,0,2.43-.54,4.54,4.54,0,0,0,0-4.81,4.07,4.07,0,0,0-2.43-.54H310.2a1.27,1.27,0,0,0-1,.39,1.29,1.29,0,0,0-.38.94v3.22Z" transform="translate(0 -296)"/><path class="cls-3" d="M333.19,367.2h6.24a1.48,1.48,0,0,1,1.48,1l3.2,8c0.21,0.46.41,0.46,0.61,0l3.2-8a1.47,1.47,0,0,1,1.48-1h6.2a1.18,1.18,0,0,1,1,.42,0.89,0.89,0,0,1,.12.46,1.71,1.71,0,0,1-.15.64L348.83,386a1.31,1.31,0,0,0-.09.53v9.67a1.14,1.14,0,0,1-1.29,1.29h-6.07a1.14,1.14,0,0,1-1.29-1.29v-9.67A1.23,1.23,0,0,0,340,386l-7.81-17.33a1.53,1.53,0,0,1-.17-0.64,1,1,0,0,1,.15-0.46A1.18,1.18,0,0,1,333.19,367.2Z" transform="translate(0 -296)"/><path d="M198.6,521.59v-11.1a30.57,30.57,0,0,1,3.92-15.2,40,40,0,0,1,9.56-11.6,123.82,123.82,0,0,1,11.35-8.28q5.7-3.67,10.06-7t4.92-6a5.85,5.85,0,0,0-1-5.11q-1.66-2-5.3-2-8.46,0-9.91,8.59-0.63,4-4.2,3.2l-14.67-3.2a3.8,3.8,0,0,1-3.32-4.26,35.53,35.53,0,0,1,1-6.33,27.94,27.94,0,0,1,3-6.87,25.38,25.38,0,0,1,5.52-6.61,27.1,27.1,0,0,1,9.09-4.67,43,43,0,0,1,13.42-1.91,37.39,37.39,0,0,1,14.06,2.41,23,23,0,0,1,8.85,5.71,25.35,25.35,0,0,1,4.53,7.52,27.56,27.56,0,0,1,1.91,6.62,41.51,41.51,0,0,1,.25,4.26,24.11,24.11,0,0,1-2.5,10.91,26,26,0,0,1-6.36,8.31,93.29,93.29,0,0,1-8.53,6.43q-4.67,3.14-8.84,5.39a40.58,40.58,0,0,0-7.52,5.21,14.29,14.29,0,0,0-4.36,5.89,1,1,0,0,0,1.13,1.44h32.42q3.81,0,3.81,3.83v14.42q0,3.82-3.81,3.83H202.42Q198.59,525.42,198.6,521.59Z" transform="translate(0 -296)"/></svg>