<svg id="Layer_1" data-name="Layer 1" xmlns="http://www.w3.org/2000/svg" viewBox="0 0 461.44 287.48"><defs><style>.cls-1{fill:#ee3d94;}.cls-2{fill:#fff;}.cls-3{fill:#231f20;}</style></defs><title>take5_categorytickets_4x6</title><path class="cls-1" d="M418.73,950a32.75,32.75,0,0,0,29.4,32.54v20.63a32.7,32.7,0,0,0,0,65.07v20.63a32.7,32.7,0,0,0,0,65.07v11.82H14.07V1154a32.66,32.66,0,0,0,0-65.16v-20.54a32.66,32.66,0,0,0,0-65.16V982.63a32.66,32.66,0,0,0,0-65.16V905.69H448.13v11.82A32.75,32.75,0,0,0,418.73,950Z" transform="translate(-0.38 -892)"/><path d="M0.38,892v39H11.74a19.36,19.36,0,0,1,2.33.15,19,19,0,0,1,0,37.72,19.78,19.78,0,0,1-2.33.15H0.38v47.67H11.74a19,19,0,0,1,2.33,37.88,20,20,0,0,1-2.33.15H0.38v47.67H11.74a19,19,0,0,1,2.33,37.88,19.57,19.57,0,0,1-2.33.15H0.38v39H461.82v-39H451.43a19.52,19.52,0,0,1-3.3-.31,19,19,0,0,1,0-37.42,19.83,19.83,0,0,1,3.3-.3h10.39v-47.67H451.43a19.63,19.63,0,0,1-3.3-.31,19,19,0,0,1,0-37.42,19.83,19.83,0,0,1,3.3-.3h10.39V969.06H451.43a19.53,19.53,0,0,1-3.3-.31,19,19,0,0,1,0-37.42,19.94,19.94,0,0,1,3.3-.3h10.39V892H0.38Zm418.35,58a32.75,32.75,0,0,0,29.4,32.54v20.63a32.7,32.7,0,0,0,0,65.07v20.63a32.7,32.7,0,0,0,0,65.07v11.82H14.07V1154a32.66,32.66,0,0,0,0-65.16v-20.54a32.66,32.66,0,0,0,0-65.16V982.63a32.66,32.66,0,0,0,0-65.16V905.69H448.13v11.82A32.75,32.75,0,0,0,418.73,950Z" transform="translate(-0.38 -892)"/><path class="cls-2" d="M196.47,1044.87a2,2,0,0,1-2,2H191v3.57a2,2,0,0,1-3.95,0v-3.57h-3.66a2,2,0,1,1,0-3.95h3.66v-3.56a2,2,0,1,1,3.95,0v3.56h3.46A2,2,0,0,1,196.47,1044.87Z" transform="translate(-0.38 -892)"/><circle class="cls-2" cx="165.46" cy="149.64" r="3.85"/><path d="M166.94,1040.84a3.4,3.4,0,1,1-3.4-3.4A3.4,3.4,0,0,1,166.94,1040.84Z" transform="translate(-0.38 -892)"/><path class="cls-2" d="M183.73,1062.17a1.86,1.86,0,0,1-1,1.6l-3.35,1.82a2.15,2.15,0,0,0-.53.53l-1.92,3.46a1.77,1.77,0,0,1-3.19,0l-1.87-3.4a1.76,1.76,0,0,0-.54-0.53l-3.39-1.87a1.87,1.87,0,0,1-1-1.6,1.84,1.84,0,0,1,1-1.6l3.46-1.92a2.08,2.08,0,0,0,.53-0.54l1.83-3.35a1.82,1.82,0,0,1,1.59-1,1.84,1.84,0,0,1,1.6,1l1.86,3.4a2.24,2.24,0,0,0,.53.53l3.41,1.88A1.84,1.84,0,0,1,183.73,1062.17Z" transform="translate(-0.38 -892)"/><path d="M174.1,1067.35a1.83,1.83,0,0,1-1.6-1l-1.5-2.71a1.93,1.93,0,0,0-.53-0.53l-2.71-1.49a1.77,1.77,0,0,1,0-3.19l2.76-1.54a2.13,2.13,0,0,0,.53-0.53l1.45-2.67a1.77,1.77,0,0,1,3.19,0l1.49,2.71a1.8,1.8,0,0,0,.53.53l2.72,1.5a1.77,1.77,0,0,1,0,3.18l-2.67,1.46a1.84,1.84,0,0,0-.53.53l-1.53,2.76A1.83,1.83,0,0,1,174.1,1067.35Zm-3.5-7.34,1.21,0.67a4.48,4.48,0,0,1,1.62,1.62l0.67,1.22,0.71-1.26a4.59,4.59,0,0,1,1.63-1.62l1.15-.62-1.2-.66a4.59,4.59,0,0,1-1.62-1.62l-0.66-1.2-0.62,1.15a4.58,4.58,0,0,1-1.62,1.62Z" transform="translate(-0.38 -892)"/><path class="cls-2" d="M305.95,1093.87a2,2,0,0,1-2,2h-3.46v3.56a2,2,0,1,1-3.94,0v-3.56H292.9a2,2,0,0,1,0-4h3.67v-3.56a2,2,0,0,1,3.94,0v3.56H304A2,2,0,0,1,305.95,1093.87Z" transform="translate(-0.38 -892)"/><circle class="cls-2" cx="278.34" cy="196.36" r="3.85"/><path d="M279.82,1087.55a3.4,3.4,0,1,1-3.4-3.4A3.4,3.4,0,0,1,279.82,1087.55Z" transform="translate(-0.38 -892)"/><path class="cls-2" d="M290.94,1112.61a1.81,1.81,0,0,1-1,1.59l-3.35,1.83a1.88,1.88,0,0,0-.53.53l-1.92,3.45a1.78,1.78,0,0,1-3.19,0l-1.87-3.41a1.91,1.91,0,0,0-.54-0.53l-3.39-1.87a1.77,1.77,0,0,1,0-3.18l3.46-1.92a2.06,2.06,0,0,0,.53-0.53l1.83-3.34a1.83,1.83,0,0,1,1.59-1,1.85,1.85,0,0,1,1.6,1l1.87,3.4a1.88,1.88,0,0,0,.53.53l3.41,1.88A1.82,1.82,0,0,1,290.94,1112.61Z" transform="translate(-0.38 -892)"/><path d="M280.92,1117.7a1.82,1.82,0,0,1-1.6-1l-1.5-2.71a2,2,0,0,0-.53-0.54l-2.71-1.49a1.77,1.77,0,0,1,0-3.19l2.76-1.53a2,2,0,0,0,.53-0.53l1.46-2.67a1.76,1.76,0,0,1,3.19,0l1.49,2.71a2,2,0,0,0,.53.53l2.72,1.5a1.77,1.77,0,0,1,0,3.19l-2.67,1.46a1.9,1.9,0,0,0-.53.53l-1.54,2.76A1.82,1.82,0,0,1,280.92,1117.7Zm-3.5-7.34,1.21,0.66a4.53,4.53,0,0,1,1.62,1.62l0.68,1.22,0.71-1.26a4.49,4.49,0,0,1,1.62-1.61l1.14-.63-1.2-.66a4.5,4.5,0,0,1-1.62-1.62l-0.65-1.19-0.63,1.15a4.6,4.6,0,0,1-1.62,1.62Z" transform="translate(-0.38 -892)"/><path class="cls-2" d="M103.71,986.42V975.61a18.6,18.6,0,0,1,.13-2.22,11.55,11.55,0,0,1,.76-2.68,8.54,8.54,0,0,1,1.71-2.78,8.69,8.69,0,0,1,3.22-2,13.91,13.91,0,0,1,5-.83,14.18,14.18,0,0,1,4.63.69,9.28,9.28,0,0,1,3.11,1.68,7.93,7.93,0,0,1,1.84,2.38,10.67,10.67,0,0,1,1,2.47,12.56,12.56,0,0,1,.28,2.29,1,1,0,0,1-.95,1.21l-4.8,1.1a1.36,1.36,0,0,1-1.15-.26,1.56,1.56,0,0,1-.58-1.09,3.73,3.73,0,0,0-.91-2.27,3.32,3.32,0,0,0-2.43-.75q-2.2,0-2.81,1.24a10,10,0,0,0-.61,4.13v6.23a10,10,0,0,0,.61,4.13q0.61,1.24,2.81,1.24a3.09,3.09,0,0,0,2.38-.76,4.46,4.46,0,0,0,.92-2.37,1.48,1.48,0,0,1,.56-1.06,1.23,1.23,0,0,1,1.11-.19l4.9,1.08a1.06,1.06,0,0,1,.95,1.25,12.78,12.78,0,0,1-.28,2.27,10.25,10.25,0,0,1-1,2.47,8,8,0,0,1-1.84,2.35,9.39,9.39,0,0,1-3.11,1.69,13.94,13.94,0,0,1-4.63.7,13.72,13.72,0,0,1-5-.84,8.74,8.74,0,0,1-3.22-2,8.57,8.57,0,0,1-1.71-2.77,11.36,11.36,0,0,1-.76-2.68A18.89,18.89,0,0,1,103.71,986.42Z" transform="translate(-0.38 -892)"/><path class="cls-2" d="M136.78,976.35a31.65,31.65,0,0,1,.15-3.29,11.58,11.58,0,0,1,.78-3,7,7,0,0,1,1.73-2.62,8.45,8.45,0,0,1,3.11-1.68,17.85,17.85,0,0,1,9.65,0,8.46,8.46,0,0,1,3.11,1.68,6.89,6.89,0,0,1,1.72,2.62,12.12,12.12,0,0,1,.78,3,29.23,29.23,0,0,1,.16,3.29v18.33a1.25,1.25,0,0,1-1.3,1.48h-4.82a1.15,1.15,0,0,1-1.31-1.29v-3.78a1.14,1.14,0,0,0-1.29-1.29h-3.72a1.15,1.15,0,0,0-1.31,1.29v3.78a1.14,1.14,0,0,1-1.29,1.29h-4.84a1.24,1.24,0,0,1-1.31-1.48V976.35Zm8.75,6h3.72a1.2,1.2,0,0,0,1.29-1.35v-4.67a3.82,3.82,0,0,0-.58-2.42,3.41,3.41,0,0,0-2.57-.69,3.45,3.45,0,0,0-2.58.69,3.76,3.76,0,0,0-.59,2.42v4.71A1.17,1.17,0,0,0,145.53,982.37Z" transform="translate(-0.38 -892)"/><path class="cls-2" d="M168.12,967.18a1.17,1.17,0,0,1,1.31-1.3h22.14a1.17,1.17,0,0,1,1.31,1.3V972a1.17,1.17,0,0,1-1.31,1.31h-6a1.15,1.15,0,0,0-1.31,1.29v20.26a1.14,1.14,0,0,1-1.29,1.29h-4.84a1.15,1.15,0,0,1-1.31-1.29V974.59a1.14,1.14,0,0,0-1.29-1.29h-6.06a1.17,1.17,0,0,1-1.31-1.31v-4.83Z" transform="translate(-0.38 -892)"/><path class="cls-2" d="M204.11,967.18a1.17,1.17,0,0,1,1.31-1.31h18.17a1.16,1.16,0,0,1,1.29,1.31V972a1.15,1.15,0,0,1-1.29,1.31H213.1a1.14,1.14,0,0,0-1.29,1.29V976a1.14,1.14,0,0,0,1.29,1.29h6.72a1.16,1.16,0,0,1,1.29,1.31v4.84a1.14,1.14,0,0,1-1.29,1.29H213.1a1.16,1.16,0,0,0-1.29,1.31v1.37a1.15,1.15,0,0,0,1.29,1.31h10.48a1.14,1.14,0,0,1,1.29,1.29v4.86a1.14,1.14,0,0,1-1.29,1.29H205.41a1.15,1.15,0,0,1-1.31-1.29V967.18Z" transform="translate(-0.38 -892)"/><path class="cls-2" d="M236.42,986.42V975.61a18.5,18.5,0,0,1,.13-2.22,11.51,11.51,0,0,1,.76-2.68,8.51,8.51,0,0,1,1.71-2.78,8.67,8.67,0,0,1,3.22-2,13.92,13.92,0,0,1,5-.83,14.53,14.53,0,0,1,4.58.66,9.25,9.25,0,0,1,3.09,1.62,7.94,7.94,0,0,1,1.84,2.31,10.4,10.4,0,0,1,1,2.44,12.13,12.13,0,0,1,.32,2.39,1.25,1.25,0,0,1-1.12,1.33l-4.9,1.1a2,2,0,0,1-.38,0,1.05,1.05,0,0,1-1-1.18,4,4,0,0,0-.87-2.48,3.32,3.32,0,0,0-2.51-.79q-2.2,0-2.81,1.24a10,10,0,0,0-.61,4.13v6.23a10,10,0,0,0,.61,4.13q0.61,1.24,2.81,1.24a4.57,4.57,0,0,0,1.88-.33,2.07,2.07,0,0,0,1-1,4.38,4.38,0,0,0,.41-1.28,11.67,11.67,0,0,0,.08-1.55h-2.51a1.14,1.14,0,0,1-1.29-1.29v-3.46a1.16,1.16,0,0,1,1.29-1.31h8.66a1.15,1.15,0,0,1,1.29,1.31v5.83a18.78,18.78,0,0,1-.13,2.23,11.32,11.32,0,0,1-.76,2.68,8.54,8.54,0,0,1-1.71,2.77,8.73,8.73,0,0,1-3.22,2,15.45,15.45,0,0,1-10.08,0,8.73,8.73,0,0,1-3.22-2,8.54,8.54,0,0,1-1.71-2.77,11.32,11.32,0,0,1-.76-2.68A18.78,18.78,0,0,1,236.42,986.42Z" transform="translate(-0.38 -892)"/><path class="cls-2" d="M270.14,986.42V975.61a18.5,18.5,0,0,1,.13-2.22,11.51,11.51,0,0,1,.76-2.68,8.51,8.51,0,0,1,1.71-2.78,8.67,8.67,0,0,1,3.22-2,15.65,15.65,0,0,1,10.08,0,8.67,8.67,0,0,1,3.22,2,8.51,8.51,0,0,1,1.71,2.78,11.51,11.51,0,0,1,.76,2.68,18.49,18.49,0,0,1,.13,2.22v10.82a18.78,18.78,0,0,1-.13,2.23,11.32,11.32,0,0,1-.76,2.68,8.54,8.54,0,0,1-1.71,2.77,8.73,8.73,0,0,1-3.22,2,15.45,15.45,0,0,1-10.08,0,8.73,8.73,0,0,1-3.22-2,8.54,8.54,0,0,1-1.71-2.77,11.32,11.32,0,0,1-.76-2.68A18.78,18.78,0,0,1,270.14,986.42Zm7.44-2.28a10,10,0,0,0,.61,4.13q0.61,1.24,2.81,1.24t2.81-1.24a10.05,10.05,0,0,0,.61-4.13v-6.23a10,10,0,0,0-.61-4.13q-0.62-1.24-2.81-1.24t-2.81,1.24a10,10,0,0,0-.61,4.13v6.23Z" transform="translate(-0.38 -892)"/><path class="cls-2" d="M304.37,994.83V967.22a1.34,1.34,0,0,1,1.35-1.35h9.46q5.7,0,8.26,2.51t2.55,7.86q0,6.15-3.27,8.48a0.47,0.47,0,0,0-.12.57l4.58,8.52a1.6,1.6,0,0,1,.23.87,1.46,1.46,0,0,1-.21.74,1.59,1.59,0,0,1-1.46.74h-4.92a1,1,0,0,1-1-.61l-4.51-8.69a0.46,0.46,0,0,0-.36-0.23h-1.74a1.28,1.28,0,0,0-1,.39,1.32,1.32,0,0,0-.38,1v6.85a1.28,1.28,0,0,1-.39,1,1.32,1.32,0,0,1-1,.38h-4.82a1.32,1.32,0,0,1-1-.38A1.27,1.27,0,0,1,304.37,994.83Zm7.52-17a1.27,1.27,0,0,0,.39,1,1.29,1.29,0,0,0,.94.38h2.22a4.08,4.08,0,0,0,2.43-.54,4.53,4.53,0,0,0,0-4.8,4.07,4.07,0,0,0-2.43-.54h-2.22a1.27,1.27,0,0,0-1,.39,1.29,1.29,0,0,0-.38.94v3.21Z" transform="translate(-0.38 -892)"/><path class="cls-2" d="M336.18,965.87h6.23a1.48,1.48,0,0,1,1.48,1l3.19,8c0.21,0.46.42,0.46,0.61,0l3.19-8a1.47,1.47,0,0,1,1.48-1h6.19a1.18,1.18,0,0,1,1,.42,0.87,0.87,0,0,1,.13.46,1.72,1.72,0,0,1-.15.63l-7.75,17.3a1.32,1.32,0,0,0-.08.53v9.65a1.14,1.14,0,0,1-1.29,1.29h-6.06a1.14,1.14,0,0,1-1.29-1.29v-9.65a1.26,1.26,0,0,0-.08-0.53l-7.8-17.3a1.53,1.53,0,0,1-.17-0.63,1,1,0,0,1,.15-0.46A1.18,1.18,0,0,1,336.18,965.87Z" transform="translate(-0.38 -892)"/><path class="cls-3" d="M100.51,983.62V972.8a18.61,18.61,0,0,1,.13-2.22,11.57,11.57,0,0,1,.76-2.68,8.54,8.54,0,0,1,1.71-2.78,8.68,8.68,0,0,1,3.22-2,13.9,13.9,0,0,1,5-.83A14.18,14.18,0,0,1,116,963a9.3,9.3,0,0,1,3.12,1.68,7.93,7.93,0,0,1,1.84,2.38,10.67,10.67,0,0,1,1,2.47,12.55,12.55,0,0,1,.29,2.29,1,1,0,0,1-.95,1.21l-4.8,1.1a1.36,1.36,0,0,1-1.15-.26,1.56,1.56,0,0,1-.58-1.09,3.74,3.74,0,0,0-.91-2.27,3.32,3.32,0,0,0-2.43-.75q-2.2,0-2.81,1.24a10,10,0,0,0-.61,4.13v6.23a10,10,0,0,0,.61,4.13q0.61,1.23,2.81,1.24a3.1,3.1,0,0,0,2.38-.76,4.45,4.45,0,0,0,.92-2.37,1.47,1.47,0,0,1,.56-1.06,1.22,1.22,0,0,1,1.11-.19l4.9,1.08a1.06,1.06,0,0,1,.95,1.25,12.78,12.78,0,0,1-.29,2.27,10.29,10.29,0,0,1-1,2.47,8,8,0,0,1-1.84,2.35,9.41,9.41,0,0,1-3.12,1.69,13.93,13.93,0,0,1-4.63.7,13.68,13.68,0,0,1-5-.85,8.73,8.73,0,0,1-3.22-2,8.59,8.59,0,0,1-1.71-2.77,11.39,11.39,0,0,1-.76-2.68A18.9,18.9,0,0,1,100.51,983.62Z" transform="translate(-0.38 -892)"/><path class="cls-3" d="M133.58,973.54a31.48,31.48,0,0,1,.15-3.29,11.53,11.53,0,0,1,.78-3,7,7,0,0,1,1.73-2.62,8.48,8.48,0,0,1,3.12-1.68,17.88,17.88,0,0,1,9.65,0,8.46,8.46,0,0,1,3.11,1.68,6.9,6.9,0,0,1,1.72,2.62,12.09,12.09,0,0,1,.78,3,29.21,29.21,0,0,1,.16,3.29v18.33a1.25,1.25,0,0,1-1.31,1.48h-4.82a1.15,1.15,0,0,1-1.31-1.29v-3.78A1.14,1.14,0,0,0,146,987h-3.72a1.15,1.15,0,0,0-1.31,1.29v3.78a1.14,1.14,0,0,1-1.29,1.29h-4.84a1.24,1.24,0,0,1-1.31-1.48V973.54Zm8.75,6H146a1.2,1.2,0,0,0,1.29-1.35v-4.67a3.82,3.82,0,0,0-.58-2.42,3.41,3.41,0,0,0-2.57-.69,3.45,3.45,0,0,0-2.58.69,3.76,3.76,0,0,0-.59,2.42v4.71A1.17,1.17,0,0,0,142.32,979.56Z" transform="translate(-0.38 -892)"/><path class="cls-3" d="M164.92,964.37a1.17,1.17,0,0,1,1.31-1.3h22.14a1.17,1.17,0,0,1,1.31,1.3v4.82a1.17,1.17,0,0,1-1.31,1.31h-6a1.15,1.15,0,0,0-1.31,1.29V992a1.14,1.14,0,0,1-1.29,1.29h-4.84a1.15,1.15,0,0,1-1.31-1.29V971.79a1.14,1.14,0,0,0-1.29-1.29h-6.06a1.17,1.17,0,0,1-1.31-1.31v-4.82Z" transform="translate(-0.38 -892)"/><path class="cls-3" d="M200.9,964.38a1.17,1.17,0,0,1,1.31-1.31h18.17a1.16,1.16,0,0,1,1.29,1.31v4.84a1.15,1.15,0,0,1-1.29,1.31H209.9a1.14,1.14,0,0,0-1.29,1.29v1.4a1.14,1.14,0,0,0,1.29,1.29h6.72a1.16,1.16,0,0,1,1.29,1.31v4.84a1.14,1.14,0,0,1-1.29,1.29H209.9a1.16,1.16,0,0,0-1.29,1.31v1.37a1.15,1.15,0,0,0,1.29,1.31h10.48a1.14,1.14,0,0,1,1.29,1.29v4.86a1.14,1.14,0,0,1-1.29,1.29H202.21a1.15,1.15,0,0,1-1.31-1.29V964.38Z" transform="translate(-0.38 -892)"/><path class="cls-3" d="M233.21,983.62V972.8a18.71,18.71,0,0,1,.13-2.22,11.57,11.57,0,0,1,.76-2.68,8.49,8.49,0,0,1,1.71-2.78,8.65,8.65,0,0,1,3.22-2,13.9,13.9,0,0,1,5-.83,14.53,14.53,0,0,1,4.58.66,9.27,9.27,0,0,1,3.09,1.62,8,8,0,0,1,1.84,2.31,10.38,10.38,0,0,1,1,2.44,12.12,12.12,0,0,1,.32,2.39,1.25,1.25,0,0,1-1.12,1.33l-4.9,1.1a2,2,0,0,1-.38,0,1.05,1.05,0,0,1-1-1.18,4,4,0,0,0-.87-2.48,3.33,3.33,0,0,0-2.51-.79q-2.2,0-2.81,1.24a10,10,0,0,0-.61,4.13v6.23a10,10,0,0,0,.61,4.13q0.61,1.23,2.81,1.24a4.54,4.54,0,0,0,1.88-.33,2.07,2.07,0,0,0,1-1,4.35,4.35,0,0,0,.41-1.28,11.49,11.49,0,0,0,.08-1.55H245a1.14,1.14,0,0,1-1.29-1.29v-3.46a1.16,1.16,0,0,1,1.29-1.31h8.66a1.15,1.15,0,0,1,1.29,1.31v5.83a19,19,0,0,1-.13,2.23,11.35,11.35,0,0,1-.76,2.68,8.54,8.54,0,0,1-1.71,2.77,8.71,8.71,0,0,1-3.22,2,15.41,15.41,0,0,1-10.08,0,8.71,8.71,0,0,1-3.22-2,8.54,8.54,0,0,1-1.71-2.77,11.39,11.39,0,0,1-.76-2.68A19,19,0,0,1,233.21,983.62Z" transform="translate(-0.38 -892)"/><path class="cls-3" d="M266.94,983.62V972.8a18.72,18.72,0,0,1,.13-2.22,11.57,11.57,0,0,1,.76-2.68,8.49,8.49,0,0,1,1.71-2.78,8.65,8.65,0,0,1,3.22-2,15.65,15.65,0,0,1,10.08,0,8.65,8.65,0,0,1,3.22,2,8.49,8.49,0,0,1,1.71,2.78,11.52,11.52,0,0,1,.76,2.68,18.71,18.71,0,0,1,.13,2.22v10.82a19,19,0,0,1-.13,2.23,11.34,11.34,0,0,1-.76,2.68,8.54,8.54,0,0,1-1.71,2.77,8.71,8.71,0,0,1-3.22,2,15.41,15.41,0,0,1-10.08,0,8.7,8.7,0,0,1-3.22-2,8.54,8.54,0,0,1-1.71-2.77,11.39,11.39,0,0,1-.76-2.68A19,19,0,0,1,266.94,983.62Zm7.44-2.28a10,10,0,0,0,.61,4.13q0.61,1.23,2.81,1.24t2.81-1.24a10,10,0,0,0,.61-4.13v-6.23a10,10,0,0,0-.61-4.13q-0.61-1.24-2.81-1.24T275,971a10,10,0,0,0-.61,4.13v6.23Z" transform="translate(-0.38 -892)"/><path class="cls-3" d="M301.17,992V964.42a1.33,1.33,0,0,1,1.35-1.35H312q5.7,0,8.26,2.51t2.55,7.86q0,6.15-3.28,8.48a0.47,0.47,0,0,0-.12.57L324,991a1.61,1.61,0,0,1,.23.87,1.45,1.45,0,0,1-.21.74,1.59,1.59,0,0,1-1.46.74h-4.92a1,1,0,0,1-1-.61l-4.51-8.69a0.45,0.45,0,0,0-.36-0.23H310a1.28,1.28,0,0,0-1,.39,1.32,1.32,0,0,0-.38,1V992a1.28,1.28,0,0,1-.39,1,1.32,1.32,0,0,1-1,.38h-4.82a1.32,1.32,0,0,1-1-.38A1.28,1.28,0,0,1,301.17,992Zm7.52-17a1.27,1.27,0,0,0,.39,1,1.3,1.3,0,0,0,.94.38h2.22a4.08,4.08,0,0,0,2.43-.54,4.53,4.53,0,0,0,0-4.8,4.06,4.06,0,0,0-2.43-.54H310a1.27,1.27,0,0,0-1,.39,1.29,1.29,0,0,0-.38.94V975Z" transform="translate(-0.38 -892)"/><path class="cls-3" d="M333,963.07h6.23a1.48,1.48,0,0,1,1.48,1l3.19,8c0.21,0.46.42,0.46,0.61,0l3.19-8a1.47,1.47,0,0,1,1.48-1h6.19a1.18,1.18,0,0,1,1,.42,0.88,0.88,0,0,1,.12.46,1.7,1.7,0,0,1-.15.63l-7.75,17.3a1.33,1.33,0,0,0-.08.53v9.65a1.14,1.14,0,0,1-1.29,1.29h-6.06a1.14,1.14,0,0,1-1.29-1.29v-9.65a1.24,1.24,0,0,0-.08-0.53L332,964.59a1.53,1.53,0,0,1-.17-0.63,1,1,0,0,1,.15-0.46A1.18,1.18,0,0,1,333,963.07Z" transform="translate(-0.38 -892)"/><path class="cls-3" d="M194.39,1086.39v-18l0.13-.25q0.13-.37.31-1a12.22,12.22,0,0,0,.31-1.31l11-21.91q1.56-3.06,4.38-3.07h14.08a3.8,3.8,0,0,1,3.16,1.22,2.82,2.82,0,0,1,0,3.16L217,1066.8c-0.25,1,.1,1.42,1.06,1.38h12.52q3.82,0,3.88-3.82v-31.79q0-3.81,3.82-3.88h14.4q3.81,0,3.82,3.88v31.79q0,3.82,3.88,3.82h1.5q3.82,0,3.88,3.88v14.33q0,3.82-3.88,3.82h-1.5q-3.82,0-3.88,3.88v23.09q0,3.82-3.82,3.82h-14.4q-3.82,0-3.82-3.82v-23.09q0-3.82-3.88-3.88H198.21Q194.39,1090.21,194.39,1086.39Z" transform="translate(-0.38 -892)"/></svg>