<svg id="Layer_1" data-name="Layer 1" xmlns="http://www.w3.org/2000/svg" viewBox="0 0 463.58 288.82"><defs><style>.cls-1{fill:#f7901e;}.cls-2{fill:#fff;}.cls-3{fill:#231f20;}</style></defs><title>category3</title><path class="cls-1" d="M419.44,652.4A32.9,32.9,0,0,0,449,685.09v20.72a32.85,32.85,0,0,0,0,65.37v20.72a32.85,32.85,0,0,0,0,65.37v11.87H12.9V857.33a32.81,32.81,0,0,0,0-65.47V771.23a32.81,32.81,0,0,0,0-65.46V685.14a32.81,32.81,0,0,0,0-65.46V607.84H449v11.88A32.9,32.9,0,0,0,419.44,652.4Z" transform="translate(0.86 -594.09)"/><path d="M-0.86,594.09V633.3H10.56a19.55,19.55,0,0,1,2.34.15,19.09,19.09,0,0,1,0,37.9,19.76,19.76,0,0,1-2.34.15H-0.86V719.4H10.56a19.1,19.1,0,0,1,2.34,38.05,20.17,20.17,0,0,1-2.34.15H-0.86v47.89H10.56a19.34,19.34,0,0,1,2.34.16,19.09,19.09,0,0,1,0,37.9,19.74,19.74,0,0,1-2.34.15H-0.86v39.21H462.73V843.7H452.29a19.59,19.59,0,0,1-3.32-.31,19.08,19.08,0,0,1,0-37.59,20,20,0,0,1,3.32-.3h10.44V757.6H452.29a19.91,19.91,0,0,1-3.32-.31,19.08,19.08,0,0,1,0-37.59,20.12,20.12,0,0,1,3.32-.3h10.44V671.51H452.29a19.59,19.59,0,0,1-3.32-.31,19.08,19.08,0,0,1,0-37.59,20,20,0,0,1,3.32-.3h10.44V594.09H-0.86ZM419.44,652.4A32.9,32.9,0,0,0,449,685.09v20.72a32.85,32.85,0,0,0,0,65.37v20.72a32.85,32.85,0,0,0,0,65.37v11.87H12.9V857.33a32.81,32.81,0,0,0,0-65.47V771.23a32.81,32.81,0,0,0,0-65.46V685.14a32.81,32.81,0,0,0,0-65.46V607.84H449v11.88A32.9,32.9,0,0,0,419.44,652.4Z" transform="translate(0.86 -594.09)"/><path class="cls-2" d="M191.74,782.61a2,2,0,0,1-2,2h-3.48v3.58a2,2,0,0,1-4,0v-3.58h-3.68a2,2,0,1,1,0-4h3.68V777a2,2,0,0,1,4,0v3.57h3.48A2,2,0,0,1,191.74,782.61Z" transform="translate(0.86 -594.09)"/><circle class="cls-2" cx="171.03" cy="198.6" r="3.87"/><path d="M171.28,791.88a3.42,3.42,0,1,1-3.42-3.42A3.41,3.41,0,0,1,171.28,791.88Z" transform="translate(0.86 -594.09)"/><path class="cls-2" d="M194,810.85a1.87,1.87,0,0,1-1,1.61l-3.37,1.82a2.14,2.14,0,0,0-.53.53l-1.93,3.47a1.78,1.78,0,0,1-3.21,0l-1.88-3.42a1.79,1.79,0,0,0-.55-0.53l-3.41-1.87a1.87,1.87,0,0,1-1-1.61,1.85,1.85,0,0,1,1-1.6l3.47-1.92a2.07,2.07,0,0,0,.53-0.54l1.84-3.36a1.82,1.82,0,0,1,1.6-1,1.85,1.85,0,0,1,1.61,1l1.87,3.42a2.25,2.25,0,0,0,.53.53l3.43,1.88A1.85,1.85,0,0,1,194,810.85Z" transform="translate(0.86 -594.09)"/><path d="M184.37,816.06a1.83,1.83,0,0,1-1.6-1l-1.5-2.72a1.92,1.92,0,0,0-.53-0.54l-2.73-1.5a1.78,1.78,0,0,1,0-3.21l2.77-1.54a2.15,2.15,0,0,0,.53-0.53l1.46-2.69a1.78,1.78,0,0,1,3.21,0l1.5,2.72a1.79,1.79,0,0,0,.53.53l2.73,1.51a1.77,1.77,0,0,1,0,3.2L188,811.75a1.82,1.82,0,0,0-.53.54L186,815.06A1.84,1.84,0,0,1,184.37,816.06Zm-3.52-7.38,1.22,0.67A4.51,4.51,0,0,1,183.7,811l0.67,1.22,0.71-1.27a4.59,4.59,0,0,1,1.63-1.62l1.16-.63-1.21-.66a4.6,4.6,0,0,1-1.63-1.63l-0.66-1.2-0.62,1.16a4.6,4.6,0,0,1-1.62,1.63Z" transform="translate(0.86 -594.09)"/><path class="cls-2" d="M286.65,766.49a2,2,0,0,1-2,2h-3.47v3.58a2,2,0,1,1-4,0v-3.58h-3.69a2,2,0,0,1,0-4h3.69v-3.58a2,2,0,0,1,4,0v3.58h3.47A2,2,0,0,1,286.65,766.49Z" transform="translate(0.86 -594.09)"/><circle class="cls-2" cx="295.34" cy="159.92" r="3.87"/><path d="M295.59,753.19a3.42,3.42,0,1,1-3.42-3.42A3.41,3.41,0,0,1,295.59,753.19Z" transform="translate(0.86 -594.09)"/><path class="cls-2" d="M284.06,741.68a1.82,1.82,0,0,1-1,1.59l-3.36,1.84a1.92,1.92,0,0,0-.53.53l-1.93,3.47a1.78,1.78,0,0,1-3.21,0l-1.88-3.42a1.91,1.91,0,0,0-.54-0.53l-3.41-1.88a1.78,1.78,0,0,1,0-3.2l3.48-1.93a2.06,2.06,0,0,0,.53-0.53l1.83-3.36a1.83,1.83,0,0,1,1.59-1,1.86,1.86,0,0,1,1.61,1l1.87,3.41a1.9,1.9,0,0,0,.53.53l3.43,1.89A1.83,1.83,0,0,1,284.06,741.68Z" transform="translate(0.86 -594.09)"/><path d="M274,746.8a1.83,1.83,0,0,1-1.6-1l-1.5-2.72a2.06,2.06,0,0,0-.54-0.54l-2.72-1.5a1.78,1.78,0,0,1,0-3.2l2.78-1.54a2,2,0,0,0,.53-0.54l1.46-2.68a1.77,1.77,0,0,1,3.2,0l1.5,2.73a2,2,0,0,0,.53.53l2.73,1.51a1.78,1.78,0,0,1,0,3.2l-2.68,1.47a1.85,1.85,0,0,0-.53.53l-1.55,2.78A1.83,1.83,0,0,1,274,746.8Zm-3.52-7.38,1.22,0.67a4.55,4.55,0,0,1,1.63,1.63l0.68,1.22,0.71-1.27a4.52,4.52,0,0,1,1.63-1.62l1.15-.63-1.2-.67a4.52,4.52,0,0,1-1.63-1.63l-0.66-1.2-0.63,1.16a4.61,4.61,0,0,1-1.62,1.63Z" transform="translate(0.86 -594.09)"/><path class="cls-2" d="M103,689V678.09a18.6,18.6,0,0,1,.13-2.23,11.59,11.59,0,0,1,.76-2.7,7.66,7.66,0,0,1,5-4.78,13.89,13.89,0,0,1,5.06-.84,14.22,14.22,0,0,1,4.65.69,9.37,9.37,0,0,1,3.13,1.69,8,8,0,0,1,1.85,2.39,10.77,10.77,0,0,1,1,2.48,12.69,12.69,0,0,1,.29,2.3,1,1,0,0,1-1,1.21L119,679.4a1.36,1.36,0,0,1-1.16-.26,1.57,1.57,0,0,1-.58-1.09,3.75,3.75,0,0,0-.91-2.28,3.33,3.33,0,0,0-2.44-.75q-2.21,0-2.82,1.24a10.08,10.08,0,0,0-.62,4.15v6.26a10.1,10.1,0,0,0,.62,4.15q0.62,1.24,2.82,1.24a3.11,3.11,0,0,0,2.39-.76,4.47,4.47,0,0,0,.92-2.38,1.49,1.49,0,0,1,.56-1.06,1.23,1.23,0,0,1,1.11-.19l4.92,1.08a1.06,1.06,0,0,1,1,1.25,12.92,12.92,0,0,1-.29,2.28,10.25,10.25,0,0,1-1,2.48,8.1,8.1,0,0,1-1.85,2.37,9.5,9.5,0,0,1-3.13,1.7,14.06,14.06,0,0,1-4.65.7,13.76,13.76,0,0,1-5.06-.85,8.83,8.83,0,0,1-3.23-2,8.63,8.63,0,0,1-1.72-2.78,11.39,11.39,0,0,1-.76-2.69A18.84,18.84,0,0,1,103,689Z" transform="translate(0.86 -594.09)"/><path class="cls-2" d="M136.18,678.83a31.48,31.48,0,0,1,.15-3.3,11.62,11.62,0,0,1,.79-3,7,7,0,0,1,1.74-2.63,8.48,8.48,0,0,1,3.13-1.69,17.86,17.86,0,0,1,9.69,0,8.48,8.48,0,0,1,3.12,1.69,6.94,6.94,0,0,1,1.72,2.63,12.2,12.2,0,0,1,.78,3,29.35,29.35,0,0,1,.16,3.3v18.42a1.26,1.26,0,0,1-1.31,1.49h-4.85a1.15,1.15,0,0,1-1.31-1.3v-3.8a1.14,1.14,0,0,0-1.29-1.3H145a1.15,1.15,0,0,0-1.32,1.3v3.8a1.15,1.15,0,0,1-1.3,1.3H137.5a1.25,1.25,0,0,1-1.32-1.49V678.83Zm8.79,6h3.73a1.21,1.21,0,0,0,1.29-1.36v-4.69a3.84,3.84,0,0,0-.58-2.43,3.43,3.43,0,0,0-2.58-.69,3.47,3.47,0,0,0-2.59.69,3.78,3.78,0,0,0-.59,2.43v4.73A1.17,1.17,0,0,0,145,684.88Z" transform="translate(0.86 -594.09)"/><path class="cls-2" d="M167.67,669.62A1.17,1.17,0,0,1,169,668.3h22.24a1.18,1.18,0,0,1,1.32,1.31v4.85a1.17,1.17,0,0,1-1.32,1.31h-6.07a1.15,1.15,0,0,0-1.32,1.29v20.35a1.14,1.14,0,0,1-1.29,1.3h-4.86a1.15,1.15,0,0,1-1.31-1.3V677.07a1.14,1.14,0,0,0-1.29-1.29H169a1.17,1.17,0,0,1-1.32-1.31v-4.85Z" transform="translate(0.86 -594.09)"/><path class="cls-2" d="M203.82,669.62a1.18,1.18,0,0,1,1.32-1.32h18.25a1.17,1.17,0,0,1,1.3,1.32v4.86a1.15,1.15,0,0,1-1.3,1.32H212.86a1.14,1.14,0,0,0-1.3,1.29v1.4a1.15,1.15,0,0,0,1.3,1.3h6.75a1.16,1.16,0,0,1,1.29,1.32V686a1.14,1.14,0,0,1-1.29,1.29h-6.75a1.17,1.17,0,0,0-1.3,1.32v1.38a1.16,1.16,0,0,0,1.3,1.32h10.53a1.14,1.14,0,0,1,1.3,1.29v4.88a1.15,1.15,0,0,1-1.3,1.3H205.13a1.15,1.15,0,0,1-1.32-1.3V669.62Z" transform="translate(0.86 -594.09)"/><path class="cls-2" d="M236.28,689V678.09a18.9,18.9,0,0,1,.13-2.23,11.59,11.59,0,0,1,.76-2.7,8.56,8.56,0,0,1,1.72-2.79,8.68,8.68,0,0,1,3.23-2,13.89,13.89,0,0,1,5.06-.84,14.46,14.46,0,0,1,4.61.67,9.34,9.34,0,0,1,3.11,1.62,8,8,0,0,1,1.85,2.32,10.46,10.46,0,0,1,1,2.45,12.16,12.16,0,0,1,.32,2.4,1.25,1.25,0,0,1-1.12,1.34l-4.92,1.1a2.06,2.06,0,0,1-.38,0,1.06,1.06,0,0,1-1-1.19,4,4,0,0,0-.87-2.5,3.34,3.34,0,0,0-2.52-.79q-2.21,0-2.82,1.24a10.1,10.1,0,0,0-.61,4.15v6.26a10.11,10.11,0,0,0,.61,4.15q0.62,1.24,2.82,1.24a4.6,4.6,0,0,0,1.89-.33,2.11,2.11,0,0,0,1.05-1,4.41,4.41,0,0,0,.41-1.28,11.42,11.42,0,0,0,.09-1.56H248.1a1.14,1.14,0,0,1-1.29-1.29V683.1a1.16,1.16,0,0,1,1.29-1.32h8.7a1.15,1.15,0,0,1,1.29,1.32V689a19.15,19.15,0,0,1-.13,2.24,11.5,11.5,0,0,1-.76,2.69,8.62,8.62,0,0,1-1.72,2.78,8.82,8.82,0,0,1-3.23,2,15.52,15.52,0,0,1-10.12,0,8.81,8.81,0,0,1-3.23-2,8.56,8.56,0,0,1-1.72-2.78,11.4,11.4,0,0,1-.76-2.69A19.15,19.15,0,0,1,236.28,689Z" transform="translate(0.86 -594.09)"/><path class="cls-2" d="M270.16,689V678.09a18.68,18.68,0,0,1,.13-2.23,11.63,11.63,0,0,1,.76-2.7,7.66,7.66,0,0,1,5-4.78,15.67,15.67,0,0,1,10.12,0,8.68,8.68,0,0,1,3.23,2,8.56,8.56,0,0,1,1.72,2.79,11.6,11.6,0,0,1,.76,2.7,18.89,18.89,0,0,1,.13,2.23V689a19.14,19.14,0,0,1-.13,2.24,11.4,11.4,0,0,1-.76,2.69,8.56,8.56,0,0,1-1.72,2.78,8.82,8.82,0,0,1-3.23,2,15.52,15.52,0,0,1-10.12,0,8.81,8.81,0,0,1-3.24-2,8.62,8.62,0,0,1-1.72-2.78,11.43,11.43,0,0,1-.76-2.69A18.93,18.93,0,0,1,270.16,689Zm7.47-2.29a10.07,10.07,0,0,0,.62,4.15q0.61,1.24,2.82,1.24t2.82-1.24a10.13,10.13,0,0,0,.61-4.15V680.4a10.11,10.11,0,0,0-.61-4.15q-0.62-1.24-2.82-1.24t-2.82,1.24a10.06,10.06,0,0,0-.62,4.15v6.26Z" transform="translate(0.86 -594.09)"/><path class="cls-2" d="M304.55,697.4V669.66a1.34,1.34,0,0,1,1.36-1.36h9.51q5.73,0,8.3,2.52t2.57,7.9q0,6.18-3.29,8.52a0.47,0.47,0,0,0-.12.57l4.6,8.56a1.61,1.61,0,0,1,.23.87,1.44,1.44,0,0,1-.21.74,1.6,1.6,0,0,1-1.46.75h-4.94a1,1,0,0,1-1-.62l-4.53-8.73a0.45,0.45,0,0,0-.36-0.23h-1.75a1.27,1.27,0,0,0-1,.39,1.32,1.32,0,0,0-.38,1v6.88a1.28,1.28,0,0,1-.39,1,1.32,1.32,0,0,1-1,.38h-4.85a1.32,1.32,0,0,1-1-.38A1.27,1.27,0,0,1,304.55,697.4Zm7.56-17.06a1.27,1.27,0,0,0,.39,1,1.3,1.3,0,0,0,.95.38h2.24a4.08,4.08,0,0,0,2.44-.54,4.55,4.55,0,0,0,0-4.82,4.08,4.08,0,0,0-2.44-.54h-2.24a1.28,1.28,0,0,0-1,.39,1.3,1.3,0,0,0-.38.95v3.23Z" transform="translate(0.86 -594.09)"/><path class="cls-2" d="M336.5,668.3h6.26a1.49,1.49,0,0,1,1.48,1l3.2,8.06c0.21,0.47.42,0.47,0.62,0l3.21-8.06a1.48,1.48,0,0,1,1.49-1H359a1.21,1.21,0,0,1,1,.42,0.89,0.89,0,0,1,.13.47,1.7,1.7,0,0,1-.15.64l-7.79,17.38a1.3,1.3,0,0,0-.08.53v9.7a1.15,1.15,0,0,1-1.29,1.3h-6.09a1.14,1.14,0,0,1-1.29-1.3v-9.7a1.25,1.25,0,0,0-.08-0.53l-7.83-17.38a1.53,1.53,0,0,1-.17-0.64,1,1,0,0,1,.15-0.47A1.2,1.2,0,0,1,336.5,668.3Z" transform="translate(0.86 -594.09)"/><path class="cls-3" d="M99.74,686.14V675.27a18.78,18.78,0,0,1,.13-2.23,11.63,11.63,0,0,1,.76-2.69,8.64,8.64,0,0,1,1.72-2.79,8.73,8.73,0,0,1,3.23-2,13.93,13.93,0,0,1,5.06-.84,14.2,14.2,0,0,1,4.65.69,9.31,9.31,0,0,1,3.13,1.69,8,8,0,0,1,1.85,2.39,10.79,10.79,0,0,1,1,2.48,12.59,12.59,0,0,1,.29,2.3,1,1,0,0,1-1,1.21l-4.82,1.1a1.36,1.36,0,0,1-1.16-.26,1.57,1.57,0,0,1-.58-1.09,3.74,3.74,0,0,0-.91-2.28,3.33,3.33,0,0,0-2.44-.76q-2.21,0-2.82,1.24a10.06,10.06,0,0,0-.62,4.15v6.26a10.08,10.08,0,0,0,.62,4.15q0.62,1.24,2.82,1.24a3.12,3.12,0,0,0,2.39-.76,4.48,4.48,0,0,0,.92-2.38,1.49,1.49,0,0,1,.56-1.06,1.23,1.23,0,0,1,1.11-.19l4.92,1.08a1.06,1.06,0,0,1,1,1.25,12.78,12.78,0,0,1-.29,2.28,10.2,10.2,0,0,1-1,2.48,8.09,8.09,0,0,1-1.85,2.37,9.53,9.53,0,0,1-3.13,1.7,14.06,14.06,0,0,1-4.65.7,13.78,13.78,0,0,1-5.06-.85,8.81,8.81,0,0,1-3.23-2,8.61,8.61,0,0,1-1.72-2.78,11.42,11.42,0,0,1-.76-2.69A19.06,19.06,0,0,1,99.74,686.14Z" transform="translate(0.86 -594.09)"/><path class="cls-3" d="M133,676a31.51,31.51,0,0,1,.15-3.3,11.6,11.6,0,0,1,.79-3,7,7,0,0,1,1.74-2.63,8.49,8.49,0,0,1,3.13-1.69,17.87,17.87,0,0,1,9.69,0,8.48,8.48,0,0,1,3.12,1.69,6.94,6.94,0,0,1,1.72,2.63,12.17,12.17,0,0,1,.78,3,29.36,29.36,0,0,1,.16,3.3v18.42a1.25,1.25,0,0,1-1.31,1.49h-4.85a1.15,1.15,0,0,1-1.31-1.29v-3.8a1.14,1.14,0,0,0-1.29-1.3h-3.73a1.15,1.15,0,0,0-1.32,1.3v3.8a1.14,1.14,0,0,1-1.3,1.29h-4.86a1.24,1.24,0,0,1-1.32-1.49V676Zm8.79,6h3.73a1.21,1.21,0,0,0,1.29-1.36V676a3.84,3.84,0,0,0-.58-2.43,3.44,3.44,0,0,0-2.58-.69,3.48,3.48,0,0,0-2.59.69,3.78,3.78,0,0,0-.59,2.43v4.73A1.17,1.17,0,0,0,141.75,682.06Z" transform="translate(0.86 -594.09)"/><path class="cls-3" d="M164.45,666.8a1.17,1.17,0,0,1,1.32-1.31H188a1.18,1.18,0,0,1,1.32,1.31v4.85A1.17,1.17,0,0,1,188,673h-6.07a1.15,1.15,0,0,0-1.32,1.29V694.6a1.14,1.14,0,0,1-1.29,1.3h-4.86a1.15,1.15,0,0,1-1.32-1.3V674.25a1.14,1.14,0,0,0-1.29-1.29h-6.09a1.17,1.17,0,0,1-1.32-1.31V666.8Z" transform="translate(0.86 -594.09)"/><path class="cls-3" d="M200.6,666.8a1.18,1.18,0,0,1,1.32-1.32h18.25a1.17,1.17,0,0,1,1.3,1.32v4.86a1.15,1.15,0,0,1-1.3,1.31H209.64a1.14,1.14,0,0,0-1.3,1.3v1.4a1.14,1.14,0,0,0,1.3,1.29h6.75a1.16,1.16,0,0,1,1.29,1.32v4.86a1.14,1.14,0,0,1-1.29,1.29h-6.75a1.17,1.17,0,0,0-1.3,1.32v1.38a1.16,1.16,0,0,0,1.3,1.32h10.53a1.14,1.14,0,0,1,1.3,1.29v4.88a1.14,1.14,0,0,1-1.3,1.29H201.92a1.15,1.15,0,0,1-1.32-1.29V666.8Z" transform="translate(0.86 -594.09)"/><path class="cls-3" d="M233.06,686.14V675.27a18.87,18.87,0,0,1,.13-2.23,11.56,11.56,0,0,1,.76-2.69,8.57,8.57,0,0,1,1.72-2.79,8.71,8.71,0,0,1,3.23-2,13.93,13.93,0,0,1,5.06-.84,14.48,14.48,0,0,1,4.61.67,9.29,9.29,0,0,1,3.11,1.62,8,8,0,0,1,1.85,2.32,10.44,10.44,0,0,1,1,2.45,12.16,12.16,0,0,1,.32,2.4,1.25,1.25,0,0,1-1.12,1.34l-4.92,1.1a2,2,0,0,1-.38,0,1.06,1.06,0,0,1-1-1.19,4,4,0,0,0-.87-2.5,3.34,3.34,0,0,0-2.52-.8q-2.21,0-2.82,1.24a10.09,10.09,0,0,0-.61,4.15v6.26a10.1,10.1,0,0,0,.61,4.15q0.62,1.24,2.82,1.24a4.58,4.58,0,0,0,1.89-.33,2.1,2.1,0,0,0,1-1,4.4,4.4,0,0,0,.41-1.28,11.61,11.61,0,0,0,.08-1.56h-2.53a1.14,1.14,0,0,1-1.29-1.29v-3.48a1.17,1.17,0,0,1,1.29-1.32h8.7a1.15,1.15,0,0,1,1.29,1.32v5.86a18.76,18.76,0,0,1-.13,2.24,11.38,11.38,0,0,1-.76,2.69,8.59,8.59,0,0,1-1.72,2.78,8.78,8.78,0,0,1-3.24,2,15.5,15.5,0,0,1-10.12,0,8.78,8.78,0,0,1-3.23-2,8.54,8.54,0,0,1-1.72-2.78,11.36,11.36,0,0,1-.76-2.69A19.16,19.16,0,0,1,233.06,686.14Z" transform="translate(0.86 -594.09)"/><path class="cls-3" d="M266.94,686.14V675.27a18.69,18.69,0,0,1,.13-2.23,11.55,11.55,0,0,1,.76-2.69,8.6,8.6,0,0,1,1.72-2.79,8.7,8.7,0,0,1,3.24-2,15.69,15.69,0,0,1,10.12,0,8.72,8.72,0,0,1,3.23,2,8.6,8.6,0,0,1,1.72,2.79,11.6,11.6,0,0,1,.76,2.69,18.67,18.67,0,0,1,.13,2.23v10.87a19,19,0,0,1-.13,2.24,11.39,11.39,0,0,1-.76,2.69,8.57,8.57,0,0,1-1.72,2.78,8.79,8.79,0,0,1-3.23,2,15.5,15.5,0,0,1-10.12,0,8.78,8.78,0,0,1-3.24-2,8.57,8.57,0,0,1-1.72-2.78,11.34,11.34,0,0,1-.76-2.69A19,19,0,0,1,266.94,686.14Zm7.47-2.29A10.09,10.09,0,0,0,275,688q0.62,1.24,2.82,1.24t2.82-1.24a10.11,10.11,0,0,0,.61-4.15v-6.26a10.09,10.09,0,0,0-.61-4.15q-0.62-1.24-2.82-1.24T275,673.43a10.07,10.07,0,0,0-.61,4.15v6.26Z" transform="translate(0.86 -594.09)"/><path class="cls-3" d="M301.33,694.58V666.84a1.34,1.34,0,0,1,1.36-1.36h9.51q5.73,0,8.3,2.52t2.57,7.9q0,6.18-3.29,8.52a0.47,0.47,0,0,0-.13.57l4.61,8.56a1.59,1.59,0,0,1,.23.87,1.44,1.44,0,0,1-.21.74,1.6,1.6,0,0,1-1.46.75h-4.94a1,1,0,0,1-1-.62l-4.53-8.73a0.45,0.45,0,0,0-.36-0.23h-1.75a1.27,1.27,0,0,0-1,.39,1.33,1.33,0,0,0-.38,1v6.88a1.28,1.28,0,0,1-.39,1,1.32,1.32,0,0,1-1,.38h-4.84a1.32,1.32,0,0,1-1-.38A1.28,1.28,0,0,1,301.33,694.58Zm7.55-17.06a1.28,1.28,0,0,0,.39,1,1.31,1.31,0,0,0,.95.38h2.24a4.08,4.08,0,0,0,2.44-.54,4.54,4.54,0,0,0,0-4.82,4.07,4.07,0,0,0-2.44-.54h-2.24a1.28,1.28,0,0,0-1,.39,1.3,1.3,0,0,0-.38.95v3.23Z" transform="translate(0.86 -594.09)"/><path class="cls-3" d="M333.28,665.49h6.26a1.49,1.49,0,0,1,1.48,1l3.21,8.06c0.21,0.47.42,0.47,0.62,0l3.21-8.06a1.48,1.48,0,0,1,1.48-1h6.22a1.21,1.21,0,0,1,1,.42,0.9,0.9,0,0,1,.13.47,1.71,1.71,0,0,1-.15.64L349,684.4a1.32,1.32,0,0,0-.08.53v9.7a1.14,1.14,0,0,1-1.3,1.29H341.5a1.14,1.14,0,0,1-1.3-1.29v-9.7a1.25,1.25,0,0,0-.09-0.53L332.29,667a1.54,1.54,0,0,1-.17-0.64,1,1,0,0,1,.15-0.47A1.2,1.2,0,0,1,333.28,665.49Z" transform="translate(0.86 -594.09)"/><path d="M198.89,799.95a3.85,3.85,0,0,1,3.31-4.27l14.57-3.21q3.56-.75,4.25,3.21,1.44,8.61,9.93,8.68a7,7,0,0,0,6.16-3.24,6.53,6.53,0,0,0,.25-7.07q-3-5.53-12.64-6.73-3.84-.41-3.84-4.2v-9.57q0-3.79,3.84-4.27,9.68-1,12.64-6,2.08-3.48-.19-6.42a7.43,7.43,0,0,0-6.22-2.94q-8.49,0-9.93,7.82-0.63,3.6-4.25,2.87l-14.57-3.1a3.7,3.7,0,0,1-3.31-4.13,35.43,35.43,0,0,1,1-6.14,25.71,25.71,0,0,1,3-6.65,24.71,24.71,0,0,1,5.51-6.41,27.34,27.34,0,0,1,9.11-4.53A44.53,44.53,0,0,1,231,731.73q14.83,0,22.67,8a27.2,27.2,0,0,1,4.24,31.21,18.22,18.22,0,0,1-6.1,6.7q-1.58.69,0,1.38a20.78,20.78,0,0,1,6.07,7.11,26.71,26.71,0,0,1,3.11,11.83q0.5,12.09-7.36,20.33T231,826.48a42.57,42.57,0,0,1-13.44-1.95,27.39,27.39,0,0,1-9.11-4.72,25.33,25.33,0,0,1-5.51-6.63,27,27,0,0,1-3-6.89A37.79,37.79,0,0,1,198.89,799.95Z" transform="translate(0.86 -594.09)"/></svg>