<svg id="coffee_cup" data-name="coffee cup" xmlns="http://www.w3.org/2000/svg" viewBox="0 0 250.54 349.43"><defs><style>.cls-1{fill:#fff;}.cls-2{fill:#231f20;}</style></defs><title>coffeecupswag</title><path class="cls-1" d="M461.07,209.94a11.76,11.76,0,0,1,2.62,9.5l-6.76,41a11.73,11.73,0,0,1-11.58,9.81h-4.53L429.4,495.46a11.8,11.8,0,0,1-11.74,11.15H275.56a11.78,11.78,0,0,1-11.72-11.15l-11.43-225.2h-4.53a11.72,11.72,0,0,1-11.58-9.81l-6.76-41a11.67,11.67,0,0,1,11.58-13.61h0.06l5.21-33.39A11.78,11.78,0,0,1,258,162.5H435.22a11.77,11.77,0,0,1,11.61,9.93L452,205.83h0.09A11.76,11.76,0,0,1,461.07,209.94Zm-25.66,36.87,2.86-17.53H255l2.85,17.53H435.41Zm-7.15-41L425.17,186H268.06L265,205.83h163.3ZM414.34,329.24l3-59H275.92l3,59H414.34Zm-4.85,95.36,3.63-71.91h-133l3.63,71.91H409.49Zm-3,58.54,1.76-35.07H285l1.76,35.07H406.52Z" transform="translate(-213.3 -157.18)"/><polygon class="cls-1" points="224.98 72.1 222.11 89.63 44.51 89.63 41.66 72.1 224.98 72.1"/><polygon class="cls-1" points="211.87 28.77 214.97 48.64 51.67 48.64 54.76 28.77 211.87 28.77"/><polygon class="cls-1" points="204.02 113.08 201.04 172.05 65.59 172.05 62.62 113.08 204.02 113.08"/><polygon class="cls-1" points="199.83 195.51 196.19 267.42 70.44 267.42 66.81 195.51 199.83 195.51"/><polygon class="cls-1" points="194.98 290.89 193.22 325.96 73.41 325.96 71.66 290.89 194.98 290.89"/><path class="cls-2" d="M445,204.62a11.76,11.76,0,0,1,2.62,9.5l-6.76,41a11.73,11.73,0,0,1-11.58,9.81h-4.53l-11.41,225.2a11.8,11.8,0,0,1-11.74,11.15H259.46a11.78,11.78,0,0,1-11.72-11.15l-11.43-225.2h-4.53a11.72,11.72,0,0,1-11.58-9.81l-6.76-41A11.67,11.67,0,0,1,225,200.51h0.06l5.21-33.39a11.78,11.78,0,0,1,11.61-9.93H419.13a11.77,11.77,0,0,1,11.61,9.93l5.19,33.39H436A11.76,11.76,0,0,1,445,204.62Zm-25.66,36.87L422.18,224H238.86l2.85,17.53H419.31Zm-7.15-41-3.1-19.87H252l-3.1,19.87h163.3ZM398.24,323.92l3-59H259.82l3,59H398.24Zm-4.85,95.36L397,347.37H264l3.63,71.91H393.39Zm-3,58.54,1.76-35.07H268.86l1.76,35.07H390.42Z" transform="translate(-213.3 -157.18)"/><polygon class="cls-1" points="208.88 66.78 206.02 84.31 28.41 84.31 25.56 66.78 208.88 66.78"/><polygon class="cls-1" points="195.77 23.46 198.87 43.32 35.57 43.32 38.67 23.46 195.77 23.46"/><polygon class="cls-1" points="187.92 107.76 184.95 166.73 49.49 166.73 46.52 107.76 187.92 107.76"/><polygon class="cls-1" points="183.73 190.19 180.1 262.1 54.34 262.1 50.71 190.19 183.73 190.19"/><polygon class="cls-1" points="178.88 285.57 177.12 320.64 57.32 320.64 55.56 285.57 178.88 285.57"/></svg>