<svg id="cozie" xmlns="http://www.w3.org/2000/svg" viewBox="0 0 242.58 392.54"><defs><style>.cls-1{fill:#fff;}.cls-2{fill:#231f20;}</style></defs><title>cozieswag</title><path class="cls-1" d="M490.3,201.62V422.35c0,32.23-17.51,61.54-49.67,74.51-23.52,9.46-49.38,10.87-62.7,10.87s-39.63-1.42-63.61-10.87c-41.48-16.36-49.67-52-49.67-74.51V201.62c0-21.45,27.14-26.06,32.59-26.8,0.25,0,.49,0,0.74,0,1.2-1.8,2.45-3.4,3.62-4.9,1.74-2.25,4.68-6,4.84-7.41,0-4.07.43-8.09,0.77-11.61,0.08-.8.18-1.63,0.23-2.39-3.73-4.57-3.82-8.87-3-12a10.58,10.58,0,0,1,6.7-7.48c5.58-2.94,27.38-13.11,66.32-13.11S438.08,126,443.75,129a10.6,10.6,0,0,1,6.81,7.48c0.82,3.16.79,7.59-3,12.27,0.06,0.69.12,1.39,0.22,2.11a116,116,0,0,1,.77,11.64c0.17,1.36,3.08,5.13,4.84,7.38,1.16,1.49,2.42,3.1,3.63,4.9,0.23,0,.46,0,0.71,0C463.14,175.56,490.3,180.17,490.3,201.62ZM471.93,422.35V202c-0.89-1.36-3.9-3-7.53-4.3-2.4,31-71.86,32.64-86,32.64-14.42,0-85.41-1.59-87.83-32.68-3.65,1.32-6.62,3-7.5,4.34V215.9a0.26,0.26,0,0,1,0-.11,3.91,3.91,0,0,1,0,.49V215.9c0.26,1.83,5.48,27.41,75.19,27.41,5.08,0,9.18,4.68,9.18,10.4s-4.1,10.4-9.18,10.4c-39.18,0-62-8-75.19-17.43V422.35c0,23.22,12.37,39.41,37.86,49.45,22.21,8.78,47.65,9.7,57.54,9.7C400.38,481.51,471.93,477.25,471.93,422.35Zm-25.86-227c-0.34-3.67-3.36-7.58-6.55-11.67-4.42-5.68-9.41-12.14-9.41-21.1,0-.86,0-1.74-0.06-2.63-10.41,4.05-26.86,8-51.67,8-25.69,0-42.75-4.11-53.47-8.38-0.06,1-.09,2.08-0.09,3,0,9-5,15.42-9.41,21.1-3.14,4.05-6.11,7.9-6.51,11.58,4,5.36,29.55,14.34,69.49,14.34C419.46,209.55,442.59,200.34,446.07,195.31Zm-26.43-53.49c-9.7-2.68-23.73-5.1-42.17-5.1-18,0-31.8,2.31-41.54,4.91,9,2.8,22.67,5.44,42.45,5.44C397.77,147.07,411,144.51,419.64,141.82Z" transform="translate(-247.72 -115.91)"/><path class="cls-1" d="M471.93,202V422.35c0,54.91-71.55,59.16-93.49,59.16-9.89,0-35.33-.92-57.54-9.7-25.49-10-37.86-26.23-37.86-49.45V246.67c13.23,9.46,36,17.43,75.19,17.43,5.08,0,9.18-4.65,9.18-10.4s-4.1-10.4-9.18-10.4c-69.71,0-74.93-25.58-75.19-27.41V202c0.88-1.39,3.85-3,7.5-4.34,2.42,31.09,73.42,32.68,87.83,32.68,14.15,0,83.61-1.59,86-32.64C468,199,471,200.65,471.93,202Z" transform="translate(-247.72 -115.91)"/><path class="cls-1" d="M439.53,183.63c3.19,4.1,6.21,8,6.55,11.67-3.48,5-26.61,14.25-67.69,14.25-39.94,0-65.49-9-69.49-14.34,0.4-3.68,3.37-7.53,6.51-11.58,4.42-5.68,9.41-12.14,9.41-21.1,0-1,0-2,.09-3,10.72,4.27,27.78,8.38,53.47,8.38,24.81,0,41.26-3.91,51.67-8,0,0.89.06,1.77,0.06,2.63C430.12,171.5,435.11,177.95,439.53,183.63Z" transform="translate(-247.72 -115.91)"/><path class="cls-1" d="M377.48,136.72c18.44,0,32.47,2.42,42.17,5.1-8.61,2.7-21.87,5.25-41.26,5.25-19.78,0-33.47-2.63-42.45-5.44C345.67,139,359.49,136.72,377.48,136.72Z" transform="translate(-247.72 -115.91)"/><path class="cls-1" d="M283.05,215.9v0.39a3.91,3.91,0,0,0,0-.49A0.26,0.26,0,0,0,283.05,215.9Z" transform="translate(-247.72 -115.91)"/><path class="cls-2" d="M473.36,207.78V428.51c0,32.23-17,56.11-49.16,69.07-23.52,9.46-49.38,10.87-62.7,10.87S321.88,507,297.9,497.58c-41.48-16.36-50.18-46.57-50.18-69.07V207.78c0-21.45,27.14-26.06,32.59-26.8,0.25,0,.49,0,0.74,0,1.2-1.8,2.45-3.4,3.62-4.9,1.74-2.25,4.68-6,4.84-7.41,0-4.07.43-8.09,0.77-11.61,0.08-.8.18-1.63,0.23-2.39-3.73-4.57-3.82-8.87-3-12a10.58,10.58,0,0,1,6.7-7.48c5.58-2.94,27.38-13.11,66.32-13.11s60.6,10.09,66.27,13.11a10.6,10.6,0,0,1,6.81,7.48c0.82,3.16.79,7.59-3,12.27,0.06,0.69.12,1.39,0.22,2.11a116,116,0,0,1,.77,11.64c0.17,1.36,3.08,5.13,4.84,7.38,1.16,1.49,2.42,3.1,3.63,4.9,0.23,0,.46,0,0.71,0C446.2,181.72,473.36,186.33,473.36,207.78ZM455,428.51V208.17c-0.89-1.36-3.9-3-7.53-4.3-2.4,31-71.86,32.64-86,32.64-14.42,0-85.41-1.59-87.83-32.68-3.65,1.32-6.62,3-7.5,4.34v13.89a0.26,0.26,0,0,1,0-.11,3.91,3.91,0,0,1,0,.49v-0.39c0.26,1.83,5.48,27.41,75.19,27.41,5.08,0,9.18,4.68,9.18,10.4s-4.1,10.4-9.18,10.4c-39.18,0-62-8-75.19-17.43V428.51c0,23.22,12.37,39.41,37.86,49.45,22.21,8.78,47.65,9.7,57.54,9.7C383.44,487.67,455,483.42,455,428.51Zm-25.86-227c-0.34-3.67-3.36-7.58-6.55-11.67-4.42-5.68-9.41-12.14-9.41-21.1,0-.86,0-1.74-0.06-2.63-10.41,4.05-26.86,8-51.67,8-25.69,0-42.75-4.11-53.47-8.38-0.06,1-.09,2.08-0.09,3,0,9-5,15.42-9.41,21.1-3.14,4.05-6.11,7.9-6.51,11.58,4,5.36,29.55,14.34,69.49,14.34C402.52,215.71,425.65,206.5,429.13,201.47ZM402.7,148c-9.7-2.68-23.73-5.1-42.17-5.1-18,0-31.8,2.31-41.54,4.91,9,2.8,22.67,5.44,42.45,5.44C380.83,153.23,394.09,150.67,402.7,148Z" transform="translate(-247.72 -115.91)"/><path class="cls-1" d="M455,208.17V428.51c0,54.91-71.55,59.16-93.49,59.16-9.89,0-35.33-.92-57.54-9.7-25.49-10-37.86-26.23-37.86-49.45V252.83c13.23,9.46,36,17.43,75.19,17.43,5.08,0,9.18-4.65,9.18-10.4s-4.1-10.4-9.18-10.4c-69.71,0-74.93-25.58-75.19-27.41V208.17c0.88-1.39,3.85-3,7.5-4.34C276,234.92,347,236.5,361.44,236.5c14.15,0,83.61-1.59,86-32.64C451.09,205.15,454.1,206.81,455,208.17Z" transform="translate(-247.72 -115.91)"/><path class="cls-1" d="M422.59,189.79c3.19,4.1,6.21,8,6.55,11.67-3.48,5-26.61,14.25-67.69,14.25-39.94,0-65.49-9-69.49-14.34,0.4-3.68,3.37-7.53,6.51-11.58,4.42-5.68,9.41-12.14,9.41-21.1,0-1,0-2,.09-3,10.72,4.27,27.78,8.38,53.47,8.38,24.81,0,41.26-3.91,51.67-8,0,0.89.06,1.77,0.06,2.63C413.18,177.66,418.17,184.11,422.59,189.79Z" transform="translate(-247.72 -115.91)"/><path class="cls-1" d="M360.53,142.88c18.44,0,32.47,2.42,42.17,5.1-8.61,2.7-21.87,5.25-41.26,5.25-19.78,0-33.47-2.63-42.45-5.44C328.73,145.19,342.55,142.88,360.53,142.88Z" transform="translate(-247.72 -115.91)"/><path class="cls-2" d="M266.11,222.06v0.39a3.91,3.91,0,0,0,0-.49A0.26,0.26,0,0,0,266.11,222.06Z" transform="translate(-247.72 -115.91)"/></svg>