<svg id="cup" xmlns="http://www.w3.org/2000/svg" viewBox="0 0 292.88 404.33"><defs><style>.cls-1{fill:#fff;}.cls-2{fill:#231f20;}</style></defs><title>cupswag</title><path class="cls-1" d="M505.7,140.1v9.23c0,5.91-4.2,10.69-9.43,10.69H480.8l3.4,16.17a11.75,11.75,0,0,1-1.77,9.09,9.08,9.08,0,0,1-7.41,4.07h-0.35v186.8c0,12.12-7,23-13.83,33.45-4.74,7.38-10.16,15.72-10.16,20.85v64.76c0,12.75-9.63,27.49-28.65,33.05-11.84,3.42-27.66,5.48-42.32,5.48s-30.46-2.06-42.32-5.48c-19-5.56-28.65-20.3-28.65-33.05V430.45c0-5.13-5.41-13.48-10.15-20.85-6.79-10.46-13.8-21.33-13.8-33.45V368.7c-27.83-1.77-55-14.11-55-44.42V245.94c0-36.93,29.4-41,55-41.49V189.34H284.4a9.06,9.06,0,0,1-7.41-4.07,11.75,11.75,0,0,1-1.77-9.09l6-28.38c1-4.82,4.81-8.22,9.18-8.22h150.7l20.64-9.41a8.58,8.58,0,0,1,3.53-.75h31C501.5,129.42,505.7,134.19,505.7,140.1ZM463.07,168l-1.48-7H297.83l-1.48,7H463.07ZM455.8,376.14V189.34H303.66v186.8c0,5.14,5.38,13.48,10.15,20.85,6.76,10.47,13.8,21.33,13.8,33.45v64.33c2.9,4.91,24.69,12.11,52.1,12.11s49.22-7.19,52.1-12.11V430.45c0-12.12,7.05-23,13.81-33.45C450.4,389.62,455.8,381.29,455.8,376.14Zm-171-28.88v-6.64c-20.38-2.42-32.71-14.14-32.71-31.83v-50c0-24.83,17.68-29.34,32.71-30.17v-2.8c-26.47.63-36.16,4.67-36.16,20.08v78.35C248.63,341.88,272.21,346.2,284.79,347.27Zm0-28.26V250.12c-12.46.74-13.85,3.34-13.85,8.72v50c0,1.77,0,5.51,7.18,8.39A30.71,30.71,0,0,0,284.79,319Z" transform="translate(-212.82 -129.42)"/><path class="cls-1" d="M461.6,161l1.48,7H296.36l1.48-7H442.41a2.49,2.49,0,0,0,.48,0,8.36,8.36,0,0,0,.88,0H461.6Z" transform="translate(-212.82 -129.42)"/><path class="cls-1" d="M455.8,189.34v186.8c0,5.14-5.41,13.48-10.18,20.85-6.76,10.47-13.81,21.33-13.81,33.45v64.33c-2.88,4.91-24.67,12.11-52.1,12.11s-49.21-7.19-52.1-12.11V430.45c0-12.12-7-23-13.8-33.45-4.77-7.38-10.15-15.71-10.15-20.85V189.34H455.8Z" transform="translate(-212.82 -129.42)"/><path class="cls-1" d="M442.41,161h1.36a8.36,8.36,0,0,1-.88,0A2.49,2.49,0,0,1,442.41,161Z" transform="translate(-212.82 -129.42)"/><path class="cls-1" d="M284.79,340.63v6.64c-12.58-1.06-36.16-5.39-36.16-23V308.79h3.45C252.08,326.49,264.41,338.21,284.79,340.63Z" transform="translate(-212.82 -129.42)"/><path class="cls-1" d="M284.79,225.86v2.8c-15,.83-32.71,5.34-32.71,30.17v50h-3.45V245.94C248.63,230.52,258.32,226.49,284.79,225.86Z" transform="translate(-212.82 -129.42)"/><path class="cls-2" d="M488.76,140.1v9.23c0,5.91-4.2,10.69-9.43,10.69H463.86l3.4,16.17a11.75,11.75,0,0,1-1.77,9.09,9.08,9.08,0,0,1-7.41,4.07h-0.35v186.8c0,12.12-7,23-13.83,33.45-4.74,7.38-10.16,15.72-10.16,20.85v64.76c0,12.75-9.63,22-28.65,27.57-11.84,3.42-27.66,5.48-42.32,5.48s-30.46-2.06-42.31-5.48c-19-5.56-28.66-14.82-28.66-27.57V430.45c0-5.13-5.41-13.48-10.15-20.85-6.79-10.46-13.8-21.33-13.8-33.45V368.7c-27.83-1.77-55-14.11-55-44.42V245.94c0-36.93,29.4-41,55-41.49V189.34h-0.39a9.06,9.06,0,0,1-7.41-4.07,11.75,11.75,0,0,1-1.77-9.09l6-28.38c1-4.82,4.81-8.22,9.18-8.22h150.7l20.64-9.41a8.58,8.58,0,0,1,3.53-.75h31C484.56,129.42,488.76,134.19,488.76,140.1ZM446.13,168l-1.48-7H280.89l-1.48,7H446.13Zm-7.27,208.18V189.34H286.72v186.8c0,5.14,5.38,13.48,10.15,20.85,6.76,10.47,13.8,21.33,13.8,33.45v64.33c2.9,4.91,24.69,12.11,52.1,12.11s49.22-7.19,52.1-12.11V430.45c0-12.12,7.05-23,13.81-33.45C433.46,389.62,438.86,381.29,438.86,376.14Zm-171-28.88v-6.64c-20.38-2.42-32.71-14.14-32.71-31.83v-50c0-24.83,17.68-29.34,32.71-30.17v-2.8c-26.47.63-36.16,4.67-36.16,20.08v78.35C231.69,341.88,255.27,346.2,267.85,347.27Zm0-28.26V250.12c-12.46.74-13.85,3.34-13.85,8.72v50c0,1.77,0,5.51,7.18,8.39A30.71,30.71,0,0,0,267.85,319Z" transform="translate(-212.82 -129.42)"/><path class="cls-1" d="M444.65,161l1.48,7H279.41l1.48-7H425.46a2.49,2.49,0,0,0,.48,0,8.36,8.36,0,0,0,.88,0h17.83Z" transform="translate(-212.82 -129.42)"/><path class="cls-1" d="M438.86,189.34v186.8c0,5.14-5.41,13.48-10.18,20.85-6.76,10.47-13.81,21.33-13.81,33.45v64.33c-2.88,4.91-24.67,12.11-52.1,12.11s-49.21-7.19-52.1-12.11V430.45c0-12.12-7-23-13.8-33.45-4.77-7.38-10.15-15.71-10.15-20.85V189.34H438.86Z" transform="translate(-212.82 -129.42)"/><path class="cls-2" d="M425.46,161h1.36a8.36,8.36,0,0,1-.88,0A2.49,2.49,0,0,1,425.46,161Z" transform="translate(-212.82 -129.42)"/><path class="cls-1" d="M267.85,340.63v6.64c-12.58-1.06-36.16-5.39-36.16-23V308.79h3.45C235.14,326.49,247.47,338.21,267.85,340.63Z" transform="translate(-212.82 -129.42)"/><path class="cls-1" d="M267.85,225.86v2.8c-15,.83-32.71,5.34-32.71,30.17v50h-3.45V245.94C231.69,230.52,241.37,226.49,267.85,225.86Z" transform="translate(-212.82 -129.42)"/></svg>