<?xml version="1.0" encoding="utf-8"?>
<!-- Generator: Adobe Illustrator 18.1.1, SVG Export Plug-In . SVG Version: 6.00 Build 0)  -->
<svg version="1.1" xmlns="http://www.w3.org/2000/svg" xmlns:xlink="http://www.w3.org/1999/xlink" x="0px" y="0px"
	 viewBox="0 0 864 576" enable-background="new 0 0 864 576" xml:space="preserve">
<g id="BKGD_COLOR">
	<rect x="-18.9" y="0" fill-rule="evenodd" clip-rule="evenodd" fill="#141414" width="882.9" height="576"/>
</g>
<g id="PATTERN">
	<g>
		<defs>
			<rect id="SVGID_1_" x="-8.4" y="0" width="872.4" height="576"/>
		</defs>
		<clipPath id="SVGID_2_">
			<use xlink:href="#SVGID_1_"  overflow="visible"/>
		</clipPath>
		<g clip-path="url(#SVGID_2_)">
			<path fill="#2F2D2E" d="M774.2,349.9c0-22.7-3.6-44.6-10.2-65.2c0-0.1,0.1-0.1,0.1-0.2c0,0,18.8-89.6,20-95.1
				c12.1-62.7-29.6-121.2-93-133.3l-70.9-12.7c-66.1-14-109.3-19.4-141.5-10.5c-42.1,11.7-59.1,44.9-71.6,91.1l-25.9,95.3l0.2,0.1
				c-27.7,36.3-44.3,81.5-44.3,130.5c0,119.3,98,216.4,218.5,216.4C676.1,566.4,774.2,469.3,774.2,349.9z M387.9,349.9
				c0-42.5,16.1-81.3,42.7-110.7l19.6-78.9c-0.2,0.1-0.3,0.2-0.6,0.3l6.4-23.5c11.4-41.5,21.5-51.7,36.4-55.8
				c9.3-2.6,21.5-3.1,36.6-2l152.4,27.5c35.3,6.7,56.9,38.1,50.1,73c-0.9,4.8-2.9,14.2-5,24.2c-0.3,1.3-1,4.4-2.1,8.3
				c-0.2-0.2-0.4-0.4-0.5-0.6l-4.8,19.8c-5.9,21.5-13.3,47.2-13.3,47.2c9.3,15.2,11.1,25.8,14.8,43.1c1,4.8,1.8,9.5,2.3,14.3
				c0.3,4.5,0.7,9,0.7,13.6c0,91.6-75.3,166.2-167.8,166.2C463.2,516.1,387.9,441.5,387.9,349.9z"/>
			<path fill="#2F2D2E" d="M868.6,643.5c60-68,99.6-162.7,117.7-281.7c34-223.3,20.8-459-335.1-514.5c-39.4-6.2-76.8-9.3-111-9.3
				c-115.1,0-202.2,34.3-266.3,105C221.2,1.1,184.2,84,157.2,204c-35.4,157.9-18.9,292.9,47.8,390.4
				c58.7,85.8,153.7,139.8,282.5,160.7c33.6,5.4,66.2,8.2,96.9,8.2C702.8,763.3,798.6,723,868.6,643.5z M495.2,707.8
				C380.1,689.2,295.9,642,245,567.6c-41.1-60.2-81.6-170.3-40.6-353.2C229.5,102.8,263,26.7,310-25.1
				c54.3-60,129.6-89.1,230.3-89.1c31.8,0,66.6,3,103.5,8.7c295.8,46.2,331.8,217.4,294.8,460.1
				c-25.1,164.6-106.8,360.8-354.2,360.8C556.2,715.4,526.2,712.8,495.2,707.8z"/>
			<path fill="#2F2D2E" d="M1080.6,389.6c35.7-181.4,15.1-328.6-61.2-437.5c-71.9-102.4-191.7-168-356.3-195
				c-45.2-7.4-88.5-11.2-128.8-11.2c-264.7,0-426,157.3-479.4,467.3c-30.6,177.1-2.9,331,79.9,444.8
				c36.6,50.5,83.9,92.3,140.3,124.3c58.1,33,126.3,55.7,202.6,67.5c38.7,6,76.3,8.9,111.8,8.9
				C850.3,858.9,1020.2,696.6,1080.6,389.6z M484.8,803.6c-139.1-21.4-244-79.5-311.7-172.8c-75.2-103.5-100-245.1-71.6-409.6
				C125.6,80.7,173.3-26.4,242.9-97.3C314.5-170.1,412.5-207,534.2-207c37.7,0,78.5,3.5,121.1,10.5
				C806.7-171.7,916.1-112.7,980.3-21c68.8,98,86.9,233.2,53.7,401.7c-26.4,134.3-74.5,239-142.8,311.1
				C815.8,771.6,714.2,812,589.3,812C556.3,812,521.1,809.2,484.8,803.6z"/>
			<path fill="#2F2D2E" d="M1206,382.2c10.8-88.1,7.1-173.4-11-253.4c-18.3-80.8-50.8-154.4-96.6-218.5
				c-97.3-136-248.2-221.6-436.5-247.6c-35.8-4.9-71.3-7.4-105.7-7.4c-166.1,0-312.5,57.8-423.1,167.2
				c-52,51.4-89.3,113-121.7,182.8C-20.8,74.4-42,150.2-51.8,230.5C-74.2,413-45.4,567.1,33.9,688.4
				c84.6,129.6,217.4,215.3,405.7,254.8c50.9,10.6,101.5,16.1,150.4,16.1c164,0,310.6-59.6,423.9-172.4
				C1118.6,682.6,1186.9,538.9,1206,382.2z M450.7,890.7C277.2,854.4,150.4,776.4,73.7,659C1.6,548.4-24.5,406.4-3.8,237
				C5.3,162.3,25,92,54.7,28c29.8-64.1,69-120.4,116.4-167.3c100.5-99.3,233.7-151.8,385.3-151.8c31.8,0,64.8,2.3,98,6.9
				c173.2,23.9,311.5,102,400,225.7c41.6,58.3,71.3,125.5,87.9,199.3c16.8,74.1,20.2,153.1,10.2,235
				c-17.7,144.7-80.5,277.2-176.8,373c-103.1,102.6-236.6,156.9-386,156.9C544.7,905.7,497.9,900.7,450.7,890.7z"/>
			<path fill="#2F2D2E" d="M1289.2,386.9c12.3-100.3,8.2-197.3-12.5-288.4c-20.8-92-57.8-175.7-109.9-248.7
				C1056-305,884.2-402.5,669.8-432.1c-40.7-5.6-81.1-8.5-120.2-8.5c-189.1,0-355.7,65.8-481.7,190.3C8.7-191.8-40-121.7-77-42.2
				c-36.5,78.7-60.6,164.9-71.8,256.4c-25.4,207.7,7.3,383.1,97.5,521.2c96.3,147.6,253.8,245.1,468,290
				c58,12.1,115.6,18.3,171.2,18.3c186.7,0,353.5-67.9,482.5-196.3C1189.7,728.8,1267.4,565.2,1289.2,386.9z M426.8,978.3
				C225.6,936.2,78.5,845.7-10.4,709.6c-83.8-128.4-114-293-89.9-489.5c10.5-86.7,33.4-168.2,67.8-242.3
				c34.6-74.4,80-139.7,135-194.1c116.5-115.2,271-176.1,446.9-176.1c36.9,0,75.2,2.7,113.7,8c200.9,27.8,361.3,118.3,464,261.8
				c48.3,67.7,82.7,145.5,102,231.2c19.5,85.9,23.4,177.5,11.8,272.6c-20.6,167.8-93.4,321.5-205.1,432.6
				C916.2,932.7,761.4,995.6,588,995.6C535.8,995.6,481.6,989.8,426.8,978.3z"/>
			<path fill="#2F2D2E" d="M1134.6,917.5c134.6-133.9,222.3-318.4,246.8-519.7c13.8-113.1,9.1-222.6-14.2-325.4
				c-23.4-103.8-65.2-198.2-124-280.6c-124.9-174.6-318.8-284.6-560.7-317.9c-45.9-6.3-91.5-9.5-135.7-9.5
				c-213.3,0-401.3,74.3-543.4,214.7c-66.7,66-121.7,145-163.4,234.8c-41.2,88.7-68.4,186-81,289.3c-28.7,234.3,8.2,432.2,110,588
				c108.6,166.5,286.2,276.6,528,327.2c65.4,13.7,130.4,20.7,193.1,20.7C800.9,1138.9,989.1,1062.3,1134.6,917.5z M406.9,1072.7
				C177.6,1024.7,10,921.6-91.3,766.5c-95.4-146.3-129.9-333.9-102.4-557.8c12-98.7,38-191.6,77.2-276.1
				C-77-152.3-25.3-226.7,37.4-288.6c132.7-131.3,308.8-200.6,509.2-200.6c42,0,85.6,3.1,129.5,9.1
				c228.9,31.6,411.7,134.8,528.6,298.3C1259.8-104.7,1299-16,1321,81.6c22.2,97.9,26.6,202.3,13.5,310.6
				C1311,583.4,1228,758.5,1100.7,885.1c-136.2,135.6-312.6,207.3-510.1,207.3C531.1,1092.4,469.3,1085.8,406.9,1072.7z"/>
			<path fill="#2F2D2E" d="M1196.3,984.7c149.3-148.5,246.5-353.2,273.8-576.4c15.4-125.5,10.2-247-15.7-361
				c-26-115.2-72.3-219.9-137.6-311.2C1178.3-457.5,963.3-579.5,695-616.6c-50.9-7-101.5-10.6-150.4-10.6
				c-236.6,0-445.1,82.4-602.7,238.1c-74,73.1-135,160.9-181.3,260.4c-45.7,98.4-75.9,206.4-89.9,320.9
				c-31.8,259.9,9.2,479.4,122,652.2c120.5,184.7,317.5,306.7,585.7,362.9c72.5,15.2,144.6,22.9,214.1,22.9
				C826.1,1230.3,1034.9,1145.4,1196.3,984.7z M388.3,1161C132.7,1107.5-54,992.6-167,819.7c-106.3-163-144.8-372.1-114.1-621.7
				c13.3-110,42.4-213.6,86-307.7c43.9-94.5,101.6-177.4,171.5-246.5c148-146.3,344.2-223.6,567.5-223.6c46.9,0,95.5,3.4,144.4,10.2
				c255.1,35.2,458.8,150.2,589.2,332.5c61.4,85.9,105,184.8,129.6,293.6c24.7,109.1,29.7,225.4,15,346.2
				c-26.1,213.1-118.6,408.3-260.5,549.4C1009.8,1103.1,813.2,1183,593.1,1183C526.7,1183,457.9,1175.6,388.3,1161z"/>
			<path fill="#2F2D2E" d="M1261.1,1055.2c164.7-163.8,272-389.7,302.1-635.9c16.9-138.4,11.2-272.5-17.3-398.2
				c-28.7-127.1-79.8-242.6-151.7-343.4C1241.2-535.9,1004-670.5,708-711.4C651.8-719,596-723,542-723c-261,0-491.1,90.9-665,262.7
				c-81.7,80.7-148.9,177.5-200,287.3c-50.4,108.6-83.7,227.7-99.2,354c-35.1,286.8,10.1,528.8,134.6,719.5
				c132.9,203.7,350.3,338.4,646.1,400.4c80,16.8,159.6,25.3,236.3,25.3C852.7,1326.2,1083,1232.5,1261.1,1055.2z M369,1252.5
				c-282.8-59.2-489.4-186.3-614.4-377.6C-363.1,694.5-405.6,463.2-371.7,187c14.8-121.8,46.9-236.3,95.3-340.5
				C-227.8-258.1-164-349.9-86.7-426.3C77-588.1,294.1-673.6,541.2-673.6c51.8,0,105.6,3.8,159.7,11.2
				c282.3,39,507.7,166.2,651.9,367.9c67.9,95.1,116.2,204.5,143.4,324.8c27.4,120.7,32.9,249.4,16.6,383
				c-28.9,235.8-131.2,451.7-288.2,607.9c-167.9,167.2-385.5,255.7-629.1,255.7C522.1,1276.8,446,1268.7,369,1252.5z"/>
			<path fill="#2F2D2E" d="M1328.5,1128.7C1509.2,948.9,1627,701,1660,430.8c18.6-152,12.3-299-19-437.1
				c-31.5-139.4-87.6-266.2-166.5-376.8c-167.8-234.4-428.2-382.1-753-427c-61.7-8.4-122.9-12.8-182.3-12.8
				c-286.4,0-538.9,99.7-729.7,288.4C-280.1-446-354-339.8-410-219.3c-55.3,119.2-91.9,249.9-108.8,388.5
				c-38.5,314.7,11.1,580.4,147.8,789.7c145.9,223.6,384.4,371.4,709.1,439.4c87.8,18.4,175.2,27.8,259.3,27.8
				C880.2,1426.1,1133.1,1323.3,1328.5,1128.7z M348.8,1348.4c-311.3-65.1-538.8-205.1-676.3-415.7
				c-129.5-198.5-176.4-453.3-139-757.3c16.3-134,51.6-260.2,104.8-374.9c53.5-115.1,123.8-216.1,208.9-300.2
				C27.3-677.9,266.4-772,538.4-772c57,0,116.3,4.2,175.8,12.4c310.7,42.9,558.9,183,717.7,405c74.7,104.6,127.9,225.1,157.8,357.6
				c30.1,132.8,36.2,274.6,18.3,421.6c-31.8,259.6-144.5,497.3-317.3,669.2c-184.8,184.1-424.4,281.5-692.5,281.5
				C517.4,1375.2,433.5,1366.2,348.8,1348.4z"/>
			<path fill="#2F2D2E" d="M1399.6,1206.2c197.7-196.7,326.5-467.8,362.6-763.3c20.3-166.2,13.4-327-20.8-478
				c-34.5-152.5-95.8-291.1-182.1-412.1c-183.5-256.4-468.3-417.9-823.5-467c-67.4-9.2-134.4-14-199.3-14
				c-313.3,0-589.4,109.1-798.1,315.4c-98,96.8-178.8,213-240.1,344.8c-60.5,130.3-100.5,273.3-119,424.9
				c-42.1,344.2,12.1,634.8,161.6,863.7c159.5,244.5,420.5,406.2,775.5,480.6c96,20.1,191.6,30.4,283.6,30.4
				C909.4,1531.4,1185.9,1419,1399.6,1206.2z M327.7,1448.3c-341-71.4-590.2-224.7-741-455.4c-141.9-217.5-193.2-496.5-152.3-829.6
				c17.8-146.8,56.6-285,114.9-410.6c58.6-126.1,135.6-236.7,228.8-328.9c197.4-195.2,459.3-298.3,757.3-298.3
				c62.5,0,127.3,4.6,192.6,13.5c340.4,47,612.2,200.4,786.2,443.6c81.9,114.7,140.1,246.6,172.9,391.7
				c33,145.5,39.6,300.8,20,461.9c-34.9,284.4-158.3,544.8-347.6,733.1C1157.1,1371,894.7,1477.7,601,1477.7
				C512.3,1477.7,420.5,1467.8,327.7,1448.3z"/>
			<path fill="#2F2D2E" d="M871.5,431.9c16.4-67.9,8.9-127.6,6.3-143.9l7.9-57.8l0-0.5c11.6-97.6-7-170.5-55.2-216.5
				c-11.1-10.6-23-19.1-35-25.9l-0.5,0.3c-8-4.4-98.2-52-281.1-55.8l-0.1-0.2c-0.9,0-1.7,0.1-2.6,0.1c-0.1,0-0.2,0-0.2,0l0,0
				c-78,3.4-137.2,35.7-180.6,98.5c-24.5,35.4-41,87.2-73,225c-25.1,107.9-22.4,203.6,27.8,276.9C333,601.6,411,646.3,511.1,661.3
				l0.1,0c88.7,11.1,156.3-14.8,156.3-14.8C803.9,602.2,853.7,505.3,871.5,431.9z M518.3,614c-86.3-13-153.1-50.6-192.9-108.7
				c-42.5-61.9-42.8-144.6-20.8-239.2c17.8-76.9,28.9-155.4,65.8-208.8c36.7-53.2,85.9-78,154.7-78c4.2,0,8.6,0.1,13,0.3
				C560.9-18.4,671.4-8,745.6,18.7l-0.3,0.2c17.3,6.1,35.3,15.3,50.6,29.9c36.3,34.7,49.9,93.5,40.3,174.9l-8.9,65.4l0.8,4
				c0.1,0.6,11.3,59.4-5.1,127.2c-21.5,89-79.1,149.3-171,179.2C651.9,599.5,599,622,518.3,614z"/>
		</g>
	</g>
</g>
<g id="LOGO">
	<g>
		<g>
			<g>
				<g>
					<g>
						<g>
							<path fill="#ACF100" d="M366.1,390.8c-2.1,0-4.4-1.5-5.1-3.4l-29.5-85.9v66c0,2.2-1.8,4-4.1,4h-15.9c-2.2,0-4-1.8-4-4V215.9
								c0-2.1,1.8-3.9,4-3.9l15.9,0.2c2.2,0,4,1.8,4,4V267l22-60.3c0.7-2,3-3.5,5.1-3.5l17.1,0.1c1.1,0,2.1,0.5,2.6,1.2
								c0.6,0.8,0.7,1.8,0.3,2.8l-27.1,74.4c-0.6,1.6-0.5,4.2,0.1,5.8l34.5,98.8c0.4,1,0.3,2-0.3,2.8c-0.5,0.8-1.5,1.2-2.6,1.3
								L366.1,390.8z"/>
						</g>
					</g>
					<g>
						<g>
							<path fill="#ACF100" d="M239.9,367.8L239.9,367.8L239.9,367.8l-15.8-0.2c-1.1,0-2.1-0.4-2.8-1.2c-0.7-0.8-1-1.8-0.8-2.8
								l22-153.8c0.3-2,2.3-3.8,4.5-3.9l7.4-0.3c1.9,0,4.9-0.2,6.8-0.3l4.1-0.1c2.2,0,4.1,1.6,4.4,3.6l24.8,150.6
								c0.1,1.1-0.1,2.1-0.8,2.8c-0.7,0.8-1.7,1.2-2.8,1.2l-16.8,0.1c-2.2,0-4.2-1.7-4.6-3.8l-4.3-27c-0.2-1.5-1.7-2.7-3.3-2.7h-9.8
								c-1.5,0-3,1.2-3.2,2.7l-4.6,31.3C244.1,366.1,242.1,367.8,239.9,367.8z M256.9,270.8l-3.9,34.6c-0.1,0.7,0.1,1.3,0.6,1.8
								c0.4,0.5,1.1,0.7,1.8,0.7h3.3c0.7,0,1.4-0.3,1.8-0.7c0.4-0.5,0.7-1.1,0.6-1.8L256.9,270.8z"/>
						</g>
					</g>
					<g>
						<g>
							<path fill="#ACF100" d="M181.3,377c-2.2,0-4-1.7-4-3.8V220.1c0-1.4-1.2-2.7-2.8-2.7h-21.9c-2.2,0-4.1-1.8-4.1-3.9v-14.5
								c0-2.2,1.8-3.9,4.1-3.9h74.6c2.2,0,4.1,1.7,4.1,3.9v14.5c0,2.2-1.8,3.9-4.1,3.9h-23.2c-1.5,0-2.7,1.2-2.7,2.7v152.4
								c0,2.2-1.8,4-4,4L181.3,377z"/>
						</g>
					</g>
				</g>
			</g>
			<path fill="#ACF100" d="M459,338.3h-37.9c-1.5,0-2.8-1.2-2.8-2.7V302c0-1.5,1.3-2.7,2.8-2.7h26.4c2.3,0,4.1-1.8,4.1-3.9v-14.5
				c0-2.2-1.8-3.9-4.1-3.9h-26.4c-1.5,0-2.8-1.2-2.8-2.7v-53.5c0-1.5,1.3-2.7,2.8-2.7h37.7c2.2,0,3.5-1.3,4.1-4
				c0,0,4.1-13.4,4.1-13.5c1.4-4.4-1.6-4.9-2.7-4.9h-65.9c-2.2,0-4.1,1.8-4.1,3.9v74.6c0,1.5-1.2,2.7-2.7,2.7h-1.7
				c-2.3,0-4,1.7-4,3.9v14.5c0,2.2,1.8,3.9,4,3.9h1.7c1.5,0,2.7,1.2,2.7,2.7v54.7c0,2.2,1.8,4,4.1,4H459c2.2,0,4.1-1.8,4.1-4v-14.5
				C463,340,461.2,338.3,459,338.3z"/>
		</g>
		<g>
			<path fill="#FFFFFF" d="M686.6,159.2l-17-3.3c-0.4-0.1-0.8-0.2-1.1-0.3c-0.3-0.1-0.5-0.2-0.8-0.3L526.8,128
				c-6.7-1.3-10.8,1.6-12.3,8.8c-7.4,25.2-14.8,50.1-22.2,74.7c-7.4,24.6-14.9,49.6-22.5,74.9c-0.6,4.5,0,7.8,1.8,9.8
				c1.8,2,4.6,3.3,8.2,4l15.1,3l41.9,8.9c8.9-5.4,19.6-7.7,30.6-5.6c23.3,4.5,38.4,27,33.9,50.3c-2.4,12.2-9.8,22.2-19.7,28.3
				c-1.2,0.9-2.5,1.8-3.9,2.5c-4.2,2.3-8.8,3.7-13.8,4.2c-5,0.5-9.9,0.3-14.7-0.6c-4.7-0.9-9.1-3.1-13.3-6.5c0,0,0-0.1,0-0.1
				c-12.9-8.3-20.7-23.2-19.5-39c-0.1,0-0.1-0.1-0.1-0.2c-0.4-2.2-2-3.9-4.2-4.4c-0.8-0.1-1.5-0.1-2.2,0c-0.1,0-0.3,0-0.4,0
				l-37.9,1.7v13.9c0,6.5-5.3,11.7-11.8,11.7h-10.1c1.4,7.9,3.6,15.7,6.5,23.4c4.4,11.4,10.3,21.8,17.8,31.1
				c7.5,9.4,16.5,17.4,27.1,24c10.6,6.7,22.5,11.3,35.7,13.9l0,0.2c14.5,2.8,29.1,2.8,43.7-0.2c14.6-3,28.1-8.4,40.3-16.2
				c12.2-7.8,22.7-17.8,31.5-30c8.8-12.1,14.7-25.9,17.7-41.5c2.6-13.5,2.6-27.1,0-40.8c-2.6-13.7-7.6-26.3-15.1-37.9
				c-7.5-11.7-17.3-21.7-29.2-30.3c-12-8.6-26.1-14.4-42.4-17.6c-3.9-0.8-8.1-1.4-12.6-1.9c-4.4-0.5-8.7-0.8-12.8-0.8l9.8-33.7
				l104.1,20.3c3.4,0.7,6.2,0.1,8.4-1.6c2.3-1.8,3.6-4.1,4.2-6.9c1.7-8.5,3.3-16.8,5-25.1c1.7-8.2,3.3-16.6,5-25.1
				C696,164.7,693.3,160.5,686.6,159.2z"/>
		</g>
	</g>
</g>
</svg>
