<svg id="bag" xmlns="http://www.w3.org/2000/svg" viewBox="0 0 259.55 390.36"><defs><style>.cls-1{fill:#fff;}.cls-2{fill:#231f20;}</style></defs><title>purseswag</title><path class="cls-1" d="M492.55,274V454c0,22.61-18.39,55.72-41,55.72H288.18c-22.61,0-41-33.11-41-55.72l0-180c-0.32-6.25,6.55-3.73,12.94-4.5a62.85,62.85,0,0,1,7.84-.45l10.26-8.1V185.58c0-36.49,28.49-66.22,63.55-66.22H399c35,0,63.53,29.74,63.53,66.22V261h17.22a12,12,0,0,1,11.38,7.89A10.18,10.18,0,0,1,492.55,274ZM472.21,454V316H267.51V454a20.7,20.7,0,0,0,20.67,20.65H451.54A20.69,20.69,0,0,0,472.21,454Zm0-158.32V285.38h-9.69v10.29h9.69Zm-26,0V285.38h-5.33v10.29h5.33Zm0-34.7V185.58c0-27.54-21.24-49.95-47.27-49.95h-57.2c-26.07,0-47.27,22.41-47.27,49.95V261h5.28V185.58c0-24,18.84-43.6,42-43.6H399c23.15,0,41.94,19.56,41.94,43.6V261h5.33Zm-21.59,34.7V285.38H316.08v10.29H424.66Zm0-34.7V185.58c0-15-11.52-27.32-25.67-27.32h-57.2c-14.2,0-25.7,12.27-25.7,27.32V261H424.66ZM299.8,295.67V285.38h-5.28v10.29h5.28Zm-21.56,0V285.38H267.51v10.29h10.73Z" transform="translate(-233 -119.36)"/><path class="cls-1" d="M472.21,316V454a20.69,20.69,0,0,1-20.67,20.65H288.18A20.7,20.7,0,0,1,267.51,454V316h204.7Z" transform="translate(-233 -119.36)"/><rect class="cls-1" x="229.52" y="166.02" width="9.69" height="10.29"/><rect class="cls-1" x="207.93" y="166.02" width="5.33" height="10.29"/><path class="cls-1" d="M446.25,185.58V261h-5.33V185.58c0-24-18.79-43.6-41.94-43.6h-57.2c-23.15,0-42,19.56-42,43.6V261h-5.28V185.58c0-27.54,21.19-49.95,47.27-49.95H399C425,135.64,446.25,158,446.25,185.58Z" transform="translate(-233 -119.36)"/><rect class="cls-1" x="83.09" y="166.02" width="108.58" height="10.29"/><rect class="cls-1" x="61.53" y="166.02" width="5.28" height="10.29"/><rect class="cls-1" x="34.51" y="166.02" width="10.73" height="10.29"/><path class="cls-2" d="M478.37,278.24v180a41,41,0,0,1-41,41H274a41,41,0,0,1-41-41l0-180a12.13,12.13,0,0,1,10.7-12.6,62.93,62.93,0,0,1,7.85-.45h12.47V189.81c0-36.49,28.49-66.22,63.55-66.22h57.2c35,0,63.53,29.74,63.53,66.22v75.39h17.22a12,12,0,0,1,11.38,7.89A10.18,10.18,0,0,1,478.37,278.24ZM458,458.22v-138H253.33v138A20.7,20.7,0,0,0,274,478.87H437.35A20.69,20.69,0,0,0,458,458.22Zm0-158.32V289.6h-9.69v10.29H458Zm-26,0V289.6h-5.33v10.29h5.33Zm0-34.7V189.81c0-27.54-21.24-49.95-47.27-49.95H327.6c-26.07,0-47.27,22.41-47.27,49.95v75.39h5.28V189.81c0-24,18.84-43.6,42-43.6h57.2c23.15,0,41.94,19.56,41.94,43.6v75.39h5.33Zm-21.59,34.7V289.6H301.9v10.29H410.48Zm0-34.7V189.81c0-15-11.52-27.32-25.67-27.32H327.6c-14.2,0-25.7,12.27-25.7,27.32v75.39H410.48Zm-124.86,34.7V289.6h-5.28v10.29h5.28Zm-21.56,0V289.6H253.33v10.29h10.73Z" transform="translate(-233 -119.36)"/><path class="cls-1" d="M458,320.22v138a20.69,20.69,0,0,1-20.67,20.65H274a20.7,20.7,0,0,1-20.67-20.65v-138H458Z" transform="translate(-233 -119.36)"/><rect class="cls-1" x="215.34" y="170.25" width="9.69" height="10.29"/><rect class="cls-1" x="193.75" y="170.25" width="5.33" height="10.29"/><path class="cls-1" d="M432.07,189.81v75.39h-5.33V189.81c0-24-18.79-43.6-41.94-43.6H327.6c-23.15,0-42,19.56-42,43.6v75.39h-5.28V189.81c0-27.54,21.19-49.95,47.27-49.95h57.2C410.83,139.86,432.07,162.27,432.07,189.81Z" transform="translate(-233 -119.36)"/><rect class="cls-1" x="68.9" y="170.25" width="108.58" height="10.29"/><rect class="cls-1" x="47.34" y="170.25" width="5.28" height="10.29"/><rect class="cls-1" x="20.33" y="170.25" width="10.73" height="10.29"/></svg>