<svg id="rally_towel" data-name="rally towel" xmlns="http://www.w3.org/2000/svg" viewBox="0 0 415.6 262.66"><defs><style>.cls-1{fill:#fff;}.cls-2{fill:none;stroke:#231f20;stroke-linecap:round;stroke-miterlimit:10;stroke-width:13px;}</style></defs><title>rallytowelswag</title><path class="cls-1" d="M582.74,204.76V458.41a4.27,4.27,0,0,1-4,4.5H543.22v-4.5c0-18.45,9.15-18.45,9.15-36.9s-9.15-18.45-9.15-36.9,9.15-18.43,9.15-36.87-9.15-18.43-9.15-36.89,9.15-18.43,9.15-36.87-9.15-18.43-9.15-36.85,9.15-18.43,9.15-36.87h26.37A4.27,4.27,0,0,1,582.74,204.76Z" transform="translate(-167.14 -200.26)"/><path class="cls-1" d="M518.43,200.26h33.94c0,18.43-9.15,18.43-9.15,36.87s9.15,18.42,9.15,36.85-9.15,18.43-9.15,36.87,9.15,18.45,9.15,36.89-9.15,18.43-9.15,36.87,9.15,18.45,9.15,36.9-9.15,18.45-9.15,36.9v4.5H509.28v-4.5c0-18.45,9.15-18.45,9.15-36.9s-9.15-18.45-9.15-36.9,9.15-18.43,9.15-36.87-9.15-18.43-9.15-36.89,9.15-18.43,9.15-36.87-9.15-18.43-9.15-36.85S518.43,218.69,518.43,200.26Z" transform="translate(-167.14 -200.26)"/><path class="cls-1" d="M269.85,200.26H518.43c0,18.43-9.15,18.43-9.15,36.87s9.15,18.42,9.15,36.85-9.15,18.43-9.15,36.87,9.15,18.45,9.15,36.89-9.15,18.43-9.15,36.87,9.15,18.45,9.15,36.9-9.15,18.45-9.15,36.9v4.5H260.71v-4.5c0-18.45,9.15-18.45,9.15-36.9s-9.15-18.45-9.15-36.9,9.15-18.43,9.15-36.87-9.15-18.43-9.15-36.89,9.15-18.43,9.15-36.87-9.15-18.43-9.15-36.85S269.85,218.69,269.85,200.26Z" transform="translate(-167.14 -200.26)"/><path class="cls-1" d="M235.91,200.26h33.94c0,18.43-9.15,18.43-9.15,36.87s9.15,18.42,9.15,36.85-9.15,18.43-9.15,36.87,9.15,18.45,9.15,36.89-9.15,18.43-9.15,36.87,9.15,18.45,9.15,36.9-9.15,18.45-9.15,36.9v4.5H226.78v-4.5c0-18.45,9.13-18.45,9.13-36.9s-9.13-18.45-9.13-36.9,9.13-18.43,9.13-36.87-9.13-18.43-9.13-36.89,9.13-18.43,9.13-36.87-9.13-18.43-9.13-36.85S235.91,218.69,235.91,200.26Z" transform="translate(-167.14 -200.26)"/><path class="cls-1" d="M203.38,200.26h32.53c0,18.43-9.13,18.43-9.13,36.87s9.13,18.42,9.13,36.85-9.13,18.43-9.13,36.87,9.13,18.45,9.13,36.89-9.13,18.43-9.13,36.87,9.13,18.45,9.13,36.9-9.13,18.45-9.13,36.9v4.5H203.38a4.27,4.27,0,0,1-4-4.5V204.76A4.27,4.27,0,0,1,203.38,200.26Z" transform="translate(-167.14 -200.26)"/><path class="cls-1" d="M557,211.37V436a4,4,0,0,1-4,4H517.48v-4c0-16.34,9.15-16.34,9.15-32.68s-9.15-16.34-9.15-32.68,9.15-16.33,9.15-32.65-9.15-16.33-9.15-32.67,9.15-16.33,9.15-32.65-9.15-16.33-9.15-32.64,9.15-16.33,9.15-32.65H553A4,4,0,0,1,557,211.37Z" transform="translate(-167.14 -200.26)"/><path class="cls-1" d="M492.68,207.38h33.94c0,16.33-9.15,16.33-9.15,32.65s9.15,16.31,9.15,32.64-9.15,16.33-9.15,32.65,9.15,16.34,9.15,32.67-9.15,16.33-9.15,32.65,9.15,16.34,9.15,32.68-9.15,16.34-9.15,32.68v4H483.53v-4c0-16.34,9.15-16.34,9.15-32.68s-9.15-16.34-9.15-32.68,9.15-16.33,9.15-32.65-9.15-16.33-9.15-32.67,9.15-16.33,9.15-32.65-9.15-16.33-9.15-32.64S492.68,223.7,492.68,207.38Z" transform="translate(-167.14 -200.26)"/><path class="cls-1" d="M244.11,207.38H492.68c0,16.33-9.15,16.33-9.15,32.65s9.15,16.31,9.15,32.64-9.15,16.33-9.15,32.65,9.15,16.34,9.15,32.67-9.15,16.33-9.15,32.65,9.15,16.34,9.15,32.68-9.15,16.34-9.15,32.68v4H235v-4c0-16.34,9.15-16.34,9.15-32.68S235,387,235,370.63s9.15-16.33,9.15-32.65S235,321.65,235,305.31s9.15-16.33,9.15-32.65S235,256.34,235,240,244.11,223.7,244.11,207.38Z" transform="translate(-167.14 -200.26)"/><path class="cls-1" d="M210.16,207.38h33.94c0,16.33-9.15,16.33-9.15,32.65s9.15,16.31,9.15,32.64S235,289,235,305.31s9.15,16.34,9.15,32.67S235,354.3,235,370.63s9.15,16.34,9.15,32.68S235,419.65,235,436v4H201v-4c0-16.34,9.13-16.34,9.13-32.68S201,387,201,370.63s9.13-16.33,9.13-32.65S201,321.65,201,305.31s9.13-16.33,9.13-32.65S201,256.34,201,240,210.16,223.7,210.16,207.38Z" transform="translate(-167.14 -200.26)"/><path class="cls-1" d="M177.63,207.38h32.53c0,16.33-9.13,16.33-9.13,32.65s9.13,16.31,9.13,32.64S201,289,201,305.31s9.13,16.34,9.13,32.67S201,354.3,201,370.63s9.13,16.34,9.13,32.68S201,419.65,201,436v4H177.63a4,4,0,0,1-4-4V211.37A4,4,0,0,1,177.63,207.38Z" transform="translate(-167.14 -200.26)"/><path class="cls-2" d="M526.62,207.38H553a4,4,0,0,1,4,4V436a4,4,0,0,1-4,4H177.63a4,4,0,0,1-4-4V211.37a4,4,0,0,1,4-4h349Z" transform="translate(-167.14 -200.26)"/><path class="cls-2" d="M244.11,207.38c0,16.33-9.15,16.33-9.15,32.65s9.15,16.31,9.15,32.64S235,289,235,305.31s9.15,16.34,9.15,32.67S235,354.3,235,370.63s9.15,16.34,9.15,32.68S235,419.65,235,436" transform="translate(-167.14 -200.26)"/><path class="cls-2" d="M210.16,207.38c0,16.33-9.13,16.33-9.13,32.65s9.13,16.31,9.13,32.64S201,289,201,305.31s9.13,16.34,9.13,32.67S201,354.3,201,370.63s9.13,16.34,9.13,32.68S201,419.65,201,436" transform="translate(-167.14 -200.26)"/><path class="cls-2" d="M526.62,207.38c0,16.33-9.15,16.33-9.15,32.65s9.15,16.31,9.15,32.64-9.15,16.33-9.15,32.65,9.15,16.34,9.15,32.67-9.15,16.33-9.15,32.65,9.15,16.34,9.15,32.68-9.15,16.34-9.15,32.68" transform="translate(-167.14 -200.26)"/><path class="cls-2" d="M492.68,207.38c0,16.33-9.15,16.33-9.15,32.65s9.15,16.31,9.15,32.64-9.15,16.33-9.15,32.65,9.15,16.34,9.15,32.67-9.15,16.33-9.15,32.65,9.15,16.34,9.15,32.68-9.15,16.34-9.15,32.68" transform="translate(-167.14 -200.26)"/></svg>