<svg id="stickers" xmlns="http://www.w3.org/2000/svg" viewBox="0 0 426.57 380.28"><defs><style>.cls-1{fill:#fff;}.cls-2{fill:#231f20;}</style></defs><title>stickersswag</title><path class="cls-1" d="M491.69,150.63a95.26,95.26,0,1,1-95.26,95.26A95.37,95.37,0,0,1,491.69,150.63Zm75.41,95.26a75.41,75.41,0,1,0-75.41,75.43A75.5,75.5,0,0,0,567.1,245.89Z" transform="translate(-160.38 -149.85)"/><path class="cls-1" d="M550.45,275.38A9.93,9.93,0,0,1,540,289.82l-33.83-5.67-23.84,24.63a9.92,9.92,0,0,1-17-5.42l-5-33.93-30.82-15.06a9.94,9.94,0,0,1-.07-17.8l30.7-15.29L465,187.32a9.93,9.93,0,0,1,16.91-5.57l24,24.48,33.78-5.91a9.92,9.92,0,0,1,10.52,14.36L534.39,245.1Zm-27-8.47-9.09-17.14a10,10,0,0,1,0-9.24l9-17.21-19.1,3.34a10,10,0,0,1-8.8-2.81L481.84,210l-2.73,19.22a10,10,0,0,1-5.39,7.5l-17.37,8.64,17.42,8.52a10,10,0,0,1,5.47,7.45l2.85,19.2,13.49-13.94a10,10,0,0,1,8.77-2.9Z" transform="translate(-160.38 -149.85)"/><path class="cls-1" d="M491.69,170.48a75.42,75.42,0,1,1-75.41,75.41A75.5,75.5,0,0,1,491.69,170.48Zm58,115.35a9.88,9.88,0,0,0,.72-10.45L534.39,245.1l15.84-30.42a9.92,9.92,0,0,0-10.52-14.36l-33.78,5.91-24-24.48A9.93,9.93,0,0,0,465,187.32l-4.83,33.95-30.7,15.29a9.94,9.94,0,0,0,.07,17.8l30.82,15.06,5,33.93a9.93,9.93,0,0,0,17,5.42l23.84-24.63L540,289.82A9.9,9.9,0,0,0,549.73,285.83Z" transform="translate(-160.38 -149.85)"/><path class="cls-1" d="M514.4,249.77l9.09,17.14-19.14-3.21a10,10,0,0,0-8.77,2.9l-13.49,13.94-2.85-19.2a10,10,0,0,0-5.47-7.45l-17.42-8.52,17.37-8.64a10,10,0,0,0,5.39-7.5L481.84,210l13.59,13.86a10,10,0,0,0,8.8,2.81l19.1-3.34-9,17.21A10,10,0,0,0,514.4,249.77Z" transform="translate(-160.38 -149.85)"/><path class="cls-1" d="M380.12,339.59a95.27,95.27,0,1,1-95.26,95.26A95.37,95.37,0,0,1,380.12,339.59Zm75.43,95.26a75.42,75.42,0,1,0-75.43,75.43A75.52,75.52,0,0,0,455.55,434.86Z" transform="translate(-160.38 -149.85)"/><path class="cls-1" d="M380.12,359.44a75.42,75.42,0,1,1-75.41,75.41A75.52,75.52,0,0,1,380.12,359.44ZM436.68,414a9.93,9.93,0,0,0-9.92-9.93H412.32V388.7a9.93,9.93,0,0,0-19.85,0v15.36H365.68V388.7a9.93,9.93,0,0,0-19.85,0v15.36H333.48a9.93,9.93,0,0,0,0,19.85h12.35v25.81H333.48a9.92,9.92,0,0,0,0,19.83h12.35V481a9.93,9.93,0,0,0,19.85,0V469.55h26.79V481a9.93,9.93,0,0,0,19.85,0V469.55h14.44a9.92,9.92,0,1,0,0-19.83H412.32V423.91h14.44A9.89,9.89,0,0,0,436.68,414Z" transform="translate(-160.38 -149.85)"/><path class="cls-1" d="M426.76,404.06a9.93,9.93,0,0,1,0,19.85H412.32v25.81h14.44a9.92,9.92,0,1,1,0,19.83H412.32V481a9.93,9.93,0,0,1-19.85,0V469.55H365.68V481a9.93,9.93,0,0,1-19.85,0V469.55H333.48a9.92,9.92,0,0,1,0-19.83h12.35V423.91H333.48a9.93,9.93,0,0,1,0-19.85h12.35V388.7a9.93,9.93,0,0,1,19.85,0v15.36h26.79V388.7a9.93,9.93,0,0,1,19.85,0v15.36h14.44Zm-34.29,45.66V423.91H365.68v25.81h26.79Z" transform="translate(-160.38 -149.85)"/><rect class="cls-1" x="205.3" y="274.06" width="26.79" height="25.81"/><path class="cls-1" d="M271.63,150.63a95.26,95.26,0,1,1-95.26,95.26A95.37,95.37,0,0,1,271.63,150.63ZM347,245.89a75.41,75.41,0,1,0-75.41,75.43A75.5,75.5,0,0,0,347,245.89Z" transform="translate(-160.38 -149.85)"/><path class="cls-1" d="M320.2,240.72a9.92,9.92,0,0,1,9.92,9.92,58.49,58.49,0,1,1-117,0,9.93,9.93,0,0,1,19.85,0,38.64,38.64,0,1,0,77.28,0A9.92,9.92,0,0,1,320.2,240.72Z" transform="translate(-160.38 -149.85)"/><path class="cls-1" d="M271.63,170.48a75.42,75.42,0,1,1-75.41,75.41A75.5,75.5,0,0,1,271.63,170.48Zm58.49,80.15a9.93,9.93,0,0,0-19.85,0,38.64,38.64,0,1,1-77.28,0,9.93,9.93,0,0,0-19.85,0A58.49,58.49,0,1,0,330.12,250.64Zm-21.65-37.81a9.61,9.61,0,1,0-9.6,9.62A9.6,9.6,0,0,0,308.47,212.83Zm-55.48,0a9.61,9.61,0,1,0-9.6,9.62A9.6,9.6,0,0,0,253,212.83Z" transform="translate(-160.38 -149.85)"/><path class="cls-1" d="M298.87,203.23a9.61,9.61,0,1,1-9.62,9.6A9.6,9.6,0,0,1,298.87,203.23Z" transform="translate(-160.38 -149.85)"/><path class="cls-1" d="M243.39,203.23a9.61,9.61,0,1,1-9.62,9.6A9.6,9.6,0,0,1,243.39,203.23Z" transform="translate(-160.38 -149.85)"/><path class="cls-2" d="M475.7,149.85a95.26,95.26,0,1,1-95.26,95.26A95.37,95.37,0,0,1,475.7,149.85Zm75.41,95.26a75.41,75.41,0,1,0-75.41,75.43A75.5,75.5,0,0,0,551.12,245.11Z" transform="translate(-160.38 -149.85)"/><path class="cls-2" d="M534.46,274.6A9.93,9.93,0,0,1,524.06,289l-33.83-5.67L466.39,308a9.92,9.92,0,0,1-17-5.42l-5-33.93-30.82-15.06a9.94,9.94,0,0,1-.07-17.8l30.7-15.29L449,186.54A9.93,9.93,0,0,1,465.94,181l24,24.48,33.78-5.91a9.92,9.92,0,0,1,10.52,14.36L518.4,244.32Zm-27-8.47L498.42,249a10,10,0,0,1,0-9.24l9-17.21-19.1,3.34a10,10,0,0,1-8.8-2.81l-13.59-13.86-2.73,19.22a10,10,0,0,1-5.39,7.5l-17.37,8.64,17.42,8.52a10,10,0,0,1,5.47,7.45l2.85,19.2,13.49-13.94a10,10,0,0,1,8.77-2.9Z" transform="translate(-160.38 -149.85)"/><path class="cls-1" d="M475.7,169.7a75.42,75.42,0,1,1-75.41,75.41A75.5,75.5,0,0,1,475.7,169.7Zm58,115.35a9.88,9.88,0,0,0,.72-10.45L518.4,244.32l15.84-30.42a9.92,9.92,0,0,0-10.52-14.36l-33.78,5.91-24-24.48A9.93,9.93,0,0,0,449,186.54l-4.83,33.95-30.7,15.29a9.94,9.94,0,0,0,.07,17.8l30.82,15.06,5,33.93a9.93,9.93,0,0,0,17,5.42l23.84-24.63L524.06,289A9.9,9.9,0,0,0,533.74,285Z" transform="translate(-160.38 -149.85)"/><path class="cls-1" d="M498.42,249l9.09,17.14-19.14-3.21a10,10,0,0,0-8.77,2.9L466.1,279.76l-2.85-19.2a10,10,0,0,0-5.47-7.45l-17.42-8.52,17.37-8.64a10,10,0,0,0,5.39-7.5l2.73-19.22,13.59,13.86a10,10,0,0,0,8.8,2.81l19.1-3.34-9,17.21A10,10,0,0,0,498.42,249Z" transform="translate(-160.38 -149.85)"/><path class="cls-2" d="M364.14,338.81a95.27,95.27,0,1,1-95.26,95.26A95.37,95.37,0,0,1,364.14,338.81Zm75.43,95.26a75.42,75.42,0,1,0-75.43,75.43A75.52,75.52,0,0,0,439.56,434.08Z" transform="translate(-160.38 -149.85)"/><path class="cls-1" d="M364.14,358.66a75.42,75.42,0,1,1-75.41,75.41A75.52,75.52,0,0,1,364.14,358.66Zm56.56,54.55a9.93,9.93,0,0,0-9.92-9.93H396.33V387.92a9.93,9.93,0,0,0-19.85,0v15.36H349.69V387.92a9.93,9.93,0,0,0-19.85,0v15.36H317.49a9.93,9.93,0,0,0,0,19.85h12.35v25.81H317.49a9.92,9.92,0,1,0,0,19.83h12.35v11.45a9.93,9.93,0,0,0,19.85,0V468.77h26.79v11.45a9.93,9.93,0,0,0,19.85,0V468.77h14.44a9.92,9.92,0,0,0,0-19.83H396.33V423.13h14.44A9.89,9.89,0,0,0,420.69,413.21Z" transform="translate(-160.38 -149.85)"/><path class="cls-2" d="M410.78,403.28a9.93,9.93,0,0,1,0,19.85H396.33v25.81h14.44a9.92,9.92,0,0,1,0,19.83H396.33v11.45a9.93,9.93,0,0,1-19.85,0V468.77H349.69v11.45a9.93,9.93,0,0,1-19.85,0V468.77H317.49a9.92,9.92,0,1,1,0-19.83h12.35V423.13H317.49a9.93,9.93,0,0,1,0-19.85h12.35V387.92a9.93,9.93,0,0,1,19.85,0v15.36h26.79V387.92a9.93,9.93,0,0,1,19.85,0v15.36h14.44Zm-34.29,45.66V423.13H349.69v25.81h26.79Z" transform="translate(-160.38 -149.85)"/><rect class="cls-1" x="189.31" y="273.28" width="26.79" height="25.81"/><path class="cls-2" d="M255.64,149.85a95.26,95.26,0,1,1-95.26,95.26A95.37,95.37,0,0,1,255.64,149.85Zm75.41,95.26a75.41,75.41,0,1,0-75.41,75.43A75.5,75.5,0,0,0,331.06,245.11Z" transform="translate(-160.38 -149.85)"/><path class="cls-2" d="M304.22,239.94a9.92,9.92,0,0,1,9.92,9.92,58.49,58.49,0,0,1-117,0,9.93,9.93,0,0,1,19.85,0,38.64,38.64,0,1,0,77.28,0A9.92,9.92,0,0,1,304.22,239.94Z" transform="translate(-160.38 -149.85)"/><path class="cls-1" d="M255.64,169.7a75.42,75.42,0,1,1-75.41,75.41A75.5,75.5,0,0,1,255.64,169.7Zm58.49,80.15a9.93,9.93,0,0,0-19.85,0,38.64,38.64,0,1,1-77.28,0,9.93,9.93,0,0,0-19.85,0A58.49,58.49,0,0,0,314.13,249.86Zm-21.65-37.81a9.61,9.61,0,1,0-9.6,9.62A9.6,9.6,0,0,0,292.48,212.05Zm-55.48,0a9.61,9.61,0,1,0-9.6,9.62A9.6,9.6,0,0,0,237,212.05Z" transform="translate(-160.38 -149.85)"/><path class="cls-2" d="M282.88,202.45a9.61,9.61,0,1,1-9.62,9.6A9.6,9.6,0,0,1,282.88,202.45Z" transform="translate(-160.38 -149.85)"/><path class="cls-2" d="M227.41,202.45a9.61,9.61,0,1,1-9.62,9.6A9.6,9.6,0,0,1,227.41,202.45Z" transform="translate(-160.38 -149.85)"/></svg>