<svg id="sunglasses" xmlns="http://www.w3.org/2000/svg" viewBox="0 0 463.5 221.77"><defs><style>.cls-1{fill:#fff;}.cls-2{fill:#231f20;}</style></defs><title>sunglassesswag</title><path class="cls-1" d="M614.34,254.67a12.69,12.69,0,1,1-22.11,12.47c-0.67-1.13-1.33-2.39-2-3.67a229.08,229.08,0,0,0-25,36.82v0c-0.07,3.51-.11,8.29-0.41,14-0.51,9.14-8.34,13-14.69,16.12-0.57.25-1.28,0.61-2,1-7.68,65.9-38.1,102.1-85.85,102.1-22.41,0-41.18-7.88-55.78-23.34-23.28-24.72-29.94-62.85-31.68-88.28a12.58,12.58,0,0,1-4.11-1.67,38.41,38.41,0,0,0-13.48-.1,10.19,10.19,0,0,1-2.9,1.36c-1.62,25.42-8.24,63.82-31.62,88.69-14.6,15.46-33.37,23.34-55.79,23.34-47.8,0-78.15-36.2-85.89-102.1a15.63,15.63,0,0,0-2-1c-6.31-3.11-14.14-7-14.64-16.12-0.39-7.85-.39-14-0.39-17.3V297a10.5,10.5,0,0,1,.15-1.74,8.62,8.62,0,0,1,.39-1.93,9.1,9.1,0,0,1,.48-1.16,6.26,6.26,0,0,1,.51-1.11,13.69,13.69,0,0,1,1.06-1.69c0.1-.1.2-0.25,0.29-0.36,19.74-25.62,65.95-66.24,67.93-68a12.58,12.58,0,0,1,9.32-3.1,12.83,12.83,0,0,1,8.73,4.42c0.11,0.16,11.71,13.78,15.92,18.31A12.7,12.7,0,0,1,250,257.88c-1.93-2-5.09-5.65-8.14-9.16-9.4,8.6-24.26,22.38-37.12,35.64L337,289.27a12.68,12.68,0,0,1,12.51,10.66c6.52-1.11,18.89-5.8,25.14-4.52a12.65,12.65,0,0,1,12.56-11H544.89a258,258,0,0,1,39.76-52.73,12.72,12.72,0,0,1,20.54,4.06C605.25,235.82,610.38,247.61,614.34,254.67Zm-79.63,55.12H399.66c0.46,24.62,5.91,62.49,25.28,83,9.71,10.32,21.92,15.37,37.27,15.37,16.23,0,28.27-6.31,37.23-16.17H457.22a12.71,12.71,0,0,1,0-25.42h57c5-13.43,7.73-28.49,9.11-42.51C524,316.77,529.33,312.74,534.72,309.79Zm-205.33,0H194.29c5.44,2.95,10.78,7,11.5,14.3v0.2h48.45a12.71,12.71,0,1,1,0,25.42H209.9c7,30.5,22.82,58.48,56.94,58.48,15.37,0,27.57-5,37.28-15.37C323.44,372.29,328.94,334.41,329.38,309.79Z" transform="translate(-152.5 -211.85)"/><path class="cls-1" d="M399.66,309.79H534.72c-5.39,2.95-10.73,7-11.43,14.3-1.38,14-4.13,29.08-9.11,42.51h-57a12.71,12.71,0,0,0,0,25.42h42.21c-9,9.86-21,16.17-37.23,16.17-15.35,0-27.55-5-37.27-15.37C405.57,372.29,400.12,334.41,399.66,309.79Zm115.58,33.29a12.7,12.7,0,0,0-12.71-12.71H476.6a12.71,12.71,0,1,0,0,25.42h25.93A12.7,12.7,0,0,0,515.24,343.08Z" transform="translate(-152.5 -211.85)"/><path class="cls-1" d="M502.53,330.37a12.71,12.71,0,0,1,0,25.42H476.6a12.71,12.71,0,1,1,0-25.42h25.93Z" transform="translate(-152.5 -211.85)"/><path class="cls-1" d="M194.29,309.79H329.38c-0.44,24.62-5.95,62.49-25.26,83-9.71,10.32-21.92,15.37-37.28,15.37-34.12,0-49.93-28-56.94-58.48h44.34a12.71,12.71,0,1,0,0-25.42H205.79v-0.2C205.07,316.77,199.73,312.74,194.29,309.79Zm82.84,63.41a12.71,12.71,0,0,0-12.71-12.71h-28.9a12.71,12.71,0,0,0,0,25.42h28.9A12.7,12.7,0,0,0,277.13,373.2Z" transform="translate(-152.5 -211.85)"/><path class="cls-1" d="M264.42,360.49a12.71,12.71,0,1,1,0,25.42h-28.9a12.71,12.71,0,0,1,0-25.42h28.9Z" transform="translate(-152.5 -211.85)"/><path class="cls-2" d="M603,248.65a12.69,12.69,0,1,1-22.11,12.47c-0.67-1.13-1.33-2.39-2-3.67a229.08,229.08,0,0,0-25,36.82v0c-0.07,3.51-.11,8.29-0.41,14-0.51,9.14-8.34,13-14.69,16.12-0.57.25-1.28,0.61-2,1-7.68,65.9-38.1,102.1-85.85,102.1-22.41,0-41.18-7.88-55.78-23.34-23.28-24.72-29.94-62.85-31.68-88.28a12.58,12.58,0,0,1-4.11-1.67,38.41,38.41,0,0,0-13.48-.1,10.19,10.19,0,0,1-2.9,1.36c-1.62,25.42-8.24,63.82-31.62,88.69-14.6,15.46-33.37,23.34-55.79,23.34-47.8,0-78.15-36.2-85.89-102.1a15.63,15.63,0,0,0-2-1c-6.31-3.11-14.14-7-14.64-16.12-0.39-7.85-.39-14-0.39-17.3V291a10.5,10.5,0,0,1,.15-1.74,8.62,8.62,0,0,1,.39-1.93,9.1,9.1,0,0,1,.48-1.16A6.26,6.26,0,0,1,154,285a13.69,13.69,0,0,1,1.06-1.69c0.1-.1.2-0.25,0.29-0.36,19.74-25.62,65.95-66.24,67.93-68a12.58,12.58,0,0,1,9.32-3.1,12.83,12.83,0,0,1,8.73,4.42c0.11,0.16,11.71,13.78,15.92,18.31a12.7,12.7,0,0,1-18.66,17.23c-1.93-2-5.09-5.65-8.14-9.16-9.4,8.6-24.26,22.38-37.12,35.64H330.46A12.68,12.68,0,0,1,343,289a57.69,57.69,0,0,1,20.28.36,12.65,12.65,0,0,1,12.56-11H533.5a258,258,0,0,1,39.76-52.73,12.72,12.72,0,0,1,20.54,4.06C593.87,229.79,599,241.59,603,248.65Zm-79.63,55.12H388.27c0.46,24.62,5.91,62.49,25.28,83,9.71,10.32,21.92,15.37,37.27,15.37,16.23,0,28.27-6.31,37.23-16.17H445.83a12.71,12.71,0,0,1,0-25.42h57c5-13.43,7.73-28.49,9.11-42.51C512.6,310.75,517.94,306.72,523.33,303.77Zm-205.33,0H182.9c5.44,2.95,10.78,7,11.5,14.3v0.2h48.45a12.71,12.71,0,1,1,0,25.42H198.51c7,30.5,22.82,58.48,56.94,58.48,15.37,0,27.57-5,37.28-15.37C312,366.26,317.55,328.39,318,303.77Z" transform="translate(-152.5 -211.85)"/><path class="cls-1" d="M388.27,303.77H523.33c-5.39,2.95-10.73,7-11.43,14.3-1.38,14-4.13,29.08-9.11,42.51h-57a12.71,12.71,0,0,0,0,25.42H488c-9,9.86-21,16.17-37.23,16.17-15.35,0-27.55-5-37.27-15.37C394.18,366.26,388.73,328.39,388.27,303.77Zm115.58,33.29a12.7,12.7,0,0,0-12.71-12.71H465.21a12.71,12.71,0,1,0,0,25.42h25.93A12.7,12.7,0,0,0,503.85,337.06Z" transform="translate(-152.5 -211.85)"/><path class="cls-2" d="M491.14,324.35a12.71,12.71,0,0,1,0,25.42H465.21a12.71,12.71,0,1,1,0-25.42h25.93Z" transform="translate(-152.5 -211.85)"/><path class="cls-1" d="M182.9,303.77H318c-0.44,24.62-5.95,62.49-25.26,83-9.71,10.32-21.92,15.37-37.28,15.37-34.12,0-49.93-28-56.94-58.48h44.34a12.71,12.71,0,1,0,0-25.42H194.4v-0.2C193.68,310.75,188.34,306.72,182.9,303.77Zm82.84,63.41A12.71,12.71,0,0,0,253,354.47h-28.9a12.71,12.71,0,0,0,0,25.42H253A12.7,12.7,0,0,0,265.74,367.18Z" transform="translate(-152.5 -211.85)"/><path class="cls-2" d="M253,354.47a12.71,12.71,0,0,1,0,25.42h-28.9a12.71,12.71,0,0,1,0-25.42H253Z" transform="translate(-152.5 -211.85)"/></svg>