<svg id="SweatShirt" xmlns="http://www.w3.org/2000/svg" viewBox="0 0 369.35 359.51"><defs><style>.cls-1{fill:#fff;}.cls-2{fill:#231f20;}</style></defs><title>sweatshirtswag</title><path class="cls-1" d="M524.9,393.66c0,16.68-3.45,35.48-4.64,41.44,3.11,18.59-1.8,23.49-3.45,25.12-7.53,7.55-56.89,17.4-57.31,17.4-7.52,0-12.23-6.45-15.14-13,0.83,9.72,2.36,16.56-1.42,20.36-8.87,8.86-56.38,10.72-94.69,10.72s-85.82-7.22-94.69-16.08c-3.77-3.8-5.28-10.6-4.45-20.33-2.88,6.61-7.27-16.51-14.79-16.51a9.75,9.75,0,0,1,4.39-5.88l4.16-2.49A142.24,142.24,0,0,1,234,385.31c0-37.95,10.21-120.73,10.63-124.26a9.61,9.61,0,0,1,19.08,2.37c-0.14.83-10.5,85.12-10.5,121.88,0,34.27,15,58.34,15.2,58.56a9.73,9.73,0,0,1,1.31,7.18,72.94,72.94,0,0,0-1.66,14.77c7.07,1.89,30,5.28,80.19,5.28s73.06-3.39,80.16-5.28a71.77,71.77,0,0,0-1.66-14.74,9.94,9.94,0,0,1,1.31-7.24c0.15-.18,15.2-24.26,15.2-58.52,0-36.76-10.36-121.05-10.5-121.88a9.61,9.61,0,0,1,19.08-2.37c0.42,3.53,10.61,86.31,10.61,124.26a142.28,142.28,0,0,1-8.82,49.05l4.16,2.49a9.6,9.6,0,0,1,4.39,5.93,57.5,57.5,0,0,0,3.54,10c8.36-.92,28.17-4.16,36.27-6.41a56.81,56.81,0,0,0-1-9.63,9.88,9.88,0,0,1,.06-3.8c0-.23,4.62-21.67,4.62-39.3,0-16.16-32.65-160.16-41.54-175.13-4.81-4.51-18-12.35-29.19-18.53-9.44,18.33-33.22,36.7-74.46,39.73l7.81,53.63a9.64,9.64,0,0,1-8.13,10.92,10.25,10.25,0,0,1-1.37.09,9.61,9.61,0,0,1-9.5-8.22l-2.08-14.23a9.52,9.52,0,0,1-5.54,1.79c-0.42,0-.83,0-1.22-0.06a9.6,9.6,0,0,1-8.32-10.75l4.22-33.16C294.91,236.8,271,218.36,261.57,200c-11.26,6.21-24.38,14-29.19,18.53-8.86,14.94-41.54,159-41.54,175.13,0,17.7,4.59,39.07,4.62,39.3a9.88,9.88,0,0,1,.06,3.8,57.77,57.77,0,0,0-1,9.63c5,1.39,14.45,3.16,22.93,4.51-14.29,6.53-33.16,13.89-37.72,9.35-1.66-1.66-6.56-6.56-3.42-25.15-1.22-6-4.67-24.77-4.67-41.44,0-15.42,33.47-175,46.76-188.31,7.73-7.75,28.6-19.37,38.75-24.78a15.71,15.71,0,0,1,4.31-9.5,27.94,27.94,0,0,1,13-7.3c-0.29-5,.63-10.29,4.6-14.23,5.56-5.61,19.9-13.38,30.53-13.38,7.1,0,11.34,5.13,15.08,9.67,0.8,1,1.63,2,2.49,2.94l0.06,0.06a11.26,11.26,0,0,1,.8.91c4.42,4.79,9.92,8.86,20.25,8.86s15.91-4.13,20.31-9a8.77,8.77,0,0,1,.71-0.8l0.06-.06c0.86-1,1.71-2,2.49-2.94,3.74-4.54,8-9.67,15.08-9.67,10.63,0,25,7.78,30.53,13.35,4,4,4.9,9.3,4.6,14.25a28.11,28.11,0,0,1,13,7.32,15.42,15.42,0,0,1,4.28,9.47c10.12,5.41,31,17.06,38.8,24.81C491.43,218.62,524.9,378.24,524.9,393.66ZM420.23,184.54a4.58,4.58,0,0,0,.09-0.86C416.84,181.34,412,182,412,182A9.6,9.6,0,0,1,401.38,169a25,25,0,0,0,1.57-6.71,27.84,27.84,0,0,0-3.91-2.53c0.62,8.44-1.37,17.7-2.74,22.87-3.27,12.23-9.5,25.57-18.53,35.27,20.19-4.81,30.74-14,35.87-20.22,4.39-5.31,6-9.83,6.48-12.49C420.17,184.93,420.2,184.74,420.23,184.54ZM368.9,198.11a74.55,74.55,0,0,0,11-32.6c-6.47,6.11-16.26,12.27-31.59,12.27s-25.18-6.19-31.65-12.31a74.68,74.68,0,0,0,11,32.64c4.25,6.62,11.26,14.49,20.58,14.52h0.06C357.61,212.63,364.65,204.73,368.9,198.11Zm-11,24.13a2.49,2.49,0,0,0,0-.46v0.77A1,1,0,0,0,357.89,222.24Zm-0.06-1a3.62,3.62,0,0,0-.06-0.54,6.62,6.62,0,0,0-.25-1.06c0.09,0.35.15,0.71,0.22,1.06C357.77,220.89,357.8,221.09,357.83,221.24Zm-39-3.39c-9.07-9.7-15.28-23-18.57-35.27-1.37-5.17-3.36-14.43-2.74-22.87a24.61,24.61,0,0,0-3.91,2.56,23.76,23.76,0,0,0,1.6,6.68A9.59,9.59,0,0,1,284.58,182a13.86,13.86,0,0,0-1.69-.09,12.22,12.22,0,0,0-6.65,1.76,4.58,4.58,0,0,0,.09.86c0,0.2.06,0.39,0.09,0.6,0.52,2.66,2.11,7.18,6.5,12.49C288,203.84,298.63,213,318.83,217.85Z" transform="translate(-155.55 -136.15)"/><path class="cls-1" d="M505.71,393.66c0,17.63-4.59,39.07-4.62,39.3a9.88,9.88,0,0,0-.06,3.8,56.81,56.81,0,0,1,1,9.63c-8.1,2.25-27.91,5.48-36.27,6.41a57.5,57.5,0,0,1-3.54-10,9.6,9.6,0,0,0-4.39-5.93l-4.16-2.49a142.28,142.28,0,0,0,8.82-49.05c0-37.95-10.2-120.73-10.61-124.26a9.61,9.61,0,0,0-19.08,2.37c0.14,0.83,10.5,85.12,10.5,121.88,0,34.27-15,58.34-15.2,58.52a9.94,9.94,0,0,0-1.31,7.24,71.77,71.77,0,0,1,1.66,14.74c-7.1,1.89-30,5.28-80.16,5.28s-73.12-3.39-80.19-5.28A72.94,72.94,0,0,1,269.76,451a9.73,9.73,0,0,0-1.31-7.18c-0.15-.22-15.2-24.29-15.2-58.56,0-36.76,10.36-121.05,10.5-121.88a9.61,9.61,0,0,0-19.08-2.37C244.26,264.58,234,347.36,234,385.31a142.24,142.24,0,0,0,8.84,49.05l-4.16,2.49a9.75,9.75,0,0,0-4.39,5.88c-0.15,0-7.55,3.91-16.88,8.16-8.49-1.36-17.93-3.13-22.93-4.51a57.77,57.77,0,0,1,1-9.63,9.88,9.88,0,0,0-.06-3.8c0-.23-4.62-21.61-4.62-39.3,0-16.16,32.68-160.19,41.54-175.13,4.81-4.51,17.93-12.32,29.19-18.53,9.47,18.36,33.34,36.79,74.82,39.73l-4.22,33.16a9.6,9.6,0,0,0,8.32,10.75c0.39,0,.8.06,1.22,0.06a9.52,9.52,0,0,0,5.54-1.79l2.08,14.23a9.61,9.61,0,0,0,9.5,8.22,10.25,10.25,0,0,0,1.37-.09,9.64,9.64,0,0,0,8.13-10.92l-7.81-53.63c41.24-3,65-21.41,74.46-39.73,11.23,6.18,24.38,14,29.19,18.53C473.06,233.5,505.71,377.5,505.71,393.66Zm-82.38-4.48A9.7,9.7,0,0,0,417.06,377c-1.85-.62-18.36-6.82-18.36-33.48a9.62,9.62,0,0,0-9.61-9.59H307.47a9.62,9.62,0,0,0-9.61,9.59c0,26.66-16.51,32.87-18.23,33.45a9.57,9.57,0,0,0-6.39,12.18L283.33,420a9.62,9.62,0,0,0,7,6.38c0.92,0.18,23,5.05,58,5.05s57-4.87,57.92-5.05a9.62,9.62,0,0,0,7-6.38Z" transform="translate(-155.55 -136.15)"/><path class="cls-1" d="M417.06,377a9.7,9.7,0,0,1,6.27,12.15L413.23,420a9.62,9.62,0,0,1-7,6.38c-0.92.18-23,5.05-57.92,5.05s-57-4.87-58-5.05a9.62,9.62,0,0,1-7-6.38l-10.1-30.79A9.57,9.57,0,0,1,279.62,377c1.72-.59,18.23-6.79,18.23-33.45a9.62,9.62,0,0,1,9.61-9.59h81.63a9.62,9.62,0,0,1,9.61,9.59C398.7,370.2,415.21,376.41,417.06,377Zm-20.31,31.54L402.54,391c-8.32-5.34-19.78-16.45-22.47-37.89H316.46c-2.66,21.44-14.12,32.54-22.41,37.89l5.76,17.53a303,303,0,0,0,48.48,3.62A302.82,302.82,0,0,0,396.75,408.57Z" transform="translate(-155.55 -136.15)"/><path class="cls-1" d="M420.33,183.68a4.58,4.58,0,0,1-.09.86c0,0.2-.06.39-0.11,0.6-0.51,2.66-2.09,7.18-6.48,12.49-5.13,6.21-15.68,15.42-35.87,20.22,9-9.7,15.26-23,18.53-35.27,1.37-5.17,3.36-14.43,2.74-22.87a27.84,27.84,0,0,1,3.91,2.53,25,25,0,0,1-1.57,6.71A9.6,9.6,0,0,0,412,182C412,182,416.84,181.34,420.33,183.68Z" transform="translate(-155.55 -136.15)"/><path class="cls-1" d="M402.54,391l-5.79,17.53a302.82,302.82,0,0,1-48.45,3.62,303,303,0,0,1-48.48-3.62L294.05,391c8.29-5.34,19.74-16.45,22.41-37.89h63.61C382.76,374.59,394.22,385.7,402.54,391Z" transform="translate(-155.55 -136.15)"/><path class="cls-1" d="M379.88,165.51a74.55,74.55,0,0,1-11,32.6c-4.25,6.62-11.29,14.52-20.61,14.52h-0.06c-9.32,0-16.33-7.9-20.58-14.52a74.68,74.68,0,0,1-11-32.64c6.47,6.11,16.28,12.31,31.65,12.31S373.41,171.62,379.88,165.51Z" transform="translate(-155.55 -136.15)"/><path class="cls-1" d="M357.86,221.78a2.49,2.49,0,0,1,0,.46,1,1,0,0,1,0,.31v-0.77Z" transform="translate(-155.55 -136.15)"/><path class="cls-1" d="M357.77,220.7a3.62,3.62,0,0,1,.06.54c0-.15-0.06-0.35-0.09-0.54h0Z" transform="translate(-155.55 -136.15)"/><path class="cls-1" d="M357.77,220.7h0c-0.06-.35-0.12-0.71-0.22-1.06A6.62,6.62,0,0,1,357.77,220.7Z" transform="translate(-155.55 -136.15)"/><path class="cls-1" d="M300.26,182.59c3.3,12.23,9.5,25.57,18.57,35.27-20.21-4.81-30.79-14-35.92-20.22-4.39-5.31-6-9.83-6.5-12.49,0-.22-0.06-0.4-0.09-0.6a4.58,4.58,0,0,1-.09-0.86,12.22,12.22,0,0,1,6.65-1.76,13.86,13.86,0,0,1,1.69.09A9.59,9.59,0,0,0,295.21,169a23.76,23.76,0,0,1-1.6-6.68,24.61,24.61,0,0,1,3.91-2.56C296.9,168.15,298.89,177.41,300.26,182.59Z" transform="translate(-155.55 -136.15)"/><path class="cls-1" d="M234.34,442.74a57.78,57.78,0,0,1-3.51,10.06c-3.22-.35-8.1-1-13.37-1.89C226.79,446.65,234.19,442.74,234.34,442.74Z" transform="translate(-155.55 -136.15)"/><path class="cls-2" d="M508.81,393.67c0,16.66-3.47,35.48-4.65,41.43,3.11,18.59-1.79,23.49-3.45,25.12-7.53,7.56-53.83,12.07-54.24,12.07-7.52,0-12.23-6.47-15.14-13.06,0.83,9.72-.66,16.54-4.44,20.34-8.87,8.87-56.4,10.72-94.7,10.72s-85.85-1.85-94.72-10.72c-3.77-3.8-5.28-10.6-4.45-20.31-2.88,6.59-7.61,13-15.12,13-0.43,0-46.73-4.51-54.24-12-1.66-1.66-6.56-6.56-3.43-25.15-1.22-5.94-4.67-24.77-4.67-41.43,0-15.43,33.47-175,46.76-188.33,7.75-7.75,28.6-19.36,38.75-24.77a15.63,15.63,0,0,1,4.31-9.5,27.8,27.8,0,0,1,13-7.3c-0.29-5,.65-10.3,4.6-14.25,5.58-5.59,19.9-13.37,30.53-13.37,7.12,0,11.34,5.11,15.08,9.66,0.8,1,1.63,2,2.49,2.94l0.06,0.06a8.9,8.9,0,0,1,.8.91c4.42,4.79,9.92,8.86,20.25,8.86s15.91-4.13,20.33-9c0.22-.28.45-0.54,0.69-0.8l0.08-.06c0.86-1,1.69-1.94,2.49-2.94,3.74-4.54,8-9.66,15.06-9.66,10.63,0,25,7.78,30.54,13.34,4,4,4.88,9.32,4.6,14.25a28.18,28.18,0,0,1,13,7.33,15.36,15.36,0,0,1,4.3,9.47c10.1,5.41,31,17,38.78,24.8C475.33,218.62,508.81,378.24,508.81,393.67ZM485,433c0-.22,4.6-21.67,4.6-39.29,0-16.17-32.65-160.17-41.54-175.14-4.81-4.51-18-12.35-29.19-18.53-9.44,18.33-33.22,36.7-74.46,39.73l7.81,53.64a9.62,9.62,0,0,1-8.13,10.9,8.22,8.22,0,0,1-1.37.11,9.64,9.64,0,0,1-9.5-8.22l-2.08-14.25a9.52,9.52,0,0,1-5.54,1.79c-0.42,0-.83,0-1.22-0.06a9.61,9.61,0,0,1-8.32-10.75l4.22-33.16c-41.48-2.94-65.35-21.38-74.82-39.73-11.26,6.21-24.38,14-29.17,18.53-8.87,14.94-41.54,159-41.54,175.14,0,17.7,4.57,39.07,4.6,39.29a9.31,9.31,0,0,1,.06,3.8,57.79,57.79,0,0,0-1,9.64c8.09,2.23,27.88,5.47,36.29,6.39a56.33,56.33,0,0,0,3.51-10,9.82,9.82,0,0,1,4.39-5.9l4.16-2.49A142.28,142.28,0,0,1,218,385.31c0-37.95,10.21-120.73,10.63-124.26a9.61,9.61,0,0,1,19.07,2.37c-0.12.83-10.5,85.12-10.5,121.88,0,34.28,15,58.34,15.2,58.57a9.62,9.62,0,0,1,1.31,7.16A74.32,74.32,0,0,0,252,465.82c7.08,1.88,30,5.28,80.19,5.28s73.06-3.4,80.16-5.28a72,72,0,0,0-1.66-14.75,9.9,9.9,0,0,1,1.31-7.22c0.17-.2,15.2-24.26,15.2-58.54,0-36.76-10.36-121.05-10.49-121.88A9.61,9.61,0,0,1,435.78,261c0.42,3.53,10.63,86.31,10.63,124.26a142.24,142.24,0,0,1-8.84,49.05l4.16,2.49a9.57,9.57,0,0,1,4.39,5.93,55.33,55.33,0,0,0,3.56,10c8.35-.92,28.15-4.16,36.25-6.39a56.82,56.82,0,0,0-1-9.64A9.59,9.59,0,0,1,485,433ZM404.13,184.54a4.45,4.45,0,0,0,.09-0.86c-3.48-2.33-8.29-1.66-8.35-1.66a9.59,9.59,0,0,1-10.6-13,25.22,25.22,0,0,0,1.57-6.73,27.61,27.61,0,0,0-3.9-2.53c0.6,8.46-1.39,17.7-2.76,22.89-3.27,12.21-9.5,25.57-18.53,35.25,20.19-4.79,30.76-14,35.87-20.22,4.39-5.31,6-9.83,6.5-12.47C404.07,184.92,404.1,184.74,404.13,184.54ZM352.8,198.1a74.15,74.15,0,0,0,11-32.6c-6.47,6.11-16.25,12.29-31.59,12.29s-25.18-6.21-31.65-12.32a74.88,74.88,0,0,0,11,32.64c4.25,6.62,11.26,14.49,20.58,14.54h0.06C341.51,212.64,348.54,204.73,352.8,198.1Zm-11,24.13a1.57,1.57,0,0,0,0-.45v0.77A0.75,0.75,0,0,0,341.8,222.24Zm-0.06-1a4.11,4.11,0,0,0-.08-0.54,6.44,6.44,0,0,0-.25-1c0.09,0.35.15,0.69,0.22,1A4.16,4.16,0,0,0,341.74,221.24Zm-39-3.39c-9.06-9.69-15.26-23-18.57-35.25-1.37-5.19-3.36-14.43-2.74-22.89a23.73,23.73,0,0,0-3.9,2.56,23.8,23.8,0,0,0,1.59,6.7,9.59,9.59,0,0,1-10.61,13,14,14,0,0,0-1.71-.09,12.39,12.39,0,0,0-6.65,1.76,4.45,4.45,0,0,0,.09.86c0,0.2.08,0.39,0.11,0.62,0.51,2.65,2.11,7.16,6.48,12.47C271.94,203.83,282.53,213.06,302.73,217.85Z" transform="translate(-155.55 -136.15)"/><path class="cls-1" d="M489.6,393.67c0,17.62-4.57,39.07-4.6,39.29a9.59,9.59,0,0,0-.08,3.8,56.82,56.82,0,0,1,1,9.64c-8.1,2.23-27.91,5.47-36.25,6.39a55.33,55.33,0,0,1-3.56-10,9.57,9.57,0,0,0-4.39-5.93l-4.16-2.49a142.24,142.24,0,0,0,8.84-49.05c0-37.95-10.21-120.73-10.63-124.26a9.61,9.61,0,0,0-19.07,2.37c0.12,0.83,10.49,85.12,10.49,121.88,0,34.28-15,58.34-15.2,58.54a9.9,9.9,0,0,0-1.31,7.22,72,72,0,0,1,1.66,14.75c-7.1,1.88-30,5.28-80.16,5.28s-73.11-3.4-80.19-5.28A74.32,74.32,0,0,1,253.66,451a9.62,9.62,0,0,0-1.31-7.16c-0.15-.23-15.2-24.29-15.2-58.57,0-36.76,10.38-121.05,10.5-121.88A9.61,9.61,0,0,0,228.58,261C228.17,264.58,218,347.36,218,385.31a142.28,142.28,0,0,0,8.82,49.05l-4.16,2.49a9.82,9.82,0,0,0-4.39,5.9,56.33,56.33,0,0,1-3.51,10c-8.41-.92-28.2-4.16-36.29-6.39a57.79,57.79,0,0,1,1-9.64,9.31,9.31,0,0,0-.06-3.8c0-.22-4.6-21.59-4.6-39.29,0-16.17,32.67-160.2,41.54-175.14,4.79-4.51,17.91-12.32,29.17-18.53,9.47,18.36,33.34,36.79,74.82,39.73l-4.22,33.16a9.61,9.61,0,0,0,8.32,10.75c0.39,0,.8.06,1.22,0.06a9.52,9.52,0,0,0,5.54-1.79l2.08,14.25a9.64,9.64,0,0,0,9.5,8.22,8.22,8.22,0,0,0,1.37-.11,9.62,9.62,0,0,0,8.13-10.9l-7.81-53.64c41.24-3,65-21.41,74.46-39.73,11.23,6.18,24.38,14,29.19,18.53C457,233.5,489.6,377.5,489.6,393.67Zm-82.38-4.48A9.69,9.69,0,0,0,401,377c-1.85-.6-18.36-6.82-18.36-33.47a9.62,9.62,0,0,0-9.61-9.61H291.36a9.61,9.61,0,0,0-9.59,9.61c0,26.64-16.51,32.87-18.23,33.44a9.59,9.59,0,0,0-6.41,12.2L267.23,420a9.62,9.62,0,0,0,7,6.38c0.92,0.18,23,5.05,57.94,5.05s57-4.87,57.92-5.05a9.59,9.59,0,0,0,7-6.38Z" transform="translate(-155.55 -136.15)"/><path class="cls-2" d="M401,377a9.69,9.69,0,0,1,6.27,12.17L397.12,420a9.59,9.59,0,0,1-7,6.38c-0.92.18-23,5.05-57.92,5.05s-57-4.87-57.94-5.05a9.62,9.62,0,0,1-7-6.38l-10.1-30.77a9.59,9.59,0,0,1,6.41-12.2c1.72-.57,18.23-6.79,18.23-33.44a9.61,9.61,0,0,1,9.59-9.61H373a9.62,9.62,0,0,1,9.61,9.61C382.6,370.2,399.11,376.42,401,377Zm-20.31,31.56L386.43,391c-8.32-5.34-19.78-16.45-22.47-37.89H300.35C297.69,374.59,286.25,385.69,278,391l5.74,17.54A326.34,326.34,0,0,0,380.64,408.58Z" transform="translate(-155.55 -136.15)"/><path class="cls-1" d="M404.22,183.67a4.45,4.45,0,0,1-.09.86c0,0.2-.06.39-0.09,0.62-0.51,2.65-2.11,7.16-6.5,12.47-5.11,6.21-15.68,15.43-35.87,20.22,9-9.69,15.26-23,18.53-35.25,1.37-5.19,3.36-14.43,2.76-22.89a27.61,27.61,0,0,1,3.9,2.53,25.22,25.22,0,0,1-1.57,6.73,9.59,9.59,0,0,0,10.6,13C395.93,182,400.74,181.35,404.22,183.67Z" transform="translate(-155.55 -136.15)"/><path class="cls-1" d="M386.43,391l-5.79,17.54a326.34,326.34,0,0,1-96.93,0L278,391c8.29-5.34,19.73-16.45,22.39-37.89H364C366.66,374.59,378.11,385.69,386.43,391Z" transform="translate(-155.55 -136.15)"/><path class="cls-1" d="M363.78,165.5a74.15,74.15,0,0,1-11,32.6c-4.25,6.62-11.29,14.54-20.61,14.54h-0.06c-9.32,0-16.33-7.92-20.58-14.54a74.88,74.88,0,0,1-11-32.64c6.47,6.11,16.29,12.32,31.65,12.32S357.31,171.61,363.78,165.5Z" transform="translate(-155.55 -136.15)"/><path class="cls-2" d="M341.75,221.79a1.57,1.57,0,0,1,0,.45,0.75,0.75,0,0,1,0,.32v-0.77Z" transform="translate(-155.55 -136.15)"/><path class="cls-2" d="M341.66,220.7a4.11,4.11,0,0,1,.08.54,4.16,4.16,0,0,1-.11-0.54h0Z" transform="translate(-155.55 -136.15)"/><path class="cls-2" d="M341.66,220.7h0c-0.06-.35-0.12-0.69-0.22-1A6.44,6.44,0,0,1,341.66,220.7Z" transform="translate(-155.55 -136.15)"/><path class="cls-1" d="M284.15,182.6c3.31,12.21,9.52,25.57,18.57,35.25-20.19-4.79-30.79-14-35.92-20.22-4.37-5.31-6-9.83-6.48-12.47,0-.23-0.08-0.42-0.11-0.62a4.45,4.45,0,0,1-.09-0.86,12.39,12.39,0,0,1,6.65-1.76,14,14,0,0,1,1.71.09,9.59,9.59,0,0,0,10.61-13,23.8,23.8,0,0,1-1.59-6.7,23.73,23.73,0,0,1,3.9-2.56C280.79,168.16,282.78,177.41,284.15,182.6Z" transform="translate(-155.55 -136.15)"/></svg>