<svg id="T_Shirt" data-name="T Shirt" xmlns="http://www.w3.org/2000/svg" viewBox="0 0 337.88 357.52"><defs><style>.cls-1{fill:#fff;}.cls-2{fill:#231f20;}</style></defs><title>tshirtswag</title><path class="cls-1" d="M509,299.22c-9.38-36.43-26.56-98.93-36.1-108.47-11.31-11.31-68.45-33.49-87.76-34.18a8.71,8.71,0,0,0-.91,0,8.27,8.27,0,0,0-1.57.13,1.21,1.21,0,0,0-.32.06,3.65,3.65,0,0,0-.79.2,0.71,0.71,0,0,0-.23.07,7.65,7.65,0,0,0-.91.33,9,9,0,0,0-3.14,2.12,0,0,0,0,0,0,0l-0.26.26c-2,1.73-12.68,10.85-27.47,10.85-15.16,0-26.14-9.64-27.61-11l-0.16-.16a9.74,9.74,0,0,0-4-2.42,9,9,0,0,0-.94-0.26,9.72,9.72,0,0,0-2-.19c-0.29,0-.62,0-0.95,0-19.31.72-76.42,22.87-87.73,34.18-9.57,9.54-26.72,72-36.13,108.47a9.81,9.81,0,0,0,.17,5.39c0.46,1.44,11.11,33.55,53.71,37.51-1.9,51.88-4.25,117.81-4.25,122.88,0,32.57,37,49.07,109.88,49.07S459.37,497.57,459.37,465c0-5.07-2.39-71-4.25-122.88,42.6-4,53.26-36.07,53.71-37.51A9.8,9.8,0,0,0,509,299.22Z" transform="translate(-171.4 -156.54)"/><path class="cls-2" d="M490.71,299.22c-9.38-36.43-26.56-98.93-36.1-108.47-11.31-11.31-68.45-33.49-87.76-34.18a8.71,8.71,0,0,0-.91,0,8.27,8.27,0,0,0-1.57.13,1.21,1.21,0,0,0-.32.06,3.65,3.65,0,0,0-.79.2,0.71,0.71,0,0,0-.23.07,7.65,7.65,0,0,0-.91.33,9,9,0,0,0-3.14,2.12,0,0,0,0,0,0,0l-0.26.26c-2,1.73-12.68,10.85-27.47,10.85-15.16,0-26.14-9.64-27.61-11l-0.16-.16a9.74,9.74,0,0,0-4-2.42,9,9,0,0,0-.94-0.26,9.72,9.72,0,0,0-2-.19c-0.29,0-.62,0-0.95,0-19.31.72-76.42,22.87-87.73,34.18-9.57,9.54-26.72,72-36.13,108.47a9.81,9.81,0,0,0,.17,5.39c0.46,1.44,11.11,33.55,53.71,37.51-1.9,51.88-4.25,117.81-4.25,122.88,0,32.57,37,49.07,109.88,49.07S441.11,497.57,441.11,465c0-5.07-2.39-71-4.25-122.88,42.6-4,53.26-36.07,53.71-37.51A9.8,9.8,0,0,0,490.71,299.22ZM296.44,178.82c7.13,5,19.31,11.37,34.76,11.37s27.64-6.4,34.76-11.37a32.34,32.34,0,0,1,1.21,22.77c-5.23,15.65-22.45,19-36,19s-30.75-3.3-36-19A32.32,32.32,0,0,1,296.44,178.82ZM437.22,322.35l-2.68-43.09a9.8,9.8,0,0,0-19.57,1c2.26,61.13,6.53,178.45,6.53,184.76,0,18.72-32.93,29.46-90.3,29.46S240.93,483.71,240.93,465c0-6.31,4.28-123.63,6.53-184.76a9.81,9.81,0,0,0-9.31-10.16h-0.49a9.78,9.78,0,0,0-9.77,9.18l-2.68,43.06c-22.29-2.91-31-16.07-33.69-21.4,10.88-41.85,25.26-89.59,30.32-96.48,5.45-5.13,32.67-16.83,53.42-23.46a53.52,53.52,0,0,0-1.15,10.95c0,12.74,4.58,24.41,12.84,32.77,10.1,10.26,25,15.45,44.24,15.45s34.17-5.2,44.27-15.45c8.27-8.37,12.81-20,12.81-32.77A53.77,53.77,0,0,0,387.14,181c20.78,6.63,48,18.33,53.45,23.46,5.06,6.89,19.44,54.62,30.32,96.51C468.26,306.28,459.57,319.44,437.22,322.35Z" transform="translate(-171.4 -156.54)"/></svg>