<svg id="USB" xmlns="http://www.w3.org/2000/svg" viewBox="0 0 444.41 154.36"><defs><style>.cls-1{fill:#fff;}.cls-2{fill:#231f20;}</style></defs><title>usbswag</title><path class="cls-1" d="M584.64,286.77V375A10.62,10.62,0,0,1,574,385.67H486.1v5.11a10.65,10.65,0,0,1-10.64,10.64H215.11c-43.15,0-65-23.74-65-70.54s21.87-70.5,65-70.5l253.88,7c5.89,0,17.11-2.23,17.11,3.65v5.11H574A10.62,10.62,0,0,1,584.64,286.77Zm-21.28,77.6v-67H486.1v67h77.26Zm-98.54,15.75V281.66H215.11c-21.15,0-43.71,3.81-43.71,49.22s22.57,49.24,43.71,49.24H464.82Z" transform="translate(-140.22 -247.06)"/><path class="cls-1" d="M563.36,297.41v67H543v-3.29a10.62,10.62,0,0,0,10.64-10.64V340.18a10.59,10.59,0,0,0-5.43-9.26,10.72,10.72,0,0,0,5.43-9.3v-10.3A10.62,10.62,0,0,0,543,300.68v-3.28h20.41Z" transform="translate(-140.22 -247.06)"/><path class="cls-1" d="M553.59,340.18v10.26A10.62,10.62,0,0,1,543,361.08h-6.32A10.62,10.62,0,0,1,526,350.44V340.18a10.59,10.59,0,0,1,5.43-9.26,10.72,10.72,0,0,1-5.43-9.3v-10.3a10.62,10.62,0,0,1,10.64-10.64H543a10.62,10.62,0,0,1,10.64,10.64v10.3a10.72,10.72,0,0,1-5.43,9.3A10.59,10.59,0,0,1,553.59,340.18Z" transform="translate(-140.22 -247.06)"/><path class="cls-1" d="M543,361.08v3.29H486.1v-67H543v3.28h-6.32A10.62,10.62,0,0,0,526,311.32v10.3a10.72,10.72,0,0,0,5.43,9.3,10.59,10.59,0,0,0-5.43,9.26v10.26a10.62,10.62,0,0,0,10.64,10.64H543Z" transform="translate(-140.22 -247.06)"/><path class="cls-1" d="M464.82,281.66v98.47H215.11c-21.15,0-43.71-3.79-43.71-49.24s22.57-49.22,43.71-49.22H464.82ZM399.2,351.74V310a10.62,10.62,0,0,0-10.64-10.64H257.19A10.65,10.65,0,0,0,246.55,310v41.73a10.65,10.65,0,0,0,10.64,10.64H388.56A10.62,10.62,0,0,0,399.2,351.74Z" transform="translate(-140.22 -247.06)"/><path class="cls-1" d="M399.2,310v41.73a10.62,10.62,0,0,1-10.64,10.64H257.19a10.65,10.65,0,0,1-10.64-10.64V310a10.65,10.65,0,0,1,10.64-10.64H388.56A10.62,10.62,0,0,1,399.2,310ZM377.92,341.1V320.66H267.83V341.1H377.92Z" transform="translate(-140.22 -247.06)"/><rect class="cls-1" x="127.61" y="73.6" width="110.09" height="20.45"/><path class="cls-2" d="M574.77,273.45v88.26a10.62,10.62,0,0,1-10.64,10.64h-87.9v5.11a10.65,10.65,0,0,1-10.64,10.64H205.24c-43.15,0-65-23.74-65-70.54s21.87-70.5,65-70.5H465.59a10.62,10.62,0,0,1,10.64,10.64v5.11h87.9A10.62,10.62,0,0,1,574.77,273.45Zm-21.28,77.6v-67H476.23v67h77.26ZM454.95,366.8V268.34H205.24c-21.15,0-43.71,3.81-43.71,49.22s22.57,49.24,43.71,49.24H454.95Z" transform="translate(-140.22 -247.06)"/><path class="cls-1" d="M553.49,284.09v67H533.08v-3.29a10.62,10.62,0,0,0,10.64-10.64V326.86a10.59,10.59,0,0,0-5.43-9.26,10.72,10.72,0,0,0,5.43-9.3V298a10.62,10.62,0,0,0-10.64-10.64v-3.28h20.41Z" transform="translate(-140.22 -247.06)"/><path class="cls-2" d="M543.72,326.86v10.26a10.62,10.62,0,0,1-10.64,10.64h-6.32a10.62,10.62,0,0,1-10.64-10.64V326.86a10.59,10.59,0,0,1,5.43-9.26,10.72,10.72,0,0,1-5.43-9.3V298a10.62,10.62,0,0,1,10.64-10.64h6.32A10.62,10.62,0,0,1,543.72,298v10.3a10.72,10.72,0,0,1-5.43,9.3A10.59,10.59,0,0,1,543.72,326.86Z" transform="translate(-140.22 -247.06)"/><path class="cls-1" d="M533.08,347.76v3.29H476.23v-67h56.85v3.28h-6.32A10.62,10.62,0,0,0,516.12,298v10.3a10.72,10.72,0,0,0,5.43,9.3,10.59,10.59,0,0,0-5.43,9.26v10.26a10.62,10.62,0,0,0,10.64,10.64h6.32Z" transform="translate(-140.22 -247.06)"/><path class="cls-1" d="M454.95,268.34V366.8H205.24c-21.15,0-43.71-3.79-43.71-49.24s22.57-49.22,43.71-49.22H454.95Zm-65.62,70.09V296.7a10.62,10.62,0,0,0-10.64-10.64H247.32a10.65,10.65,0,0,0-10.64,10.64v41.73a10.65,10.65,0,0,0,10.64,10.64H378.69A10.62,10.62,0,0,0,389.33,338.42Z" transform="translate(-140.22 -247.06)"/><path class="cls-2" d="M389.33,296.7v41.73a10.62,10.62,0,0,1-10.64,10.64H247.32a10.65,10.65,0,0,1-10.64-10.64V296.7a10.65,10.65,0,0,1,10.64-10.64H378.69A10.62,10.62,0,0,1,389.33,296.7Zm-21.28,31.09V307.34H258v20.45H368.05Z" transform="translate(-140.22 -247.06)"/><rect class="cls-1" x="117.74" y="60.28" width="110.09" height="20.45"/></svg>