<svg id="watch" xmlns="http://www.w3.org/2000/svg" viewBox="0 0 426.49 220.2"><defs><style>.cls-1{fill:#fff;}.cls-2{fill:#231f20;}</style></defs><title>watchswag</title><path class="cls-1" d="M580.34,288.74v83.07c0,7.08,0,25.57-100.76,34.24-5.45,19.73-23,34.18-43.87,34.18h-122c-20.82,0-46-24.28-51.42-44-100.76-8.65-93.21-17.33-93.21-24.41V288.74c0-7,0-25.55,100.73-34.22,5.45-19.71,23.08-34.2,43.9-34.2h122c20.82,0,38.45,14.49,43.9,34.2C580.34,263.19,580.34,281.7,580.34,288.74ZM560,369.23v-77.9c-7.52-5-38.66-11.83-78.7-15.6V384.86C521.38,381.06,552.53,374.21,560,369.23Zm-99,23.93V267.38c0-14.38-11.36-26.1-25.32-26.1h-122c-13.94,0-25.32,11.72-25.32,26.1V393.16c0,14.43,11.38,26.12,25.32,26.12h122C449.67,419.28,461,407.6,461,393.16Zm-192.91-8.3V275.73c-40,3.77-71.19,10.65-78.69,15.6v77.9C196.93,374.21,228.08,381.06,268.12,384.86Z" transform="translate(-153.84 -220.03)"/><path class="cls-1" d="M560,291.33v77.9c-7.52,5-38.66,11.83-78.7,15.63V275.73C521.38,279.5,552.53,286.38,560,291.33Z" transform="translate(-153.84 -220.03)"/><path class="cls-1" d="M461,267.38V393.16c0,14.43-11.36,26.12-25.32,26.12h-122c-13.94,0-25.32-11.68-25.32-26.12V267.38c0-14.38,11.38-26.1,25.32-26.1h122C449.67,241.28,461,253,461,267.38Zm-11.63,105V288.22c0-19.27-15.21-34.95-33.88-34.95H333.94c-18.69,0-33.88,15.67-33.88,34.95v84.14c0,19.26,15.19,34.95,33.88,34.95h81.58C434.19,407.3,449.4,391.61,449.4,372.36Z" transform="translate(-153.84 -220.03)"/><path class="cls-1" d="M449.4,288.22v84.14c0,19.26-15.21,34.95-33.88,34.95H333.94c-18.69,0-33.88-15.69-33.88-34.95V288.22c0-19.27,15.19-34.95,33.88-34.95h81.58C434.19,253.27,449.4,268.94,449.4,288.22Zm-20.31,84.14V288.22a13.8,13.8,0,0,0-13.57-14H333.94a13.8,13.8,0,0,0-13.57,14v84.14a13.8,13.8,0,0,0,13.57,14h81.58A13.8,13.8,0,0,0,429.09,372.36Z" transform="translate(-153.84 -220.03)"/><path class="cls-1" d="M429.09,288.22v84.14a13.8,13.8,0,0,1-13.57,14H333.94a13.8,13.8,0,0,1-13.57-14V288.22a13.8,13.8,0,0,1,13.57-14h81.58A13.8,13.8,0,0,1,429.09,288.22Zm-31.57,65.58a10.68,10.68,0,0,0,0-14.8l-12.63-13.05v-25a10.16,10.16,0,1,0-20.31,0v29.34a10.62,10.62,0,0,0,3,7.41l15.62,16.11A9.92,9.92,0,0,0,397.52,353.79Z" transform="translate(-153.84 -220.03)"/><path class="cls-1" d="M397.52,339a10.68,10.68,0,0,1,0,14.8,9.92,9.92,0,0,1-14.36,0l-15.62-16.11a10.62,10.62,0,0,1-3-7.41V300.94a10.16,10.16,0,1,1,20.31,0v25Z" transform="translate(-153.84 -220.03)"/><path class="cls-1" d="M268.12,275.73V384.86c-40-3.8-71.19-10.65-78.69-15.63v-77.9C196.93,286.38,228.08,279.5,268.12,275.73Z" transform="translate(-153.84 -220.03)"/><path class="cls-2" d="M565.06,286.36V366.9c0,6.86,0,24.79-100.76,33.19a45.68,45.68,0,0,1-43.87,33.14h-122a45.68,45.68,0,0,1-43.87-33.14c-100.76-8.4-100.76-26.33-100.76-33.19V286.36c0-6.83,0-24.78,100.73-33.18A45.75,45.75,0,0,1,298.47,220h122a45.75,45.75,0,0,1,43.9,33.16C565.06,261.59,565.06,279.54,565.06,286.36Zm-20.29,78V288.87c-7.52-4.8-38.66-11.47-78.7-15.12V379.56C506.1,375.87,537.25,369.23,544.77,364.4Zm-99,23.21v-122a25.35,25.35,0,0,0-25.32-25.31h-122a25.36,25.36,0,0,0-25.32,25.31v122a25.35,25.35,0,0,0,25.32,25.32h122A25.33,25.33,0,0,0,445.75,387.6Zm-192.91-8V273.75c-40,3.65-71.19,10.32-78.69,15.12V364.4C181.66,369.23,212.8,375.87,252.84,379.56Z" transform="translate(-153.84 -220.03)"/><path class="cls-1" d="M544.77,288.87V364.4c-7.52,4.84-38.66,11.47-78.7,15.16V273.75C506.1,277.4,537.25,284.07,544.77,288.87Z" transform="translate(-153.84 -220.03)"/><path class="cls-1" d="M445.75,265.65v122a25.33,25.33,0,0,1-25.32,25.32h-122a25.35,25.35,0,0,1-25.32-25.32v-122a25.36,25.36,0,0,1,25.32-25.31h122A25.35,25.35,0,0,1,445.75,265.65ZM434.12,367.43V285.85A33.92,33.92,0,0,0,400.24,252H318.66a33.91,33.91,0,0,0-33.88,33.88v81.58a33.92,33.92,0,0,0,33.88,33.88h81.58A33.94,33.94,0,0,0,434.12,367.43Z" transform="translate(-153.84 -220.03)"/><path class="cls-2" d="M434.12,285.85v81.58a33.94,33.94,0,0,1-33.88,33.88H318.66a33.92,33.92,0,0,1-33.88-33.88V285.85A33.91,33.91,0,0,1,318.66,252h81.58A33.92,33.92,0,0,1,434.12,285.85Zm-20.31,81.58V285.85a13.59,13.59,0,0,0-13.57-13.57H318.66a13.59,13.59,0,0,0-13.57,13.57v81.58A13.59,13.59,0,0,0,318.66,381h81.58A13.59,13.59,0,0,0,413.81,367.43Z" transform="translate(-153.84 -220.03)"/><path class="cls-1" d="M413.81,285.85v81.58A13.59,13.59,0,0,1,400.24,381H318.66a13.59,13.59,0,0,1-13.57-13.57V285.85a13.59,13.59,0,0,1,13.57-13.57h81.58A13.59,13.59,0,0,1,413.81,285.85Zm-31.57,63.58a10.13,10.13,0,0,0,0-14.35l-12.63-12.65V298.19a10.16,10.16,0,0,0-20.31,0v28.45a10.13,10.13,0,0,0,3,7.18l15.62,15.62A10.14,10.14,0,0,0,382.24,349.43Z" transform="translate(-153.84 -220.03)"/><path class="cls-2" d="M382.24,335.09a10.15,10.15,0,1,1-14.36,14.35l-15.62-15.62a10.13,10.13,0,0,1-3-7.18V298.19a10.16,10.16,0,0,1,20.31,0v24.25Z" transform="translate(-153.84 -220.03)"/><path class="cls-1" d="M252.84,273.75V379.56c-40-3.69-71.19-10.32-78.69-15.16V288.87C181.66,284.07,212.8,277.4,252.84,273.75Z" transform="translate(-153.84 -220.03)"/></svg>