<svg id="water_bottle" data-name="water bottle" xmlns="http://www.w3.org/2000/svg" viewBox="0 0 170.54 422.95"><defs><style>.cls-1{fill:#fff;}.cls-2{fill:#231f20;}</style></defs><title>waterbottleswag</title><path class="cls-1" d="M444.12,340.29l0,128.8c0,38.35-28.52,60.37-78.27,60.37s-78.25-29.66-78.25-68V340.29c0-7.81,3.57-14.54,6.73-20.47,1.85-3.45,4.1-7.7,4.1-9.92,0-2-2.09-5.71-3.94-9-3-5.41-6.88-12.14-6.88-20.1V224.27c0-21.79,16.69-36.41,28.86-47.11,3.8-3.31,9.44-8.27,10.67-10.61v-2.28a11.22,11.22,0,0,1-5.82-9.89c0-2.45-.08-4.77-0.11-7-0.31-10.93-.57-22.24,7.62-30.62,7-7.22,18.07-10.26,37-10.26s30,3,37,10.26c8.19,8.38,7.9,19.68,7.64,30.62,0,2.22-.11,4.54-0.11,7a11.2,11.2,0,0,1-5.84,9.89v2.28c1.25,2.34,6.87,7.3,10.67,10.61,12.17,10.7,28.86,25.32,28.86,47.11v56.51c0,8-3.83,14.69-6.88,20.1-1.83,3.31-3.94,7-3.94,9,0,2.22,2.26,6.47,4.1,9.92C440.55,325.75,444.12,332.48,444.12,340.29ZM421.58,461.44V340.29c0-2.17-2.29-6.45-4.1-9.92-3.16-5.93-6.73-12.66-6.73-20.47s3.8-14.69,6.88-20.1c1.83-3.27,3.94-7,3.94-9V224.27c0-11.58-11.27-21.45-21.19-30.17-9.16-8-17.85-15.63-18.3-25.92-4.81.25-10.26,0.4-16.23,0.4s-11.38-.15-16.2-0.4c-0.45,10.29-9.12,17.88-18.33,25.92-9.92,8.72-21.16,18.59-21.16,30.17v30.36c4.17,2.74,15.08,7.75,38.86,7.75a11.27,11.27,0,1,1,0,22.53c-17.36,0-29.91-2.36-38.86-5.51v1.39c0,2,2.11,5.76,3.94,9,3.1,5.41,6.88,12.17,6.88,20.1s-3.57,14.54-6.73,20.47c-1.8,3.47-4.1,7.75-4.1,9.92v17.4c4.17,2.74,15.08,7.75,38.86,7.75A11.27,11.27,0,0,1,349,388c-17.36,0-29.91-2.37-38.86-5.53v13.38c4.17,2.73,15.08,7.73,38.86,7.73a11.27,11.27,0,0,1,0,22.55c-17.36,0-29.91-2.37-38.86-5.53v40.84c0,25.1,18.76,37.84,55.69,37.84S421.58,486.54,421.58,461.44ZM388.06,145.1c0.11-5.48.11-11.15-1.28-12.58-0.83-.83-4.67-3.45-20.93-3.45s-20.1,2.62-20.88,3.45c-1.4,1.43-1.4,7.1-1.29,12.58a208.41,208.41,0,0,0,22.18.94A209.57,209.57,0,0,0,388.06,145.1Z" transform="translate(-273.6 -106.52)"/><path class="cls-1" d="M421.58,340.29V461.44c0,25.1-18.74,37.84-55.72,37.84s-55.69-12.74-55.69-37.84V420.59c8.95,3.16,21.5,5.53,38.86,5.53a11.27,11.27,0,0,0,0-22.55c-23.78,0-34.68-5-38.86-7.73V382.46c8.95,3.16,21.5,5.53,38.86,5.53a11.27,11.27,0,0,0,0-22.55c-23.78,0-34.68-5-38.86-7.75v-17.4c0-2.17,2.29-6.45,4.1-9.92,3.16-5.93,6.73-12.66,6.73-20.47s-3.79-14.69-6.88-20.1c-1.83-3.27-3.94-7-3.94-9V279.4c8.95,3.16,21.5,5.51,38.86,5.51a11.27,11.27,0,1,0,0-22.53c-23.78,0-34.68-5-38.86-7.75V224.27c0-11.58,11.24-21.45,21.16-30.17,9.21-8,17.88-15.63,18.33-25.92,4.82,0.25,10.23.4,16.2,0.4s11.43-.15,16.23-0.4c0.45,10.29,9.13,17.88,18.3,25.92,9.92,8.72,21.19,18.59,21.19,30.17v56.51c0,2-2.11,5.76-3.94,9-3.08,5.41-6.88,12.17-6.88,20.1s3.57,14.54,6.73,20.47C419.28,333.84,421.58,338.12,421.58,340.29Z" transform="translate(-273.6 -106.52)"/><path class="cls-1" d="M386.78,132.51c1.39,1.43,1.39,7.1,1.28,12.58a209.57,209.57,0,0,1-22.21.94,208.41,208.41,0,0,1-22.18-.94c-0.11-5.48-.11-11.15,1.29-12.58,0.79-.83,4.65-3.45,20.88-3.45S386,131.68,386.78,132.51Z" transform="translate(-273.6 -106.52)"/><path class="cls-2" d="M430.1,346.22V467.36c0,38.36-28.52,60.39-78.27,60.39s-78.24-22-78.24-60.39V346.22c0-7.81,3.57-14.54,6.73-20.47,1.85-3.45,4.1-7.7,4.1-9.92,0-2-2.09-5.71-3.94-9-3-5.41-6.88-12.14-6.88-20.1V230.2c0-21.79,16.69-36.41,28.86-47.11,3.8-3.31,9.44-8.27,10.67-10.61V170.2a11.22,11.22,0,0,1-5.82-9.89c0-2.45-.08-4.77-0.11-7-0.31-10.93-.57-22.24,7.62-30.62,7-7.22,18.07-10.26,37-10.26s30,3,37,10.26c8.19,8.38,7.9,19.68,7.64,30.62,0,2.22-.11,4.54-0.11,7a11.2,11.2,0,0,1-5.84,9.89v2.28c1.25,2.34,6.87,7.3,10.67,10.61,12.17,10.7,28.86,25.32,28.86,47.11v56.51c0,8-3.83,14.69-6.88,20.1-1.83,3.31-3.94,7-3.94,9,0,2.22,2.26,6.47,4.1,9.92C426.53,331.68,430.1,338.41,430.1,346.22ZM407.56,467.36V346.22c0-2.17-2.29-6.45-4.1-9.92-3.16-5.93-6.73-12.66-6.73-20.47s3.8-14.69,6.88-20.1c1.83-3.27,3.94-7,3.94-9V230.2c0-11.58-11.27-21.45-21.19-30.17-9.16-8-17.85-15.63-18.3-25.92-4.81.25-10.26,0.4-16.23,0.4s-11.38-.15-16.2-0.4C335.19,184.4,326.52,192,317.31,200c-9.92,8.72-21.16,18.59-21.16,30.17v30.36c4.17,2.74,15.08,7.75,38.86,7.75a11.27,11.27,0,1,1,0,22.53c-17.36,0-29.91-2.36-38.86-5.51v1.39c0,2,2.11,5.76,3.94,9,3.1,5.41,6.88,12.17,6.88,20.1s-3.57,14.54-6.73,20.47c-1.8,3.47-4.1,7.75-4.1,9.92v17.4c4.17,2.74,15.08,7.75,38.86,7.75a11.27,11.27,0,0,1,0,22.55c-17.36,0-29.91-2.37-38.86-5.53v13.38c4.17,2.73,15.08,7.73,38.86,7.73A11.27,11.27,0,1,1,335,432c-17.36,0-29.91-2.37-38.86-5.53v40.84c0,25.1,18.76,37.84,55.69,37.84S407.56,492.47,407.56,467.36ZM374,151c0.11-5.48.11-11.15-1.28-12.58-0.83-.83-4.67-3.45-20.93-3.45s-20.1,2.62-20.88,3.45c-1.4,1.43-1.4,7.1-1.29,12.58a208.41,208.41,0,0,0,22.18.94A209.57,209.57,0,0,0,374,151Z" transform="translate(-273.6 -106.52)"/><path class="cls-1" d="M407.56,346.22V467.36c0,25.1-18.74,37.84-55.72,37.84s-55.69-12.74-55.69-37.84V426.52c8.95,3.16,21.5,5.53,38.86,5.53a11.27,11.27,0,1,0,0-22.55c-23.78,0-34.68-5-38.86-7.73V388.39c8.95,3.16,21.5,5.53,38.86,5.53a11.27,11.27,0,0,0,0-22.55c-23.78,0-34.68-5-38.86-7.75v-17.4c0-2.17,2.29-6.45,4.1-9.92,3.16-5.93,6.73-12.66,6.73-20.47s-3.79-14.69-6.88-20.1c-1.83-3.27-3.94-7-3.94-9v-1.39c8.95,3.16,21.5,5.51,38.86,5.51a11.27,11.27,0,1,0,0-22.53c-23.78,0-34.68-5-38.86-7.75V230.2c0-11.58,11.24-21.45,21.16-30.17,9.21-8,17.88-15.63,18.33-25.92,4.82,0.25,10.23.4,16.2,0.4s11.43-.15,16.23-0.4c0.45,10.29,9.13,17.88,18.3,25.92,9.92,8.72,21.19,18.59,21.19,30.17v56.51c0,2-2.11,5.76-3.94,9-3.08,5.41-6.88,12.17-6.88,20.1s3.57,14.54,6.73,20.47C405.26,339.77,407.56,344,407.56,346.22Z" transform="translate(-273.6 -106.52)"/><path class="cls-1" d="M372.77,138.44c1.39,1.43,1.39,7.1,1.28,12.58a209.57,209.57,0,0,1-22.21.94,208.41,208.41,0,0,1-22.18-.94c-0.11-5.48-.11-11.15,1.29-12.58,0.79-.83,4.65-3.45,20.88-3.45S371.93,137.61,372.77,138.44Z" transform="translate(-273.6 -106.52)"/></svg>