<svg id="wine_opener" data-name="wine opener" xmlns="http://www.w3.org/2000/svg" viewBox="0 0 323.32 384.34"><defs><style>.cls-1{fill:#fff;}.cls-2{fill:#231f20;}</style></defs><title>wineopenerswag</title><path class="cls-1" d="M497.81,139.41a30.76,30.76,0,0,1,30.71,30.73c0,16.93-15.28,35.25-32.22,35.25H404.56c-1.72,3.56-3.83,7.5-3.83,16.25,0,10.64,3.57,25.23,5,29.94a10.38,10.38,0,0,1-9.92,13.26h-1.71v17a33.42,33.42,0,0,0,2.16,2.56c4,4.51,10,11.37,10,21.18,0,10.43-8.19,17.25-14.54,21.93,7.64,6.27,18.05,15.46,18.05,28.92s-10.67,23.33-18.25,29.71c7.72,7.05,18.25,17.36,18.25,30.12,0,12.07-9.23,21.58-16,28.54-1,1.06-2.33,2.4-3.43,3.6,0.62,0.55,1.28,1.16,1.82,1.6,5.48,4.81,13.81,12.07,13.81,23.44,0,10.21-8.66,17.14-15,22.16l-0.92.77c-1,1.71-2.23,6.71-2.82,9.15-1.42,5.74-3.48,14.43-12.51,14.43a13.55,13.55,0,0,1-9.93-4.62c-5.54-5.78-10.47-18.79-10.13-26.75,0.14-2.85.31-5.94,0.48-8.5-7.36-5.74-19.45-17.42-19.45-32.7,0-11.78,8-22.7,15.19-30.17-8.42-6.47-17.87-16.69-17.87-29.88,0-12.88,9.12-23.63,17.36-30.71-8.27-7-17.36-17.33-17.36-28.92,0-13.86,9.75-23.1,15-28.06a0.11,0.11,0,0,1,0-.06A30.9,30.9,0,0,1,346,288.69V264.84h-1.17A10.33,10.33,0,0,1,335,251.58c0-.17,5-17.17,5-29.94,0-8.72-5-26.54-6.76-30.11l-81.1-3.08c-16.94,0-30.91-1.39-30.91-18.31a30.75,30.75,0,0,1,30.71-30.73H497.81Zm10,30.73a10.06,10.06,0,0,0-10-10.06H251.89a10,10,0,1,0,0,20.1H497.81A10.05,10.05,0,0,0,507.85,170.13ZM379,430.4c4.07-4.16,10.15-10.43,10.15-14.14,0-4.37-9-12.57-12.8-16-5.47-5-9.39-8.61-9.39-14.42,0-6.1,4.19-9.61,9.53-14,4.44-3.65,12.66-10.47,12.66-15.35,0-4.45-7-10.16-11.72-14-5.62-4.57-10.47-8.53-10.47-15.22,0-7.19,5.58-11.26,11-15.22,2.25-1.62,6.82-5,7.69-6.75-0.2-2-2.65-4.76-4.82-7.24-3.45-3.88-7.33-8.29-7.33-14.63V264.36a10.25,10.25,0,0,1-3.1.48,9.83,9.83,0,0,1-3.62-.69v24.55a11.84,11.84,0,0,0,1.14,4.65,22.58,22.58,0,0,1,1.93,8.5c0,5.73-3.82,9.3-7.5,12.77-3.82,3.63-8.55,8.1-8.55,13.09,0,4.76,10.36,14.49,19.67,20.07a10.35,10.35,0,0,1-.17,17.85c-7.85,4.5-19.5,14.52-19.5,21.72,0,6.82,11.26,15.49,18.87,19.17a10.27,10.27,0,0,1,5.79,8.36,10.43,10.43,0,0,1-4.2,9.3c-7.16,5.24-17.76,16.25-17.76,23.21,0,7.25,10,15.8,14.89,18.79a10.41,10.41,0,0,1,4.93,9.64s-0.2,2.42-.4,5.58c0.26-.23.54-0.51,0.85-0.75l1.45-1.17c2.14-1.69,6-4.74,7.13-6.5-0.59-2.08-4.19-5.25-6.68-7.41-4.67-4.07-10.46-9.12-10.46-16.86C368.12,441.56,373.14,436.39,379,430.4Zm4.82-229.55H356.89a65.23,65.23,0,0,1,3.71,20.79A119.75,119.75,0,0,1,358,244.18h24.69a121,121,0,0,1-2.6-22.55A65.23,65.23,0,0,1,383.78,200.84Z" transform="translate(-205.2 -135.62)"/><path class="cls-1" d="M497.81,160.08a10,10,0,0,1,0,20.1H251.89a10,10,0,1,1,0-20.1H497.81Z" transform="translate(-205.2 -135.62)"/><path class="cls-1" d="M389.11,416.26c0,3.71-6.08,10-10.15,14.14-5.82,6-10.84,11.17-10.84,18.3,0,7.75,5.79,12.8,10.46,16.86,2.49,2.16,6.1,5.33,6.68,7.41-1.14,1.76-5,4.81-7.13,6.5l-1.45,1.17c-0.31.25-.59,0.52-0.85,0.75,0.2-3.16.4-5.54,0.4-5.58a10.41,10.41,0,0,0-4.93-9.64c-4.85-3-14.89-11.54-14.89-18.79,0-7,10.6-18,17.76-23.21a10.43,10.43,0,0,0,4.2-9.3,10.27,10.27,0,0,0-5.79-8.36c-7.61-3.68-18.87-12.35-18.87-19.17,0-7.19,11.64-17.22,19.5-21.72a10.35,10.35,0,0,0,.17-17.85c-9.3-5.58-19.67-15.31-19.67-20.07,0-5,4.73-9.46,8.55-13.09,3.68-3.47,7.5-7,7.5-12.77a22.58,22.58,0,0,0-1.93-8.5,11.84,11.84,0,0,1-1.14-4.65V264.84h6.71v18.59c0,6.35,3.88,10.75,7.33,14.63,2.17,2.48,4.62,5.24,4.82,7.24-0.86,1.79-5.44,5.13-7.69,6.75-5.39,4-11,8-11,15.22,0,6.68,4.85,10.64,10.47,15.22,4.68,3.79,11.72,9.5,11.72,14,0,4.88-8.22,11.7-12.66,15.35-5.34,4.4-9.53,7.92-9.53,14,0,5.81,3.93,9.43,9.39,14.42C380.13,403.69,389.11,411.89,389.11,416.26Z" transform="translate(-205.2 -135.62)"/><path class="cls-1" d="M356.89,200.84h26.89a65.23,65.23,0,0,0-3.71,20.79,121,121,0,0,0,2.6,22.55H358a119.75,119.75,0,0,0,2.62-22.55A65.23,65.23,0,0,0,356.89,200.84Z" transform="translate(-205.2 -135.62)"/><path class="cls-1" d="M373.42,264.36v0.48h-3.1A10.25,10.25,0,0,0,373.42,264.36Z" transform="translate(-205.2 -135.62)"/><path class="cls-1" d="M370.32,264.84H366.7v-0.69A9.83,9.83,0,0,0,370.32,264.84Z" transform="translate(-205.2 -135.62)"/><path class="cls-2" d="M481.84,135.62a30.72,30.72,0,0,1,0,61.44H390.08c-1.72,3.54-5.33,12-5.33,20.79,0,10.64,3.57,25.23,5,29.94A10.38,10.38,0,0,1,379.82,261h-1.71v17a33.42,33.42,0,0,0,2.16,2.56c4,4.51,10,11.37,10,21.18,0,10.43-8.19,17.25-14.54,21.93,7.64,6.27,18.05,15.46,18.05,28.92S383.13,376,375.55,382.34c7.72,7.05,18.25,17.36,18.25,30.12,0,12.07-9.23,21.58-16,28.54-1,1.06-2.33,2.4-3.43,3.6,0.62,0.55,1.28,1.16,1.82,1.6C381.68,451,390,458.29,390,469.65c0,10.21-8.66,17.14-15,22.16l-0.92.77c-1,1.71-2.23,6.71-2.82,9.15-1.42,5.74-3.48,14.43-12.51,14.43a13.55,13.55,0,0,1-9.93-4.62c-5.54-5.78-10.47-18.79-10.13-26.75,0.14-2.85.31-5.94,0.48-8.5-7.36-5.74-19.45-17.42-19.45-32.7,0-11.78,8-22.7,15.19-30.17-8.42-6.47-17.87-16.69-17.87-29.88,0-12.88,9.12-23.63,17.36-30.71-8.27-7-17.36-17.33-17.36-28.92,0-13.86,9.75-23.1,15-28.06a0.11,0.11,0,0,1,0-.06,30.9,30.9,0,0,1-2.06-10.89V261H328.9A10.33,10.33,0,0,1,319,247.78c0-.17,5-17.17,5-29.94,0-8.72-3.57-17.22-5.3-20.79H235.91a30.72,30.72,0,0,1,0-61.44H481.84Zm10,30.73a10.06,10.06,0,0,0-10-10.06H235.91a10,10,0,1,0,0,20.1H481.84A10.05,10.05,0,0,0,491.88,166.34ZM363,426.61c4.07-4.16,10.15-10.43,10.15-14.14,0-4.37-9-12.57-12.8-16-5.47-5-9.39-8.61-9.39-14.42,0-6.1,4.19-9.61,9.53-14,4.44-3.65,12.66-10.47,12.66-15.35,0-4.45-7-10.16-11.72-14-5.62-4.57-10.47-8.53-10.47-15.22,0-7.19,5.58-11.26,11-15.22,2.25-1.62,6.82-5,7.69-6.75-0.2-2-2.65-4.76-4.82-7.24-3.45-3.88-7.33-8.29-7.33-14.63V260.57a10.25,10.25,0,0,1-3.1.48,9.83,9.83,0,0,1-3.62-.69V284.9a11.84,11.84,0,0,0,1.14,4.65,22.58,22.58,0,0,1,1.93,8.5c0,5.73-3.82,9.3-7.5,12.77-3.82,3.63-8.55,8.1-8.55,13.09,0,4.76,10.36,14.49,19.67,20.07a10.35,10.35,0,0,1-.17,17.85c-7.85,4.5-19.5,14.52-19.5,21.72,0,6.82,11.26,15.49,18.87,19.17a10.27,10.27,0,0,1,5.79,8.36,10.43,10.43,0,0,1-4.2,9.3c-7.16,5.24-17.76,16.25-17.76,23.21,0,7.25,10,15.8,14.89,18.79a10.41,10.41,0,0,1,4.93,9.64s-0.2,2.42-.4,5.58c0.26-.23.54-0.51,0.85-0.75l1.45-1.17c2.14-1.69,6-4.74,7.13-6.5-0.59-2.08-4.19-5.25-6.68-7.41-4.67-4.07-10.46-9.12-10.46-16.86C352.15,437.77,357.17,432.6,363,426.61Zm4.82-229.55H340.92a65.23,65.23,0,0,1,3.71,20.79A119.75,119.75,0,0,1,342,240.39H366.7a121,121,0,0,1-2.6-22.55A65.23,65.23,0,0,1,367.81,197.05Z" transform="translate(-205.2 -135.62)"/><path class="cls-1" d="M481.84,156.28a10,10,0,0,1,0,20.1H235.91a10,10,0,1,1,0-20.1H481.84Z" transform="translate(-205.2 -135.62)"/><path class="cls-1" d="M373.14,412.47c0,3.71-6.08,10-10.15,14.14-5.82,6-10.84,11.17-10.84,18.3,0,7.75,5.79,12.8,10.46,16.86,2.49,2.16,6.1,5.33,6.68,7.41-1.14,1.76-5,4.81-7.13,6.5l-1.45,1.17c-0.31.25-.59,0.52-0.85,0.75,0.2-3.16.4-5.54,0.4-5.58a10.41,10.41,0,0,0-4.93-9.64c-4.85-3-14.89-11.54-14.89-18.79,0-7,10.6-18,17.76-23.21a10.43,10.43,0,0,0,4.2-9.3,10.27,10.27,0,0,0-5.79-8.36c-7.61-3.68-18.87-12.35-18.87-19.17,0-7.19,11.64-17.22,19.5-21.72a10.35,10.35,0,0,0,.17-17.85c-9.3-5.58-19.67-15.31-19.67-20.07,0-5,4.73-9.46,8.55-13.09,3.68-3.47,7.5-7,7.5-12.77a22.58,22.58,0,0,0-1.93-8.5,11.84,11.84,0,0,1-1.14-4.65V261h6.71v18.59c0,6.35,3.88,10.75,7.33,14.63,2.17,2.48,4.62,5.24,4.82,7.24-0.86,1.79-5.44,5.13-7.69,6.75-5.39,4-11,8-11,15.22,0,6.68,4.85,10.64,10.47,15.22,4.68,3.79,11.72,9.5,11.72,14,0,4.88-8.22,11.7-12.66,15.35-5.34,4.4-9.53,7.92-9.53,14,0,5.81,3.93,9.43,9.39,14.42C364.16,399.9,373.14,408.09,373.14,412.47Z" transform="translate(-205.2 -135.62)"/><path class="cls-1" d="M340.92,197.05h26.89a65.23,65.23,0,0,0-3.71,20.79,121,121,0,0,0,2.6,22.55H342a119.75,119.75,0,0,0,2.62-22.55A65.23,65.23,0,0,0,340.92,197.05Z" transform="translate(-205.2 -135.62)"/><path class="cls-2" d="M357.44,260.57V261h-3.1A10.25,10.25,0,0,0,357.44,260.57Z" transform="translate(-205.2 -135.62)"/><path class="cls-2" d="M354.35,261h-3.62v-0.69A9.83,9.83,0,0,0,354.35,261Z" transform="translate(-205.2 -135.62)"/></svg>